SplineFontDB: 3.0
FontName: Pro-BoldCond
FullName: Pro Bold Condensed
FamilyName: Pro
Weight: Bold
Copyright: 
Version: 0.001
ItalicAngle: 0
UnderlinePosition: -100
UnderlineWidth: 50
Ascent: 750
Descent: 250
InvalidEm: 0
sfntRevision: 0x00000048
LayerCount: 2
Layer: 0 0 "+BBcEMAQ0BD0EOAQ5 +BD8EOwQwBD0A" 1
Layer: 1 0 "+BB8ENQRABDUENAQ9BDgEOQAA +BD8EOwQwBD0A" 0
XUID: [1021 157 1657886286 16364]
BaseHoriz: 2 'ideo' 'romn'
BaseScript: 'DFLT' 1  -163 0
BaseScript: 'cyrl' 1  -163 0
BaseScript: 'grek' 1  -163 0
BaseScript: 'latn' 1  -163 0
StyleMap: 0x0020
FSType: 8
OS2Version: 4
OS2_WeightWidthSlopeOnly: 1
OS2_UseTypoMetrics: 1
CreationTime: 1300968463
ModificationTime: 1551369362
PfmFamily: 17
TTFWeight: 700
TTFWidth: 3
LineGap: 200
VLineGap: 0
Panose: 2 11 7 6 3 4 3 2 2 4
OS2TypoAscent: 750
OS2TypoAOffset: 0
OS2TypoDescent: -250
OS2TypoDOffset: 0
OS2TypoLinegap: 200
OS2WinAscent: 958
OS2WinAOffset: 0
OS2WinDescent: 250
OS2WinDOffset: 0
HheadAscent: 750
HheadAOffset: 0
HheadDescent: -250
HheadDOffset: 0
OS2SubXSize: 650
OS2SubYSize: 600
OS2SubXOff: 0
OS2SubYOff: 75
OS2SupXSize: 650
OS2SupYSize: 600
OS2SupXOff: 0
OS2SupYOff: 350
OS2StrikeYSize: 50
OS2StrikeYPos: 290
OS2CapHeight: 674
OS2XHeight: 484
OS2Vendor: '    '
OS2CodePages: 2000019f.00000000
OS2UnicodeRanges: 20000287.00000001.00000000.00000000
Lookup: 1 0 0 "'aalt' +BBIEQQQ1 +BDAEOwRMBEIENQRABD0EMARCBDgEMgQ9BEsENQAA +BDIEMARABDgEMAQ9BEIESwAA lookup 0" { "'aalt' +BBIEQQQ1 +BDAEOwRMBEIENQRABD0EMARCBDgEMgQ9BEsENQAA +BDIEMARABDgEMAQ9BEIESwAA lookup 0 subtable"  } ['aalt' ('DFLT' <'dflt' > 'cyrl' <'dflt' > 'grek' <'dflt' > 'latn' <'AZE ' 'CRT ' 'MOL ' 'ROM ' 'TRK ' 'dflt' > ) ]
Lookup: 3 0 0 "'aalt' +BBIEQQQ1 +BDAEOwRMBEIENQRABD0EMARCBDgEMgQ9BEsENQAA +BDIEMARABDgEMAQ9BEIESwAA lookup 1" { "'aalt' +BBIEQQQ1 +BDAEOwRMBEIENQRABD0EMARCBDgEMgQ9BEsENQAA +BDIEMARABDgEMAQ9BEIESwAA lookup 1 subtable"  } ['aalt' ('DFLT' <'dflt' > 'cyrl' <'dflt' > 'grek' <'dflt' > 'latn' <'AZE ' 'CRT ' 'MOL ' 'ROM ' 'TRK ' 'dflt' > ) ]

StartChar: .notdef
Encoding: 65536 -1 0
Width: 500
Flags: W
HStem: 0 40<80 420> 630 70<80 420>
VStem: 0 50<85 585> 450 50<85 585>
LayerCount: 2
Fore
SplineSet
0 0 m 1
 0 700 l 1
 500 700 l 1
 500 0 l 1
 0 0 l 1
250 375 m 1
 420 630 l 1
 80 630 l 1
 250 375 l 1
280 330 m 1
 450 85 l 5
 450 585 l 1
 280 330 l 1
80 40 m 5
 420 40 l 5
 250 285 l 1
 80 40 l 5
50 585 m 1
 50 85 l 5
 220 330 l 1
 50 585 l 1
EndSplineSet
Validated: 1
EndChar

StartChar: exclam
Encoding: 33 33 2
Width: 256
Flags: W
HStem: -14 159<76 207> 654 20G<67 210>
VStem: 67 143<461.667 674> 76 131<129.1 140 219 269.556>
LayerCount: 2
Fore
SplineSet
76 145 m 1xd0
 207 140 l 1
 207 -19 l 1
 66 -14 l 1
 76 145 l 1xd0
204 219 m 1
 82 219 l 1
 67 674 l 1
 210 674 l 1xe0
 204 219 l 1
EndSplineSet
Validated: 1
EndChar

StartChar: quotedbl
Encoding: 34 34 3
Width: 331
Flags: W
HStem: 422 273 666 20G<33 147.44>
VStem: 46 95<436 566.615> 201 84<425 557>
LayerCount: 2
Fore
SplineSet
33 682 m 1x70
 148 686 l 5
 141 436 l 5
 46 432 l 1
 33 682 l 1x70
193 695 m 1xb0
 299 692 l 1
 285 422 l 1
 201 425 l 1
 193 695 l 1xb0
EndSplineSet
Validated: 1
EndChar

StartChar: numbersign
Encoding: 35 35 4
Width: 426
Flags: W
HStem: -8 21G<63.7822 138.463> 195 75<15 82.4385 171 232 321.409 391> 637 20G<124.063 218 287.446 381>
VStem: 208 68.7939<9.20625 43.4167>
LayerCount: 2
Fore
SplineSet
171 270 m 1
 242 270 l 1
 256.016601562 385.450195312 l 1
 183.1640625 390.021484375 l 1
 171 270 l 1
136 -8 m 1
 63.7822265625 -1.66015625 l 1
 82.4384765625 194.048828125 l 1
 15 195 l 1
 15 270 l 1
 89.998046875 269.333984375 l 1
 100.580078125 395.20703125 l 1
 34.47265625 399.614257812 l 1
 39.3017578125 474.458984375 l 1
 107.970703125 470.848632812 l 1
 126 657 l 5
 218 650 l 1
 197.971679688 464.22265625 l 1
 265.82421875 460.651367188 l 1
 290 650 l 1
 381 641 l 1
 352.8125 454.00390625 l 1
 413.5234375 450.315429688 l 1
 408.6953125 375.471679688 l 1
 338.360351562 380.279296875 l 1
 321.409179688 270.813476562 l 1
 391 270 l 1
 391 195 l 1
 309.73828125 196.182617188 l 1
 276.793945312 2.19921875 l 1
 208 10 l 1
 232 195 l 1
 161 195 l 1
 136 -8 l 1
EndSplineSet
Validated: 1
Substitution2: "'onum' Oldstyle Figures lookup 14 subtable" numbersign.taboldstyle
Substitution2: "'aalt' +BBIEQQQ1 +BDAEOwRMBEIENQRABD0EMARCBDgEMgQ9BEsENQAA +BDIEMARABDgEMAQ9BEIESwAA lookup 0 subtable" numbersign.taboldstyle
EndChar

StartChar: dollar
Encoding: 36 36 5
Width: 426
Flags: HW
HStem: 17 96<76.459 162> 523 110<261 346.672>
VStem: 56 123<410.71 513.423> 167 85<-80 17> 258 117<126.041 230.01>
LayerCount: 2
Fore
SplineSet
252 -80 m 1xd8
 167 -85 l 1xd8
 162 17 l 1
 108 18 84 23 55 33 c 1
 75 127 l 1
 102 118 134 113 164 113 c 0
 169 113 174 113 179 113 c 0
 258 117 258 141 258 179 c 0
 258 220 227 244 176 276 c 0
 97 325 56 382 56 460 c 0
 56 589 72 609 166 623 c 1
 156 725 l 1
 251 735 l 1
 261 633 l 1
 284 633 344 628 370 618 c 1
 348 508 l 1
 320 520 270 523 251 523 c 0
 181 523 179 495 179 461 c 0xe8
 179 427 192 408 261 366 c 0
 346 315 375 262 375 191 c 0
 375 57 350 41 247 26 c 1
 252 -80 l 1xd8
EndSplineSet
Validated: 1
Substitution2: "'onum' Oldstyle Figures lookup 14 subtable" dollar.taboldstyle
Substitution2: "'subs' +BB0EOAQ2BD0EOAQ5 +BDgEPQQ0BDUEOgRB lookup 13 subtable" dollar.inferior
Substitution2: "'sups' +BBIENQRABEUEPQQ4BDkA +BDgEPQQ0BDUEOgRB lookup 12 subtable" dollar.superior
Substitution2: "'dnom' Denominators lookup 6 subtable" dollar.denominator
Substitution2: "'numr' Numerators lookup 5 subtable" dollar.numerator
AlternateSubs2: "'aalt' +BBIEQQQ1 +BDAEOwRMBEIENQRABD0EMARCBDgEMgQ9BEsENQAA +BDIEMARABDgEMAQ9BEIESwAA lookup 1 subtable" dollar.numerator dollar.denominator dollar.superior dollar.inferior dollar.taboldstyle
EndChar

StartChar: percent
Encoding: 37 37 6
Width: 657
Flags: HW
HStem: -6 70<470.413 543.699> 273 79<477.796 545.346> 289 70<115.508 176.212> 589 79<114.985 182.797> 658 20G<458.943 503>
VStem: 18 88<362.488 584.629> 551 88<67.7339 269.161>
LayerCount: 2
Fore
SplineSet
150 668 m 0xb6
 256 668 281 653 281 550 c 0
 281 528 280 502 278 471 c 0
 268 302 254 291 149 289 c 0
 142 289 136 289 130 289 c 0
 18 289 18 309 18 466 c 0
 18 656 65 668 150 668 c 0xb6
149 589 m 0
 148 589 146 589 145 589 c 0
 119 589 106 586 106 469 c 0
 106 361 117 359 146 359 c 0
 147 359 148 359 149 359 c 0
 180 359 190 387 190 468 c 0
 190 583 181 589 149 589 c 0
178 -38 m 1
 119 -18 l 1
 469 678 l 1x8e
 537 638 l 1
 178 -38 l 1
511 352 m 0xc6
 514 352 518 352 521 352 c 0
 610 352 636 349 639 186 c 0
 639 182 639 178 639 174 c 0
 639 -1 575 -5 510 -6 c 0
 501 -6 493 -6 485 -6 c 0
 397 -6 376 9 376 98 c 0
 376 121 377 148 379 181 c 0
 389 339 404 352 511 352 c 0xc6
510 273 m 0
 481 273 474 271 467 184 c 0
 465 162 464 143 464 128 c 0
 464 77 476 65 510 64 c 0
 512 64 515 64 517 64 c 0
 542 64 551 73 551 183 c 0
 551 273 542 273 510 273 c 0
EndSplineSet
Validated: 1
Substitution2: "'onum' Oldstyle Figures lookup 14 subtable" percent.oldstyle
Substitution2: "'aalt' +BBIEQQQ1 +BDAEOwRMBEIENQRABD0EMARCBDgEMgQ9BEsENQAA +BDIEMARABDgEMAQ9BEIESwAA lookup 0 subtable" percent.oldstyle
EndChar

StartChar: ampersand
Encoding: 38 38 7
Width: 530
Flags: HW
HStem: 560 122<219.787 421.52>
VStem: 32 137<97.8837 277.753> 72 136<433.359 548.804> 360 112<127.054 292.511>
LayerCount: 2
Fore
SplineSet
427 542 m 1xb0
 393 554 312 560 293 560 c 0
 237 560 208 558 208 481 c 0
 208 416 226 426 472 401 c 1
 462 -68 l 1
 340 -63 l 1
 342 4 l 1
 328 3 273 -7 263 -8 c 0
 237 -12 213 -14 192 -14 c 0
 89 -14 32 34 32 192 c 0xd0
 32 340 67 335 146 351 c 1
 146 353 l 1
 78 370 72 378 72 506 c 0xb0
 72 670 132 682 260 682 c 0
 299 682 404 668 449 653 c 1
 427 542 l 1xb0
352 104 m 5
 360 291 l 5
 321 295 289 297 264 297 c 4
 182 297 169 271 169 186 c 4xd0
 169 113 176 87 227 87 c 4
 240 87 256 89 276 92 c 4
 282 93 342 103 352 104 c 5
EndSplineSet
EndChar

StartChar: quoteright
Encoding: 8217 8217 8
Width: 190
Flags: MW
HStem: 662 20G<184 184>
VStem: 4 180
LayerCount: 2
Fore
SplineSet
71 674 m 1
 184 682 l 1
 156 592 114 502 71 430 c 1
 4 421 l 1
 33 504 60 595 71 674 c 1
EndSplineSet
Validated: 1
EndChar

StartChar: parenleft
Encoding: 40 40 9
Width: 258
Flags: W
HStem: 682 20G<109 241>
VStem: 32 103<129.815 523.421>
LayerCount: 2
Fore
SplineSet
137 702 m 1
 241 692 l 1
 183 601 135 531 135 344 c 4
 135 163 173 -16 231 -110 c 1
 147 -130 l 1
 91 -55 32 152 32 345 c 4
 36 540 81 626 137 702 c 1
EndSplineSet
Validated: 1
Substitution2: "'subs' +BB0EOAQ2BD0EOAQ5 +BDgEPQQ0BDUEOgRB lookup 13 subtable" parenleft.inferior
Substitution2: "'sups' +BBIENQRABEUEPQQ4BDkA +BDgEPQQ0BDUEOgRB lookup 12 subtable" parenleft.superior
Substitution2: "'dnom' Denominators lookup 6 subtable" parenleft.denominator
Substitution2: "'numr' Numerators lookup 5 subtable" parenleft.numerator
Substitution2: "'case' +BCAENQQzBDgEQQRCBEAEPgQ3BDAEMgQ4BEEEOAQ8BEsENQAA +BEQEPgRABDwESwAA lookup 4 subtable" parenleft.cap
AlternateSubs2: "'aalt' +BBIEQQQ1 +BDAEOwRMBEIENQRABD0EMARCBDgEMgQ9BEsENQAA +BDIEMARABDgEMAQ9BEIESwAA lookup 1 subtable" parenleft.cap parenleft.numerator parenleft.denominator parenleft.superior parenleft.inferior
EndChar

StartChar: parenright
Encoding: 41 41 10
Width: 258
Flags: W
HStem: 682 20G<17 149>
VStem: 123 103<81.7217 457.624>
LayerCount: 2
Fore
SplineSet
101 -130 m 1
 17 -120 l 1
 75 -28 123 66 123 248 c 4
 123 430 75 590 17 682 c 1
 121 702 l 1
 177 629 226 446 226 248 c 4
 222 50 157 -52 101 -130 c 1
EndSplineSet
Validated: 1
Substitution2: "'subs' +BB0EOAQ2BD0EOAQ5 +BDgEPQQ0BDUEOgRB lookup 13 subtable" parenright.inferior
Substitution2: "'sups' +BBIENQRABEUEPQQ4BDkA +BDgEPQQ0BDUEOgRB lookup 12 subtable" parenright.superior
Substitution2: "'dnom' Denominators lookup 6 subtable" parenright.denominator
Substitution2: "'numr' Numerators lookup 5 subtable" parenright.numerator
Substitution2: "'case' +BCAENQQzBDgEQQRCBEAEPgQ3BDAEMgQ4BEEEOAQ8BEsENQAA +BEQEPgRABDwESwAA lookup 4 subtable" parenright.cap
AlternateSubs2: "'aalt' +BBIEQQQ1 +BDAEOwRMBEIENQRABD0EMARCBDgEMgQ9BEsENQAA +BDIEMARABDgEMAQ9BEIESwAA lookup 1 subtable" parenright.cap parenright.numerator parenright.denominator parenright.superior parenright.inferior
EndChar

StartChar: asterisk
Encoding: 42 42 11
Width: 385
Flags: W
HStem: 451 91<15 65.75 317.062 370> 656 20G<93.7143 138.862> 672 20G<245.758 290.652>
LayerCount: 2
Fore
SplineSet
255 692 m 1xa0
 337 646 l 1
 248 529 l 1
 249 526 l 1
 370 542 l 1
 370 445 l 5
 248 447 l 1
 247 444 l 1
 330 346 l 1
 256 304 l 1
 190 428 l 1
 188 425 l 1
 131 313 l 1
 56 360 l 1
 135 449 l 1
 133 450 l 1
 15 451 l 1
 15 542 l 1
 131 526 l 1
 134 529 l 1
 56 634 l 1
 128 676 l 1xc0
 191 560 l 1
 194 560 l 1
 255 692 l 1xa0
EndSplineSet
Validated: 1
EndChar

StartChar: plus
Encoding: 43 43 12
Width: 596
Flags: W
HStem: 216.044 91.9854<40 237.588 344.915 546>
VStem: 237.588 107.327<115.644 216.044 308.092 531.988>
LayerCount: 2
Fore
SplineSet
234.040039062 532.063476562 m 5
 349.185546875 531.98828125 l 1
 344.915039062 308.029296875 l 1
 546 308 l 1
 546 216 l 1
 343.352539062 216.043945312 l 1
 339.043945312 0.0849609375 l 1
 242.46484375 0.1298828125 l 5
 238.885742188 216.1015625 l 5
 40 216 l 1
 40 308 l 1
 237.587890625 308.091796875 l 5
 234.040039062 532.063476562 l 5
EndSplineSet
Validated: 1
EndChar

StartChar: comma
Encoding: 44 44 13
Width: 233
Flags: W
HStem: -136 308
VStem: 10 200
LayerCount: 2
Fore
SplineSet
114 -136 m 1
 10 -125 l 1
 77 172 l 5
 210 151 l 1
 114 -136 l 1
EndSplineSet
Validated: 1
Substitution2: "'subs' +BB0EOAQ2BD0EOAQ5 +BDgEPQQ0BDUEOgRB lookup 13 subtable" comma.inferior
Substitution2: "'sups' +BBIENQRABEUEPQQ4BDkA +BDgEPQQ0BDUEOgRB lookup 12 subtable" comma.superior
Substitution2: "'dnom' Denominators lookup 6 subtable" comma.denominator
Substitution2: "'numr' Numerators lookup 5 subtable" comma.numerator
AlternateSubs2: "'aalt' +BBIEQQQ1 +BDAEOwRMBEIENQRABD0EMARCBDgEMgQ9BEsENQAA +BDIEMARABDgEMAQ9BEIESwAA lookup 1 subtable" comma.numerator comma.denominator comma.superior comma.inferior
EndChar

StartChar: hyphen
Encoding: 45 45 14
Width: 259
Flags: W
HStem: 224 94<33 226>
VStem: 30 199
LayerCount: 2
Fore
SplineSet
30 318 m 1
 229 323 l 1
 226 229 l 5
 33 224 l 1
 30 318 l 1
EndSplineSet
Validated: 1
Substitution2: "'subs' +BB0EOAQ2BD0EOAQ5 +BDgEPQQ0BDUEOgRB lookup 13 subtable" hyphen.inferior
Substitution2: "'sups' +BBIENQRABEUEPQQ4BDkA +BDgEPQQ0BDUEOgRB lookup 12 subtable" hyphen.superior
Substitution2: "'dnom' Denominators lookup 6 subtable" hyphen.denominator
Substitution2: "'numr' Numerators lookup 5 subtable" hyphen.numerator
Substitution2: "'case' +BCAENQQzBDgEQQRCBEAEPgQ3BDAEMgQ4BEEEOAQ8BEsENQAA +BEQEPgRABDwESwAA lookup 4 subtable" hyphen.cap
AlternateSubs2: "'aalt' +BBIEQQQ1 +BDAEOwRMBEIENQRABD0EMARCBDgEMgQ9BEsENQAA +BDIEMARABDgEMAQ9BEIESwAA lookup 1 subtable" endash emdash hyphen.cap hyphen.superior hyphen.inferior hyphen.numerator hyphen.denominator
EndChar

StartChar: period
Encoding: 46 46 15
Width: 233
Flags: HW
HStem: -7 173<52.3698 195.544>
VStem: 53 142<-7 166.711>
LayerCount: 2
Fore
SplineSet
48 166 m 1
 67.1509387408 169.046740254 92.5534420495 170.199067003 117.693637284 170.199067003 c 0
 150.313983468 170.199067003 182.49270684 168.259005569 200 166 c 1
 200 151.75 200.0625 136.9375 200.0625 121.953125 c 0
 200.0625 77 199.5 30.5 195 -7 c 1
 179.322356372 -9.61294060472 153.266975666 -11.1334878328 125.682370813 -11.1334878328 c 0
 100.482375811 -11.1334878328 74.0061226785 -9.86447127434 53 -7 c 1
 48.5454545455 32.4545454545 47.7355371901 75.1487603306 47.7355371901 111.54770849 c 0
 47.7355371901 132.347107438 48 151.090909091 48 166 c 1
EndSplineSet
Validated: 524289
Substitution2: "'subs' +BB0EOAQ2BD0EOAQ5 +BDgEPQQ0BDUEOgRB lookup 13 subtable" period.inferior
Substitution2: "'sups' +BBIENQRABEUEPQQ4BDkA +BDgEPQQ0BDUEOgRB lookup 12 subtable" period.superior
Substitution2: "'dnom' Denominators lookup 6 subtable" period.denominator
Substitution2: "'numr' Numerators lookup 5 subtable" period.numerator
AlternateSubs2: "'aalt' +BBIEQQQ1 +BDAEOwRMBEIENQRABD0EMARCBDgEMgQ9BEsENQAA +BDIEMARABDgEMAQ9BEIESwAA lookup 1 subtable" ellipsis period.superior period.inferior period.numerator period.denominator
EndChar

StartChar: slash
Encoding: 47 47 16
Width: 280
Flags: W
VStem: -22 320
LayerCount: 2
Fore
SplineSet
63 -50 m 1
 -22 -40 l 1
 192 712 l 5
 298 682 l 1
 63 -50 l 1
EndSplineSet
Validated: 1
Substitution2: "'frac' Diagonal Fractions lookup 8 subtable" slash.frac
Substitution2: "'dnom' Denominators lookup 6 subtable" fraction
Substitution2: "'numr' Numerators lookup 5 subtable" fraction
Substitution2: "'aalt' +BBIEQQQ1 +BDAEOwRMBEIENQRABD0EMARCBDgEMgQ9BEsENQAA +BDIEMARABDgEMAQ9BEIESwAA lookup 0 subtable" fraction
EndChar

StartChar: zero
Encoding: 48 48 17
Width: 426
Flags: HW
HStem: -8 104<162.622 262.18> 548 124<167.093 267.821>
VStem: 25 131<102.747 541.107> 274 132<101.899 544.362>
LayerCount: 2
Fore
SplineSet
227 672 m 0
 383 672 406 663 406 339 c 0
 406 332 406.00085025 325.524816665 406.00085025 318.984226552 c 0
 406.00085025 8.30619619513 404.082474227 -8 218 -8 c 0
 32 -8 25 17 25 329 c 0
 25 664 32 672 227 672 c 0
222 548 m 0
 162.352941176 548 155.335640138 537.474048443 155.335640138 441.742926929 c 0
 155.335640138 412.287197232 156 374.764705882 156 327 c 0
 156 272.941747573 155.348477708 231.533886323 155.348477708 199.816101368 c 0
 155.348477708 96.5751631617 162.251312265 95.9999269486 220.994237684 95.9999269486 c 0
 223 96 l 0
 224.984126984 96 226.891093474 95.9921264802 228.723898907 95.9921264802 c 0
 273.077790375 95.9921264802 274 100.603174603 274 333 c 0
 274 382.268292683 274.594883998 420.293277811 274.594883998 449.628603764 c 0
 274.594883998 540.568114218 268.87804878 548 222 548 c 0
EndSplineSet
Validated: 524289
Substitution2: "'zero' Slashed Zero lookup 19 subtable" zero.slash
Substitution2: "'pnum' Proportional Numbers lookup 16 subtable" zero.fitted
Substitution2: "'onum' Oldstyle Figures lookup 14 subtable" zero.taboldstyle
Substitution2: "'subs' +BB0EOAQ2BD0EOAQ5 +BDgEPQQ0BDUEOgRB lookup 13 subtable" zero.inferior
Substitution2: "'sups' +BBIENQRABEUEPQQ4BDkA +BDgEPQQ0BDUEOgRB lookup 12 subtable" zero.superior
Substitution2: "'dnom' Denominators lookup 6 subtable" zero.denominator
Substitution2: "'numr' Numerators lookup 5 subtable" zero.numerator
AlternateSubs2: "'aalt' +BBIEQQQ1 +BDAEOwRMBEIENQRABD0EMARCBDgEMgQ9BEsENQAA +BDIEMARABDgEMAQ9BEIESwAA lookup 1 subtable" zero.fitted zero.oldstyle zero.taboldstyle zero.numerator zero.denominator zero.superior zero.inferior zero.slash
EndChar

StartChar: one
Encoding: 49 49 18
Width: 426
Flags: W
HStem: -10.7402 21G<173.057 303.422> 631.374 20G<200.909 315.887>
VStem: 173.057 129.976<-8.20898 330.69> 183.341 132.546<289.34 489.691>
LayerCount: 2
Fore
SplineSet
173.056640625 -8.208984375 m 1xe0
 183.340820312 489.69140625 l 1
 181.340820312 489.73046875 l 1
 181.340820312 489.73046875 103 454 67 431 c 1
 50 458 27 525 22 561 c 1
 92 609 200.909179688 651.374023438 200.909179688 651.374023438 c 1
 315.88671875 648.134765625 l 5xd0
 303.032226562 -10.740234375 l 1
 173.056640625 -8.208984375 l 1xe0
EndSplineSet
Validated: 1
Substitution2: "'pnum' Proportional Numbers lookup 16 subtable" one.fitted
Substitution2: "'onum' Oldstyle Figures lookup 14 subtable" one.taboldstyle
Substitution2: "'subs' +BB0EOAQ2BD0EOAQ5 +BDgEPQQ0BDUEOgRB lookup 13 subtable" one.inferior
Substitution2: "'sups' +BBIENQRABEUEPQQ4BDkA +BDgEPQQ0BDUEOgRB lookup 12 subtable" one.superior
Substitution2: "'dnom' Denominators lookup 6 subtable" one.denominator
Substitution2: "'numr' Numerators lookup 5 subtable" one.numerator
AlternateSubs2: "'aalt' +BBIEQQQ1 +BDAEOwRMBEIENQRABD0EMARCBDgEMgQ9BEsENQAA +BDIEMARABDgEMAQ9BEIESwAA lookup 1 subtable" one.fitted one.oldstyle one.taboldstyle one.numerator one.denominator one.superior one.inferior
EndChar

StartChar: two
Encoding: 50 50 19
Width: 426
Flags: HW
HStem: -10 115<187.043 377.349> 539 119<55.1223 240.37>
VStem: 252 119<367.549 526.566>
LayerCount: 2
Fore
SplineSet
376 -10 m 1
 355.724137931 -10.3103448276 335.929845422 -10.4494649227 316.734470458 -10.4494649227 c 0
 150.374554102 -10.4494649227 29 -3.38271077815e-017 29 0 c 1
 24 88 l 1
 89 171 l 2
 206 321 252 367 252 460 c 0
 252 528 237 539 159 539 c 0
 137 539 99 534 51 516 c 1
 28 628 l 1
 77 644 146 658 183 658 c 0
 315 658 371 658 371 470 c 0
 371 348 343 318 220 163 c 2
 181 114 l 1
 181 112 l 1
 181 112 260 106 380 105 c 1
 381.291868154 93.0502195728 381.853582353 78.8056695695 381.853582353 64.3550029865 c 0
 381.853582353 34.0621977686 379.385164807 2.86362626711 376 -10 c 1
EndSplineSet
Validated: 524289
Substitution2: "'pnum' Proportional Numbers lookup 16 subtable" two.fitted
Substitution2: "'onum' Oldstyle Figures lookup 14 subtable" two.taboldstyle
Substitution2: "'subs' +BB0EOAQ2BD0EOAQ5 +BDgEPQQ0BDUEOgRB lookup 13 subtable" two.inferior
Substitution2: "'sups' +BBIENQRABEUEPQQ4BDkA +BDgEPQQ0BDUEOgRB lookup 12 subtable" two.superior
Substitution2: "'dnom' Denominators lookup 6 subtable" two.denominator
Substitution2: "'numr' Numerators lookup 5 subtable" two.numerator
AlternateSubs2: "'aalt' +BBIEQQQ1 +BDAEOwRMBEIENQRABD0EMARCBDgEMgQ9BEsENQAA +BDIEMARABDgEMAQ9BEIESwAA lookup 1 subtable" two.fitted two.oldstyle two.taboldstyle two.numerator two.denominator two.superior two.inferior
EndChar

StartChar: three
Encoding: 51 51 20
Width: 400
Flags: W
HStem: -8 100<36.041 224.37> 291 109<100 205.74> 560 122<41.5627 211.213>
VStem: 223 136<417.488 548.804> 242 137<112.183 265.599>
LayerCount: 2
Fore
SplineSet
44 542 m 1xf0
 12 653 l 1
 57 668 132 682 171 682 c 0
 299 682 359 670 359 506 c 0xf0
 359 378 333 370 265 353 c 5
 265 351 l 5
 344 335 379 340 379 192 c 0
 379 2.22044604925e-014 269 -8 148 -8 c 0
 112 -8 45 0 12 12 c 1
 41 109 l 1
 70 98 115 92 135 92 c 0
 205 92 242 94 242 186 c 0xe8
 242 298 180 291 109 291 c 2
 100 291 l 1
 90 400 l 1
 103 400 l 2
 163 400 223 392 223 481 c 0
 223 558 194 560 138 560 c 0
 119 560 78 554 44 542 c 1xf0
EndSplineSet
Validated: 524321
Substitution2: "'pnum' Proportional Numbers lookup 16 subtable" three.fitted
Substitution2: "'onum' Oldstyle Figures lookup 14 subtable" three.taboldstyle
Substitution2: "'subs' +BB0EOAQ2BD0EOAQ5 +BDgEPQQ0BDUEOgRB lookup 13 subtable" three.inferior
Substitution2: "'sups' +BBIENQRABEUEPQQ4BDkA +BDgEPQQ0BDUEOgRB lookup 12 subtable" three.superior
Substitution2: "'dnom' Denominators lookup 6 subtable" three.denominator
Substitution2: "'numr' Numerators lookup 5 subtable" three.numerator
AlternateSubs2: "'aalt' +BBIEQQQ1 +BDAEOwRMBEIENQRABD0EMARCBDgEMgQ9BEsENQAA +BDIEMARABDgEMAQ9BEIESwAA lookup 1 subtable" three.fitted three.oldstyle three.taboldstyle three.numerator three.denominator three.superior three.inferior
EndChar

StartChar: four
Encoding: 52 52 21
Width: 426
Flags: W
HStem: -10.9844 21G<225.618 342.125> 155 105<122 230.062 348.366 410>
VStem: 225.618 115.972<-8.40723 154.978 260.528 367.463> 240.726 116.306<334.681 491.314>
LayerCount: 2
Fore
SplineSet
341.58984375 -10.984375 m 5xe0
 225.618164062 -8.4072265625 l 5xe0
 230.0625 155.5546875 l 1
 21 155 l 1
 11 255 l 1
 231.061523438 661.654296875 l 1
 357.03125 648.85546875 l 1xd0
 348.366210938 259.951171875 l 1
 410 260 l 1
 415 155 l 1
 346.033203125 154.977539062 l 1
 341.58984375 -10.984375 l 5xe0
122 260 m 1
 232.39453125 260.528320312 l 1
 240.725585938 491.314453125 l 1xd0
 236.7265625 491.403320312 l 1
 122 262 l 1
 122 260 l 1
EndSplineSet
Validated: 524289
Substitution2: "'pnum' Proportional Numbers lookup 16 subtable" four.fitted
Substitution2: "'onum' Oldstyle Figures lookup 14 subtable" four.taboldstyle
Substitution2: "'subs' +BB0EOAQ2BD0EOAQ5 +BDgEPQQ0BDUEOgRB lookup 13 subtable" four.inferior
Substitution2: "'sups' +BBIENQRABEUEPQQ4BDkA +BDgEPQQ0BDUEOgRB lookup 12 subtable" four.superior
Substitution2: "'dnom' Denominators lookup 6 subtable" four.denominator
Substitution2: "'numr' Numerators lookup 5 subtable" four.numerator
AlternateSubs2: "'aalt' +BBIEQQQ1 +BDAEOwRMBEIENQRABD0EMARCBDgEMgQ9BEsENQAA +BDIEMARABDgEMAQ9BEIESwAA lookup 1 subtable" four.fitted four.oldstyle four.taboldstyle four.numerator four.denominator four.superior four.inferior
EndChar

StartChar: five
Encoding: 53 53 22
Width: 426
Flags: W
HStem: -8 97<44.7066 238.741> 316 104<178 238.835> 526 119<193 277.3> 531 124<193 355>
LayerCount: 2
Fore
SplineSet
355 655 m 5xd0
 365 531 l 1xd0
 193 526 l 1
 178 420 l 1
 184 420 241 420 248 420 c 0
 345.572265625 416.515625 386 391 376 222 c 0
 363.713655613 14.360779857 342 -8 200 -8 c 0
 154 -8 54 4 28 18 c 1
 48 112 l 1
 72 100 146 89 181 89 c 0
 255 89 239.795405675 98.2351051658 247 200 c 0
 255 313 241 312 146 316 c 0
 128.016187685 316.75721315 112 317 60 318 c 1
 96 645 l 1xe0
 355 655 l 5xd0
EndSplineSet
Validated: 524321
Substitution2: "'pnum' Proportional Numbers lookup 16 subtable" five.fitted
Substitution2: "'onum' Oldstyle Figures lookup 14 subtable" five.taboldstyle
Substitution2: "'subs' +BB0EOAQ2BD0EOAQ5 +BDgEPQQ0BDUEOgRB lookup 13 subtable" five.inferior
Substitution2: "'sups' +BBIENQRABEUEPQQ4BDkA +BDgEPQQ0BDUEOgRB lookup 12 subtable" five.superior
Substitution2: "'dnom' Denominators lookup 6 subtable" five.denominator
Substitution2: "'numr' Numerators lookup 5 subtable" five.numerator
AlternateSubs2: "'aalt' +BBIEQQQ1 +BDAEOwRMBEIENQRABD0EMARCBDgEMgQ9BEsENQAA +BDIEMARABDgEMAQ9BEIESwAA lookup 1 subtable" five.fitted five.oldstyle five.taboldstyle five.numerator five.denominator five.superior five.inferior
EndChar

StartChar: six
Encoding: 54 54 23
Width: 426
Flags: W
HStem: -8 85<167.915 269.113> 552 106<227.052 346.321>
VStem: 23 133<83.429 510.231> 277 129<81.5438 307.026>
LayerCount: 2
Fore
SplineSet
345 658 m 5
 365 552 l 5
 162 525 156 536 156 392 c 1
 159 392 l 1
 182 423 216.337239444 429.374835976 259 424 c 0
 386 408 406 402 406 222 c 0
 406 14 406 -8 221 -8 c 0
 24 -8 23 28 23 260 c 0
 23 593 22 631 345 658 c 5
219 77 m 0
 272 77 277 80 277 203 c 0
 277 306 272 309 216 320 c 0
 176.426757812 327.7734375 156 315 156 209 c 0
 156 77 166 77 219 77 c 0
EndSplineSet
Validated: 524321
Substitution2: "'pnum' Proportional Numbers lookup 16 subtable" six.fitted
Substitution2: "'onum' Oldstyle Figures lookup 14 subtable" six.taboldstyle
Substitution2: "'subs' +BB0EOAQ2BD0EOAQ5 +BDgEPQQ0BDUEOgRB lookup 13 subtable" six.inferior
Substitution2: "'sups' +BBIENQRABEUEPQQ4BDkA +BDgEPQQ0BDUEOgRB lookup 12 subtable" six.superior
Substitution2: "'dnom' Denominators lookup 6 subtable" six.denominator
Substitution2: "'numr' Numerators lookup 5 subtable" six.numerator
AlternateSubs2: "'aalt' +BBIEQQQ1 +BDAEOwRMBEIENQRABD0EMARCBDgEMgQ9BEsENQAA +BDIEMARABDgEMAQ9BEIESwAA lookup 1 subtable" six.fitted six.oldstyle six.taboldstyle six.numerator six.denominator six.superior six.inferior
EndChar

StartChar: seven
Encoding: 55 55 24
Width: 426
Flags: W
HStem: 535 115<150.1 281> 545 115<46 208.4>
LayerCount: 2
Fore
SplineSet
46 660 m 5x40
 393 650 l 1
 393 534 l 1
 189 -30 l 1
 81 0 l 1
 281 533 l 1
 281 535 l 1x80
 39 545 l 1
 46 660 l 5x40
EndSplineSet
Validated: 1
Substitution2: "'pnum' Proportional Numbers lookup 16 subtable" seven.fitted
Substitution2: "'onum' Oldstyle Figures lookup 14 subtable" seven.taboldstyle
Substitution2: "'subs' +BB0EOAQ2BD0EOAQ5 +BDgEPQQ0BDUEOgRB lookup 13 subtable" seven.inferior
Substitution2: "'sups' +BBIENQRABEUEPQQ4BDkA +BDgEPQQ0BDUEOgRB lookup 12 subtable" seven.superior
Substitution2: "'dnom' Denominators lookup 6 subtable" seven.denominator
Substitution2: "'numr' Numerators lookup 5 subtable" seven.numerator
AlternateSubs2: "'aalt' +BBIEQQQ1 +BDAEOwRMBEIENQRABD0EMARCBDgEMgQ9BEsENQAA +BDIEMARABDgEMAQ9BEIESwAA lookup 1 subtable" seven.fitted seven.oldstyle seven.taboldstyle seven.numerator seven.denominator seven.superior seven.inferior
EndChar

StartChar: eight
Encoding: 56 56 25
Width: 426
Flags: W
HStem: -8 88<172.952 255.736> 570 88<176.548 253.514>
VStem: 20 127<104.526 259.25> 38 123<428.3 555.008> 270 120<418.253 556.877> 278 127<100.968 248.92>
LayerCount: 2
Fore
SplineSet
210 -8 m 0xc4
 99 -8 20 63 20 169 c 0xe4
 20 250 65 308 118 342 c 1
 118 344 l 1
 63 380 38 436 38 487 c 0
 38 593 122 658 222 658 c 0
 315 658 390 595 390 498 c 0xd8
 390 455 373 397 305 354 c 1
 305 352 l 1
 365 319 405 259 405 182 c 0
 405 62 317 -8 210 -8 c 0xc4
215 80 m 0
 256 80 278 122 278 177 c 0
 278 238 240 278 203 297 c 1
 170 274 147 234 147 184 c 0
 147 128 170 80 215 80 c 0
217 570 m 0
 179 570 161 531 161 491 c 0
 161 445 187 413 225 393 c 1
 253 408 270 448 270 486 c 0xd8
 270 530 255 570 217 570 c 0
EndSplineSet
Validated: 1
Substitution2: "'pnum' Proportional Numbers lookup 16 subtable" eight.fitted
Substitution2: "'onum' Oldstyle Figures lookup 14 subtable" eight.taboldstyle
Substitution2: "'subs' +BB0EOAQ2BD0EOAQ5 +BDgEPQQ0BDUEOgRB lookup 13 subtable" eight.inferior
Substitution2: "'sups' +BBIENQRABEUEPQQ4BDkA +BDgEPQQ0BDUEOgRB lookup 12 subtable" eight.superior
Substitution2: "'dnom' Denominators lookup 6 subtable" eight.denominator
Substitution2: "'numr' Numerators lookup 5 subtable" eight.numerator
AlternateSubs2: "'aalt' +BBIEQQQ1 +BDAEOwRMBEIENQRABD0EMARCBDgEMgQ9BEsENQAA +BDIEMARABDgEMAQ9BEIESwAA lookup 1 subtable" eight.fitted eight.oldstyle eight.taboldstyle eight.numerator eight.denominator eight.superior eight.inferior
EndChar

StartChar: nine
Encoding: 57 57 26
Width: 426
Flags: W
HStem: -14 106<91.6792 210.41> 567 105<158.887 260.085>
VStem: 22 129<336.974 561.708> 272 133<133.633 560.32>
LayerCount: 2
Fore
SplineSet
93 -14 m 5
 73 92 l 1
 276 119 272 108 272 252 c 1
 269 252 l 1
 246 221 211.663085938 214.625 169 220 c 0
 42 236 22 242 22 422 c 0
 22 630 22 672 207 672 c 0
 404 672 405 616 405 384 c 0
 405 51 416 13 93 -14 c 5
209 567 m 0
 156 567 151 564 151 441 c 0
 151 338 156 335 212 324 c 0
 251.573242188 316.2265625 272 329 272 435 c 0
 272 567 262 567 209 567 c 0
EndSplineSet
Validated: 524321
Substitution2: "'pnum' Proportional Numbers lookup 16 subtable" nine.fitted
Substitution2: "'onum' Oldstyle Figures lookup 14 subtable" nine.taboldstyle
Substitution2: "'subs' +BB0EOAQ2BD0EOAQ5 +BDgEPQQ0BDUEOgRB lookup 13 subtable" nine.inferior
Substitution2: "'sups' +BBIENQRABEUEPQQ4BDkA +BDgEPQQ0BDUEOgRB lookup 12 subtable" nine.superior
Substitution2: "'dnom' Denominators lookup 6 subtable" nine.denominator
Substitution2: "'numr' Numerators lookup 5 subtable" nine.numerator
AlternateSubs2: "'aalt' +BBIEQQQ1 +BDAEOwRMBEIENQRABD0EMARCBDgEMgQ9BEsENQAA +BDIEMARABDgEMAQ9BEIESwAA lookup 1 subtable" nine.fitted nine.oldstyle nine.taboldstyle nine.numerator nine.denominator nine.superior nine.inferior
EndChar

StartChar: colon
Encoding: 58 58 27
Width: 233
Flags: W
HStem: 0 157<60 190> 319 165<52 196>
VStem: 52 154<371.4 484> 52 144<19.625 157 321 337.8> 60 130<0 157>
LayerCount: 2
Fore
SplineSet
52 319 m 0xd0
 52 484 l 0
 206 489 l 4xe0
 196 321 l 0
 52 319 l 0xd0
60 0 m 0xc8
 54 157 l 0
 192 157 l 0
 190 0 l 0
 60 0 l 0xc8
EndSplineSet
Validated: 1
EndChar

StartChar: semicolon
Encoding: 59 59 28
Width: 233
Flags: W
HStem: 320 162<64 200>
VStem: 69 134<138.897 151.896 322 395.6>
LayerCount: 2
Fore
SplineSet
101 -116 m 1
 11 -95 l 1
 69 171 l 5
 203 151 l 1
 101 -116 l 1
64 320 m 0
 54 482 l 0
 200 487 l 0
 204 322 l 0
 64 320 l 0
EndSplineSet
Validated: 1
EndChar

StartChar: less
Encoding: 60 60 29
Width: 596
Flags: W
LayerCount: 2
Fore
SplineSet
58 235 m 1
 58 307 l 1
 518 532 l 1
 538 430 l 1
 196 266 l 1
 196 264 l 1
 538 101 l 1
 508 10 l 5
 58 235 l 1
EndSplineSet
Validated: 1
EndChar

StartChar: equal
Encoding: 61 61 30
Width: 596
Flags: W
HStem: 128.534 81.9863<60.7285 445.806> 137.152 81.9863<150.089 535.166> 323.52 101.97<293.829 555.81> 326.163 111.97<40.5096 317.479>
LayerCount: 2
Fore
SplineSet
554.8671875 323.51953125 m 5x20
 407 330 238.052734375 329.813476562 39.021484375 326.163085938 c 1
 35 365 37 410 41.521484375 438.1328125 c 1x10
 235.012993096 442.452224433 391 436 557.366210938 425.489257812 c 5
 560 396 559.158439407 348.000000076 554.8671875 323.51953125 c 5x20
536.650390625 137.15234375 m 1x40
 60.728515625 128.534179688 l 1
 59.244140625 210.520507812 l 1x80
 535.166015625 219.138671875 l 1
 536.650390625 137.15234375 l 1x40
EndSplineSet
Validated: 33
EndChar

StartChar: greater
Encoding: 62 62 31
Width: 596
Flags: W
HStem: 0 21G<81.9394 130.453>
LayerCount: 2
Fore
SplineSet
538 310 m 1
 538 212 l 5
 88 0 l 1
 58 99 l 1
 432 265 l 1
 432 267 l 1
 68 433 l 1
 98 522 l 1
 538 310 l 1
EndSplineSet
Validated: 1
EndChar

StartChar: question
Encoding: 63 63 32
Width: 334
Flags: W
HStem: -8 21G<77.4103 213> 569 113<40.6543 176.3>
VStem: 88 111<99 148 211 229> 182 134<438.568 562.702>
LayerCount: 2
Fore
SplineSet
199 204 m 1xe0
 88 211 l 5xe0
 86 229 l 6
 76.6829268293 312.853658537 90 322 139 396 c 4
 167.634644605 439.244157158 182 469 182 507 c 0
 182 562 176 569 116 569 c 0
 94 569 68 566 42 561 c 1
 20 670 l 1
 69 678 112 682 147 682 c 0
 269 682 316 678 316 528 c 0xd0
 316 459 276.928336337 403.049106954 242 352 c 4
 203 295 199 293 199 229 c 6
 199 204 l 1xe0
76 -8 m 0
 87 148 l 0
 197 154 l 0
 213 0 l 0
 76 -8 l 0
EndSplineSet
Validated: 33
EndChar

StartChar: at
Encoding: 64 64 33
Width: 621
Flags: W
HStem: -98 56<200.551 397.384> -26 20G<406 431.769> 65 75<248.154 342.854 408 491.711> 367 61<280.993 361.219> 517 75<251.126 444.907>
VStem: 31 65<72.6815 337.962> 358 79<151.807 366.683> 517 74<181.706 442.493>
LayerCount: 2
Fore
SplineSet
358 232 m 2
 362 362 l 1
 355 366 335.999798383 367 325 367 c 0
 280 367 270 365 250 190 c 0
 246.025880683 155.226455972 245.030342442 135.457069065 280 134 c 0
 328 132 355.445731852 148.986285174 358 232 c 2
426 -6 m 1
 441 -58 l 1
 389 -88 339 -98 282 -98 c 0
 155 -98 31 3 31 201 c 0
 31 401 160 592 355 592 c 0
 515 592 591 469 591 334 c 0
 591 161 530 65 433 65 c 0
 383 65 368 70 370 130 c 1
 367 130 l 1
 345 56 290.984363894 63.8270836295 247 65 c 0
 172 67 151 74 161 185 c 0
 182.71404797 426.025932465 188 428 338 428 c 0
 371 428 400 425 443 417 c 1
 437 223 l 2
 435.424187726 172.048736462 425 140 455 140 c 4
 495 140 517 186 517 320 c 0
 517 448 479 517 344 517 c 0
 212 517 96 409 96 201 c 0
 96 31 176 -42 296 -42 c 0
 343 -42 386 -29 426 -6 c 1
EndSplineSet
Validated: 524321
Substitution2: "'case' +BCAENQQzBDgEQQRCBEAEPgQ3BDAEMgQ4BEEEOAQ8BEsENQAA +BEQEPgRABDwESwAA lookup 4 subtable" at.cap
Substitution2: "'aalt' +BBIEQQQ1 +BDAEOwRMBEIENQRABD0EMARCBDgEMgQ9BEsENQAA +BDIEMARABDgEMAQ9BEIESwAA lookup 0 subtable" at.cap
EndChar

StartChar: A
Encoding: 65 65 34
Width: 458
Flags: HW
LayerCount: 2
Fore
SplineSet
299 158 m 5
 162 154 l 5
 135 -5 l 5
 8 10 l 5
 8 10 114 500 128 565 c 5
 104 568 55.0771484375 567 55.0771484375 567 c 5
 55.0771484375 567 59 653 59 683 c 5
 188 690 345 674 345 674 c 5
 443 5 l 5
 319 -10 l 5
 299 158 l 5
178 256 m 5
 287 260 l 5
 255 556 l 5
 228 559 l 5
 178 256 l 5
EndSplineSet
Position2: "'cpsp' +BBgEPQRCBDUEQAQyBDAEOwAA +BD8EQAQ+BD8EOARBBD0ESwRF lookup 0 subtable" dx=10 dy=0 dh=20 dv=0
EndChar

StartChar: B
Encoding: 66 66 35
Width: 483
Flags: HW
LayerCount: 2
Fore
SplineSet
65.1025390625 2.115234375 m 1xd8
 51.3134765625 663.971679688 l 1xe8
 192.116210938 674.907226562 l 2
 385.394670911 689.918338869 419.475014891 677.089019806 429 507 c 4
 436 382 399 367 331 360 c 1
 331 356 l 5
 433 342 456 315 451 195 c 4
 442.63060374 -5.86551024562 426.812075865 -15.795212505 207.279296875 -4.9248046875 c 6
 65.1025390625 2.115234375 l 1xd8
183.305664062 569.701171875 m 1
 187.846679688 399.758789062 l 5
 215.83984375 400.341796875 l 6
 290.82421875 401.904296875 302 400 300 492 c 4
 298.3046875 569.981445312 291.200195312 578.124023438 218.256835938 572.4296875 c 2
 183.305664062 569.701171875 l 1
189.8671875 302.779296875 m 1
 194.303710938 89.826171875 l 1xd8
 223.296875 90.4296875 l 0
 309.278320312 92.220703125 315 84 315 187 c 0
 315 285 298.842773438 305.049804688 217.860351562 303.362304688 c 2
 189.8671875 302.779296875 l 1
EndSplineSet
Position2: "'cpsp' +BBgEPQRCBDUEQAQyBDAEOwAA +BD8EQAQ+BD8EOARBBD0ESwRF lookup 0 subtable" dx=10 dy=0 dh=20 dv=0
EndChar

StartChar: C
Encoding: 67 67 36
Width: 395
Flags: HW
LayerCount: 2
Fore
SplineSet
358 120 m 5
 371 10 l 5
 279 -3 l 6
 103.962353759 -27.7335804471 36 3 25 327 c 4
 12.9124887232 683.032150334 101.902528495 697.93999738 297 680 c 6
 384 672 l 5
 371 548 l 5
 305 555 l 6
 188.932209783 567.310220175 156 563 164 334 c 4
 171.471424788 120.130465443 177 91 295 110 c 6
 358 120 l 5
EndSplineSet
Position2: "'cpsp' +BBgEPQRCBDUEQAQyBDAEOwAA +BD8EQAQ+BD8EOARBBD0ESwRF lookup 0 subtable" dx=10 dy=0 dh=20 dv=0
EndChar

StartChar: D
Encoding: 68 68 37
Width: 491
Flags: HW
LayerCount: 2
Fore
SplineSet
58 2 m 2
 53 664 l 1
 211 672 l 2
 418.771136327 682.520057536 476 699 466 345 c 0
 457.355642564 38.9897467657 477.729081726 -20.9539341569 186 -5 c 2
 58 2 l 2
194 550 m 1
 189 93 l 1
 232 92 l 2
 346.21875 87.0341796875 329 92 330 350 c 0
 330.837283758 566.019209692 333.911132812 556.825195312 235 552 c 2
 194 550 l 1
EndSplineSet
Position2: "'cpsp' +BBgEPQRCBDUEQAQyBDAEOwAA +BD8EQAQ+BD8EOARBBD0ESwRF lookup 0 subtable" dx=10 dy=0 dh=20 dv=0
EndChar

StartChar: E
Encoding: 69 69 38
Width: 394
Flags: HW
LayerCount: 2
Fore
SplineSet
343 405 m 1xb8
 343 286 l 1
 190.96875 286 l 1
 196.56640625 104.0859375 l 1xb4
 359 108 l 1
 363 4 l 1x74
 68.826171875 -3.89453125 l 1xb4
 48.09765625 669.787109375 l 1
 48.09765625 669.787109375 194 696 365 684 c 5
 366 646 364 601 361 560 c 5
 304 564 218 560 182.849609375 554.875 c 5
 187.30859375 404.943359375 l 1
 343 405 l 1xb8
EndSplineSet
Position2: "'cpsp' +BBgEPQRCBDUEQAQyBDAEOwAA +BD8EQAQ+BD8EOARBBD0ESwRF lookup 0 subtable" dx=10 dy=0 dh=20 dv=0
EndChar

StartChar: F
Encoding: 70 70 39
Width: 392
Flags: HW
LayerCount: 2
Fore
SplineSet
58 -10 m 1xe8
 54.0390625 679.676757812 l 1xe8
 356.87890625 689.525390625 l 1
 360.909179688 565.590820312 l 1xd8
 189 560 l 1
 189 397 l 1
 344.543945312 391.861328125 l 5
 338.6015625 273.009765625 l 5
 189 278 l 1
 189 -10 l 1
 58 -10 l 1xe8
EndSplineSet
Position2: "'cpsp' +BBgEPQRCBDUEQAQyBDAEOwAA +BD8EQAQ+BD8EOARBBD0ESwRF lookup 0 subtable" dx=10 dy=0 dh=20 dv=0
EndChar

StartChar: G
Encoding: 71 71 40
Width: 472
Flags: HW
LayerCount: 2
Fore
SplineSet
432 388 m 1xd0
 422 8 l 1xe0
 292 -6 l 2
 86.118386448 -26.5881613552 30 16 25 333 c 0
 20.1579199819 639.98787315 52.1881188119 705.881188119 311 680 c 2xd0
 411 670 l 1
 398 547 l 1
 321 552 l 2
 166.612025529 562.025193147 155.520760908 552.936346244 161 325 c 0
 166 117 194 84 285 95 c 2
 306 98 l 1xe0
 311 271 l 1
 236 274 l 5
 241 393 l 1
 432 388 l 1xd0
EndSplineSet
Position2: "'cpsp' +BBgEPQRCBDUEQAQyBDAEOwAA +BD8EQAQ+BD8EOARBBD0ESwRF lookup 0 subtable" dx=10 dy=0 dh=20 dv=0
EndChar

StartChar: H
Encoding: 72 72 41
Width: 515
Flags: HW
LayerCount: 2
Fore
SplineSet
51.6171875 671.405273438 m 1xf0
 182.591796875 673.95703125 l 1
 187.850585938 404.0078125 l 1
 326.9765625 403.9921875 l 5
 331.317382812 683.958984375 l 5
 462.301757812 681.927734375 l 5xf2
 451.54296875 -11.98828125 l 5
 320.55859375 -9.9580078125 l 5
 325.084960938 282.006835938 l 5
 190.2265625 282.03125 l 1
 195.719726562 0.0849609375 l 1
 64.744140625 -2.466796875 l 1xec
 51.6171875 671.405273438 l 1xf0
EndSplineSet
Position2: "'cpsp' +BBgEPQRCBDUEQAQyBDAEOwAA +BD8EQAQ+BD8EOARBBD0ESwRF lookup 0 subtable" dx=10 dy=0 dh=20 dv=0
EndChar

StartChar: I
Encoding: 73 73 42
Width: 248
Flags: HW
LayerCount: 2
Fore
SplineSet
53 664 m 1
 194 664 l 1
 189 0 l 1
 58 0 l 1
 53 664 l 1
EndSplineSet
Position2: "'cpsp' +BBgEPQRCBDUEQAQyBDAEOwAA +BD8EQAQ+BD8EOARBBD0ESwRF lookup 0 subtable" dx=10 dy=0 dh=20 dv=0
EndChar

StartChar: J
Encoding: 74 74 43
Width: 296
Flags: HW
LayerCount: 2
Fore
SplineSet
115 89 m 2
 111 684 l 5
 247 684 l 5
 247 95 l 2
 247 -129 205.09157402 -108.786132241 77 -138 c 2
 20 -151 l 1
 -8 -26 l 1
 45 -13 l 2
 107.432505037 2.31363331095 115.635914458 -4.00248947379 115 89 c 2
EndSplineSet
Position2: "'cpsp' +BBgEPQRCBDUEQAQyBDAEOwAA +BD8EQAQ+BD8EOARBBD0ESwRF lookup 0 subtable" dx=10 dy=0 dh=20 dv=0
EndChar

StartChar: K
Encoding: 75 75 44
Width: 459
Flags: HW
LayerCount: 2
Fore
SplineSet
58 0 m 1
 58 654 l 1
 189 654 l 1
 189 371 l 1
 191 371 l 1
 324 684 l 1
 448 654 l 5
 308 354 l 1
 460 10 l 1
 317 -20 l 1
 189 334 l 1
 189 0 l 1
 58 0 l 1
EndSplineSet
Position2: "'cpsp' +BBgEPQRCBDUEQAQyBDAEOwAA +BD8EQAQ+BD8EOARBBD0ESwRF lookup 0 subtable" dx=10 dy=0 dh=20 dv=0
EndChar

StartChar: L
Encoding: 76 76 45
Width: 380
Flags: HW
LayerCount: 2
Fore
SplineSet
58 -5 m 1
 58 674 l 1
 189 674 l 1
 189 102 l 5
 189 102 273 94 362 97 c 1
 362 -14 l 1
 198 -21 58 -5 58 -5 c 1
EndSplineSet
Position2: "'cpsp' +BBgEPQRCBDUEQAQyBDAEOwAA +BD8EQAQ+BD8EOARBBD0ESwRF lookup 0 subtable" dx=10 dy=0 dh=20 dv=0
EndChar

StartChar: M
Encoding: 77 77 46
Width: 637
Flags: HW
LayerCount: 2
Fore
SplineSet
472 -10 m 1
 450 409 l 1
 360 31 l 1
 267 31 l 1
 182 414 l 1
 179 414 l 1
 156 0 l 1
 33 6 l 1
 82 664 l 1
 220 659 l 1
 317 244 l 5
 319 244 l 5
 420 684 l 1
 548 692 l 1
 599 0 l 1
 472 -10 l 1
EndSplineSet
Position2: "'cpsp' +BBgEPQRCBDUEQAQyBDAEOwAA +BD8EQAQ+BD8EOARBBD0ESwRF lookup 0 subtable" dx=10 dy=0 dh=20 dv=0
EndChar

StartChar: N
Encoding: 78 78 47
Width: 516
Flags: HW
LayerCount: 2
Fore
SplineSet
178 10 m 1xd0
 63 7 l 1xd0
 53 661 l 1
 183 664 l 1
 341 253 l 5
 343 253 l 5xe8
 348 684 l 1
 463 681 l 1xc4
 453 -3 l 1
 323 0 l 1
 171 429 l 1
 169 429 l 1xe8
 178 10 l 1xd0
EndSplineSet
Position2: "'cpsp' +BBgEPQRCBDUEQAQyBDAEOwAA +BD8EQAQ+BD8EOARBBD0ESwRF lookup 0 subtable" dx=10 dy=0 dh=20 dv=0
EndChar

StartChar: O
Encoding: 79 79 48
Width: 481
Flags: HW
LayerCount: 2
Fore
SplineSet
247 682 m 0
 431.032835511 682 457.543136121 650.93921847 457.543136121 457.1694394 c 0
 457.543136121 425.616750303 456.840200874 389.749742366 456 349 c 0
 449 19 428 -8 238 -8 c 0
 52 -8 34 27 25 339 c 0
 24.0494024473 372.270914343 23.4892647681 402.340057724 23.4892647681 429.512614529 c 0
 23.4892647681 659.602461318 63.6524998106 682 247 682 c 0
242 558 m 0
 171.234836022 558 153.95925644 557.322916653 153.95925644 434.512549196 c 0
 153.95925644 408.073045565 154.759955208 375.972836335 156 337 c 0
 163 105 164 97 243 96 c 0
 246.083638585 95.9577583755 249.037019268 95.9280072349 251.866247345 95.9280072349 c 0
 316.014274839 95.9280072349 316.337932996 111.222473118 324 343 c 0
 325.25770124 381.629395229 326.063456077 413.318184989 326.063456077 439.31339901 c 0
 326.063456077 558 309.266928331 558 242 558 c 0
EndSplineSet
Position2: "'cpsp' +BBgEPQRCBDUEQAQyBDAEOwAA +BD8EQAQ+BD8EOARBBD0ESwRF lookup 0 subtable" dx=10 dy=0 dh=20 dv=0
EndChar

StartChar: P
Encoding: 80 80 49
Width: 457
Flags: HW
LayerCount: 2
Fore
SplineSet
58 -10 m 5
 58 668 l 1
 195 677 l 2
 409.991883289 691.123554377 441 651 436 467 c 0
 429.588402232 231.053202153 398 231 215 231 c 2
 189 231 l 1
 189 -10 l 5
 58 -10 l 5
189 558 m 1
 189 327 l 1
 210 326 l 2
 293.097285068 322.042986425 302.633304645 337.043430772 306 456 c 0
 309 562 289.151016457 567.389157793 221 561 c 2
 189 558 l 1
EndSplineSet
Position2: "'cpsp' +BBgEPQRCBDUEQAQyBDAEOwAA +BD8EQAQ+BD8EOARBBD0ESwRF lookup 0 subtable" dx=10 dy=0 dh=20 dv=0
EndChar

StartChar: Q
Encoding: 81 81 50
Width: 481
Flags: HW
LayerCount: 2
Fore
SplineSet
432 -62 m 5
 408 -85 351 -118 318 -128 c 5
 297 -90 262 -40 236 -8 c 1
 90 -8 34 23 25 339 c 1
 16.2598732513 645.8755614 37 692 248 692 c 1
 416 692 461.90895082 676.946770529 456 349 c 1
 452 127 450 51 380 14 c 1
 380 9 l 1
 396 -10 417 -36 432 -62 c 5
242 96 m 0
 324 98 311.324849921 127.136404016 319 343 c 0
 327 568 314 568 242 568 c 0
 165 568 153 559 161 340 c 0
 169.578752975 105.156637315 176.019622418 94.390722498 242 96 c 0
EndSplineSet
Position2: "'cpsp' +BBgEPQRCBDUEQAQyBDAEOwAA +BD8EQAQ+BD8EOARBBD0ESwRF lookup 0 subtable" dx=10 dy=0 dh=20 dv=0
EndChar

StartChar: R
Encoding: 82 82 51
Width: 470
Flags: HW
LayerCount: 2
Fore
SplineSet
58 10 m 1xd0
 58 671 l 1
 201 677 l 2
 413.004393459 685.895289236 436 646 434 477 c 0xe0
 432.212890625 326.006835938 413 324 330 308 c 1
 330 306 l 1
 419 288 428 290 455 10 c 1
 434 0 372 -9 338 -10 c 1
 302 264 293.967062769 254.638359832 222 259 c 2
 189 261 l 1
 189 10 l 1
 58 10 l 1xd0
189 563 m 1
 189 359 l 1
 212 360 l 2
 290.850943396 363.428301887 309.028368063 363.964514137 312 465 c 0
 315 567 299.989637306 570.160621762 220 565 c 2
 189 563 l 1
EndSplineSet
Position2: "'cpsp' +BBgEPQRCBDUEQAQyBDAEOwAA +BD8EQAQ+BD8EOARBBD0ESwRF lookup 0 subtable" dx=10 dy=0 dh=20 dv=0
EndChar

StartChar: S
Encoding: 83 83 52
Width: 394
Flags: HW
LayerCount: 2
Fore
SplineSet
44 11 m 1
 63 124 l 1
 91 115 131 108 164 108 c 0
 213 108 258 107 257 184 c 0
 256.36328125 232.99609375 235 246 159 294 c 0
 46.6135644702 364.98090665 30.1639213981 406.065886445 27 482 c 0
 20 650 73.9970760484 680 245 680 c 4
 283 680 331 673 364 666 c 5
 350 543 l 1
 318 551 270 557 239 557 c 4
 190 557 152 551 156 492 c 0
 158.706054688 452.091796875 178.229666842 443.809626141 254 391 c 0
 353 322 378.224229147 291.973681447 376 198 c 0
 372 29 341 -6 163 -6 c 0
 117 -6 72 2 44 11 c 1
EndSplineSet
Position2: "'cpsp' +BBgEPQRCBDUEQAQyBDAEOwAA +BD8EQAQ+BD8EOARBBD0ESwRF lookup 0 subtable" dx=10 dy=0 dh=20 dv=0
EndChar

StartChar: T
Encoding: 84 84 53
Width: 393
Flags: HW
LayerCount: 2
Fore
SplineSet
141 -20 m 5xa0
 141.157226562 555.033203125 l 1
 12.220703125 559.073242188 l 1
 16.3232421875 690.008789062 l 1x60
 386.141601562 678.421875 l 1
 382.0390625 547.486328125 l 1
 272.092773438 550.931640625 l 1
 272 -20 l 5
 141 -20 l 5xa0
EndSplineSet
Position2: "'cpsp' +BBgEPQRCBDUEQAQyBDAEOwAA +BD8EQAQ+BD8EOARBBD0ESwRF lookup 0 subtable" dx=10 dy=0 dh=20 dv=0
EndChar

StartChar: U
Encoding: 85 85 54
Width: 500
Flags: HW
LayerCount: 2
Fore
SplineSet
54 664 m 1
 185 664 l 1
 185 226 l 6
 185 94 201 97 249 97 c 4
 315 97 314 124 314 226 c 6
 314 684 l 1
 445 684 l 1
 445 259 l 2
 445 33 431 -8 250 -8 c 0
 84 -8 54 13 54 258 c 2
 54 664 l 1
EndSplineSet
Position2: "'cpsp' +BBgEPQRCBDUEQAQyBDAEOwAA +BD8EQAQ+BD8EOARBBD0ESwRF lookup 0 subtable" dx=10 dy=0 dh=20 dv=0
EndChar

StartChar: V
Encoding: 86 86 55
Width: 452
Flags: HW
LayerCount: 2
Fore
SplineSet
299 -10 m 5
 152 0 l 1
 1 674 l 1
 146 684 l 1
 229 149 l 1
 231 149 l 1
 319 674 l 1
 453 664 l 1
 299 -10 l 5
EndSplineSet
Position2: "'cpsp' +BBgEPQRCBDUEQAQyBDAEOwAA +BD8EQAQ+BD8EOARBBD0ESwRF lookup 0 subtable" dx=10 dy=0 dh=20 dv=0
EndChar

StartChar: W
Encoding: 87 87 56
Width: 679
Flags: HW
LayerCount: 2
Fore
SplineSet
248 0 m 1
 128 -8 l 1
 13 659 l 1
 139 674 l 1
 205 209 l 5
 208 209 l 5
 294 624 l 1
 400 624 l 1
 477 219 l 1
 479 219 l 1
 535 684 l 1
 666 674 l 1
 547 0 l 1
 402 7 l 1
 342 392 l 1
 340 392 l 1
 248 0 l 1
EndSplineSet
Position2: "'cpsp' +BBgEPQRCBDUEQAQyBDAEOwAA +BD8EQAQ+BD8EOARBBD0ESwRF lookup 0 subtable" dx=10 dy=0 dh=20 dv=0
EndChar

StartChar: X
Encoding: 88 88 57
Width: 407
Flags: HW
LayerCount: 2
Fore
SplineSet
411 5 m 1
 286 -15 l 1
 197 244 l 5
 195 244 l 5
 127 0 l 1
 2 15 l 1
 133 355 l 5
 2 674 l 1
 129 688 l 1
 209 461 l 5
 211 461 l 5
 273 674 l 1
 399 660 l 1
 268 349 l 5
 411 5 l 1
EndSplineSet
Position2: "'cpsp' +BBgEPQRCBDUEQAQyBDAEOwAA +BD8EQAQ+BD8EOARBBD0ESwRF lookup 0 subtable" dx=10 dy=0 dh=20 dv=0
EndChar

StartChar: Y
Encoding: 89 89 58
Width: 402
Flags: HW
LayerCount: 2
Fore
SplineSet
264 -10 m 1
 133 -10 l 1
 133 258 l 1
 -15 664 l 1
 125 674 l 1
 202 370 l 5
 204 370 l 5
 279 688 l 1
 415 678 l 1
 264 263 l 1
 264 -10 l 1
EndSplineSet
Position2: "'cpsp' +BBgEPQRCBDUEQAQyBDAEOwAA +BD8EQAQ+BD8EOARBBD0ESwRF lookup 0 subtable" dx=10 dy=0 dh=20 dv=0
EndChar

StartChar: Z
Encoding: 90 90 59
Width: 387
Flags: HW
LayerCount: 2
Fore
SplineSet
19.484375 7.03515625 m 1x60
 21.841796875 83.9990234375 l 1
 226.119140625 546.787109375 l 1
 226.119140625 546.787109375 227.022784869 549.784179688 225.989257812 549.784179688 c 0
 180 549.784179688 143 549 26.177734375 536.029296875 c 4
 17.8310546875 664.9140625 l 0
 146 682 238.81143613 683.852843109 368.50390625 680.05078125 c 0
 373.118164062 573.150390625 l 1
 179.686523438 109.178710938 l 1
 179.594726562 106.180664062 l 1x60
 362.508789062 100.578125 l 1
 359.325195312 -3.373046875 l 1xa0
 19.484375 7.03515625 l 1x60
EndSplineSet
Position2: "'cpsp' +BBgEPQRCBDUEQAQyBDAEOwAA +BD8EQAQ+BD8EOARBBD0ESwRF lookup 0 subtable" dx=10 dy=0 dh=20 dv=0
EndChar

StartChar: bracketleft
Encoding: 91 91 60
Width: 258
Flags: W
HStem: -116 88<149 232> 578 108<149 232>
VStem: 40 109<126.2 578> 50 99<-28 443.8>
LayerCount: 2
Fore
SplineSet
232 -116 m 5xd0
 50 -112 l 1xd0
 40 682 l 1
 232 686 l 1
 235 582 l 1
 149 578 l 1xe0
 149 -28 l 1
 235 -32 l 1
 232 -116 l 5xd0
EndSplineSet
Validated: 1
Substitution2: "'case' +BCAENQQzBDgEQQRCBEAEPgQ3BDAEMgQ4BEEEOAQ8BEsENQAA +BEQEPgRABDwESwAA lookup 4 subtable" bracketleft.cap
Substitution2: "'aalt' +BBIEQQQ1 +BDAEOwRMBEIENQRABD0EMARCBDgEMgQ9BEsENQAA +BDIEMARABDgEMAQ9BEIESwAA lookup 0 subtable" bracketleft.cap
EndChar

StartChar: backslash
Encoding: 92 92 61
Width: 233
Flags: W
HStem: 672 20G<-17 82.8361>
VStem: -17 272
LayerCount: 2
Fore
SplineSet
255 -40 m 1
 170 -50 l 5
 -17 682 l 1
 78 692 l 1
 255 -40 l 1
EndSplineSet
Validated: 1
EndChar

StartChar: bracketright
Encoding: 93 93 62
Width: 258
Flags: W
HStem: -116 84<23 109> 596 104<23 109>
VStem: 109 109<130.4 592> 109 99<-28 453.6>
LayerCount: 2
Fore
SplineSet
23 700 m 1xe0
 218 696 l 1xe0
 208 -112 l 1
 23 -116 l 5
 20 -32 l 5
 109 -28 l 1xd0
 109 592 l 1
 20 596 l 1
 23 700 l 1xe0
EndSplineSet
Validated: 1
Substitution2: "'case' +BCAENQQzBDgEQQRCBEAEPgQ3BDAEMgQ4BEEEOAQ8BEsENQAA +BEQEPgRABDwESwAA lookup 4 subtable" bracketright.cap
Substitution2: "'aalt' +BBIEQQQ1 +BDAEOwRMBEIENQRABD0EMARCBDgEMgQ9BEsENQAA +BDIEMARABDgEMAQ9BEIESwAA lookup 0 subtable" bracketright.cap
EndChar

StartChar: asciicircum
Encoding: 94 94 63
Width: 596
Flags: W
HStem: 630 20G<254 349.36>
LayerCount: 2
Fore
SplineSet
552 197 m 1
 452 167 l 1
 298 534 l 1
 293 534 l 1
 133 177 l 1
 44 207 l 5
 254 644 l 1
 340 650 l 1
 552 197 l 1
EndSplineSet
Validated: 1
EndChar

StartChar: underscore
Encoding: 95 95 64
Width: 500
Flags: W
HStem: -135 60<274.322 500.915>
LayerCount: 2
Fore
SplineSet
0 -75 m 1
 194.000037627 -66.4647386962 306.000030058 -67.5552660954 500 -75 c 1
 504 -83 502 -126 500 -135 c 5
 314 -134 213.4140625 -136.2109375 0 -145 c 5
 2 -129 3 -89 0 -75 c 1
EndSplineSet
Validated: 33
EndChar

StartChar: quoteleft
Encoding: 8216 8216 65
Width: 190
Flags: MW
HStem: 662 20G<188 188>
VStem: 8 180
LayerCount: 2
Fore
SplineSet
121 431 m 1
 8 421 l 1
 35 511 78 602 120 675 c 1
 188 682 l 1
 159 599 132 511 121 431 c 1
EndSplineSet
Validated: 1
EndChar

StartChar: a
Encoding: 97 97 66
Width: 422
Flags: W
HStem: -8 29G<91.4912 182.5 263 285.5> 238 85<164.469 243> 405 109<75.7739 232.689>
VStem: 19 124<91.3955 219.394> 247 128<96.5849 238 323 392.962>
LayerCount: 2
Fore
SplineSet
393 20 m 1
 356 7 306 0 265 0 c 1
 261 12 259.209960938 22.2099609375 256 38 c 1
 227 6 217 -8 148 -8 c 0
 34.9823022708 -8 17.2832290823 54.0169401687 19 141 c 0
 22 293 70 324 243 323 c 1
 243 334 l 2
 243 391 235 405 186 405 c 0
 139.826171875 405 112 400 74 392 c 5
 67 424 61 468 60 497 c 1
 107 505 142.638671875 514.426757812 202 514 c 0
 341 513 375 474 375 294 c 2
 375 152 l 2
 375 113 381 70 393 20 c 1
247 153 m 2
 247 238 l 1
 168 237 143 223 143 155 c 0
 143 106 151.014632017 82.8871648547 190 88 c 0
 251 96 247 113.273386067 247 153 c 2
EndSplineSet
Validated: 33
Substitution2: "'sups' +BBIENQRABEUEPQQ4BDkA +BDgEPQQ0BDUEOgRB lookup 12 subtable" a.superior
Substitution2: "'ordn' Ordinals lookup 11 subtable" a.superior
AlternateSubs2: "'aalt' +BBIEQQQ1 +BDAEOwRMBEIENQRABD0EMARCBDgEMgQ9BEsENQAA +BDIEMARABDgEMAQ9BEIESwAA lookup 1 subtable" ordfeminine a.superior
EndChar

StartChar: b
Encoding: 98 98 67
Width: 447
Flags: W
HStem: -8 97<186.956 271.713> 387 110<184.348 327.5> 387 83<184.119 226.531> 672 20G<45 176>
VStem: 45 131<97.4846 381.463 470 692> 288 130<101.706 376.934>
LayerCount: 2
Fore
SplineSet
153 10 m 1xdc
 35 20 l 1
 44 91 45 168 45 215 c 2
 45 692 l 1
 176 692 l 1
 176 470 l 1
 178 470 l 1xbc
 196 487 233 497 280 497 c 0
 375 497 418 475 418 258 c 0
 418 9 378 -8 259 -8 c 4
 218 -8 177 -11 163 38 c 5
 160 38 l 1
 153 10 l 1xdc
176 312 m 2
 176 165 l 2
 176 98 203.354376381 89 226 89 c 0
 270 89 288 90 288 248 c 4
 288 367 289 387 225 387 c 0xdc
 196.991790334 387 176 381 176 312 c 2
EndSplineSet
Validated: 33
EndChar

StartChar: c
Encoding: 99 99 68
Width: 323
Flags: W
HStem: -6 97<183.614 306.395> 389 107<182.725 313.843>
VStem: 31 128<115.406 360.654>
LayerCount: 2
Fore
SplineSet
306 96 m 5
 312 1 l 5
 294 -4 252 -6 234 -6 c 4
 68 -6 39.291015625 17.97265625 31 240 c 4
 22 481 70 496 253 496 c 4
 268 496 304 493 325 488 c 5
 313 383 l 5
 299 387 273 389 259 389 c 4
 196 389 154 388 159 244 c 4
 163.823482091 105.083715784 178 91 257 91 c 4
 266 91 294 92 306 96 c 5
EndSplineSet
Validated: 33
EndChar

StartChar: d
Encoding: 100 100 69
Width: 447
Flags: W
HStem: -8 97<173.747 261.984> 387 110<174.158 261.115>
VStem: 29 130<102.149 372.493> 270 131<94.1884 383.368 468 712>
LayerCount: 2
Fore
SplineSet
270 712 m 5
 401 717 l 5
 401 195 l 2
 401 148 403 60 405 15 c 1
 287 10 l 1
 285 35 l 1
 283 35 l 1
 265 1 226 -8 181 -8 c 0
 36 -8 29 22 29 244 c 0
 29 482 56 497 186 497 c 0
 229 497 246 493 268 468 c 1
 270 468 l 1
 270 712 l 5
270 162 m 2
 270 301 l 2
 270 382 257.460558341 387 222 387 c 0
 176 387 159 376 159 231 c 0
 159 85 184 89 221 89 c 0
 244.848632812 89 270 90 270 162 c 2
EndSplineSet
Validated: 524321
EndChar

StartChar: e
Encoding: 101 101 70
Width: 419
Flags: W
HStem: -6 90<175.128 343.183> 188 92<156 244.2> 392 105<169.032 278.232>
VStem: 29 126<105.424 188 280 383.795>
LayerCount: 2
Fore
SplineSet
387 198 m 1
 155 188 l 1
 157 112 164 84 259 84 c 0
 279 84 318 85 342 90 c 1
 358 3 l 1
 323 -3 257 -6 235 -6 c 0
 62 -6 36.7127141856 17.1158242554 29 235 c 0
 21 461 36.0021758274 495.650015542 225 497 c 0
 365 498 404.5 495.5 391 266 c 2
 387 198 l 1
156 280 m 1
 282 290 l 5
 291 391 276.538085938 394.227539062 217 392 c 4
 153.97265625 389.641601562 156 373 156 280 c 1
EndSplineSet
Validated: 33
EndChar

StartChar: f
Encoding: 102 102 71
Width: 286
Flags: W
HStem: -10 21G<68.995 200> 381.071 100.782<3.12012 68.9014 200.086 280.306> 388.468 88.125<200.086 284.861> 583 117<213.062 300.847>
VStem: 69.1084 130.978<-10 382.334 480.622 571.611>
LayerCount: 2
Fore
SplineSet
200 -10 m 1xb8
 69 -10 l 1
 68.9013671875 382.333984375 l 1
 2.9130859375 381.071289062 l 5
 3.1201171875 481.853515625 l 1xd8
 69.1083984375 480.622070312 l 1
 69 509 l 2
 68.3582804669 676.99754875 115.98969149 700 236 700 c 0
 248 700 294 698 315 693 c 1
 300 581 l 1
 288 583 276 583 260 583 c 0
 216 583 200 555 200 512 c 2
 200.0859375 478.178710938 l 1
 285.071289062 476.592773438 l 1
 284.861328125 388.467773438 l 1
 199.876953125 386.840820312 l 1
 200 -10 l 1xb8
EndSplineSet
Validated: 33
EndChar

StartChar: g
Encoding: 103 103 72
Width: 447
Flags: W
HStem: -200 93<94.3617 257.726> 3 103<168.686 267.101> 377 120<169.792 267.627> 469 20G<288.172 407>
VStem: 29 130<111 366.508> 272 130<-94.9531 32 108.113 374.715>
LayerCount: 2
Fore
SplineSet
293 489 m 1xdc
 407 479 l 1
 405 435 402 393 402 334 c 2
 402 55 l 2
 402 -206 356 -200 184 -200 c 0
 157 -200 115 -197 82 -190 c 1
 96 -96 l 1
 122 -104 156 -107 180 -107 c 0
 270 -107 272 -95 272 22 c 2
 272 32 l 5
 270 32 l 5
 264 6 227 3 182 3 c 0
 52 3 29 7 29 240 c 0
 29 487 60 497 194 497 c 0xec
 233 497 265 497 284 460 c 1
 286 460 l 1
 293 489 l 1xdc
272 311 m 0
 272 374 260.517683996 377 225 377 c 0
 172 377 159 377 159 243 c 0
 159 110 162 106 222 106 c 0
 282 106 272 110 272 311 c 0
EndSplineSet
Validated: 33
EndChar

StartChar: h
Encoding: 104 104 73
Width: 458
Flags: W
HStem: -1.78711 21G<51.2894 182.577> 682.113 20G<40.9795 172.267>
VStem: 40.9795 134.825<237.138 381.314 448.143 700.133> 51.5918 130.985<0.193359 383.925 448.143 461.207> 277.481 130.985<11.1914 381.977>
LayerCount: 2
Fore
SplineSet
51.591796875 -1.787109375 m 5xd8
 40.9794921875 700.1328125 l 5
 171.96484375 702.11328125 l 5
 175.8046875 448.142578125 l 5xe8
 177.8046875 448.172851562 l 5
 197.106445312 494.469726562 239.24609375 498.80078125 290.579101562 498.052734375 c 0
 400.567382812 496.44921875 415.536132812 494.23046875 412.650390625 296.251953125 c 2
 408.466796875 9.2822265625 l 1
 277.481445312 11.19140625 l 1
 282.1015625 328.158203125 l 2
 282.801757812 376.153320312 272 387 233 387 c 0
 200.271222697 387 176.813476562 381.43359375 177.528320312 334.155273438 c 6
 182.577148438 0.193359375 l 5
 51.591796875 -1.787109375 l 5xd8
EndSplineSet
Validated: 33
EndChar

StartChar: i
Encoding: 105 105 74
Width: 223
Flags: W
HStem: 469 20G<46 177> 568 132<35 168>
VStem: 35 133<568 700> 46 131<10 489>
LayerCount: 2
Fore
SplineSet
35 700 m 1xe0
 174 700 l 5
 168 568 l 1
 35 568 l 1
 35 700 l 1xe0
177 10 m 1xd0
 46 10 l 1
 46 489 l 1
 177 489 l 1
 177 10 l 1xd0
EndSplineSet
Validated: 1
Substitution2: "'locl' Localized Forms in Latin lookup 2 subtable" i.dot
Substitution2: "'aalt' +BBIEQQQ1 +BDAEOwRMBEIENQRABD0EMARCBDgEMgQ9BEsENQAA +BDIEMARABDgEMAQ9BEIESwAA lookup 0 subtable" i.dot
EndChar

StartChar: j
Encoding: 106 106 75
Width: 224
Flags: W
HStem: -200 21G<12.2281 100.5> 469 20G<47 179> 569 141<47 178>
VStem: 47 132<-58.5902 489 569 710>
LayerCount: 2
Fore
SplineSet
47 710 m 1
 178 710 l 1
 178 569 l 1
 47 569 l 1
 47 710 l 1
21 -200 m 5
 -29 -86 l 5
 50 -49 47 -70 47 60 c 6
 47 489 l 5
 179 489 l 5
 179 55 l 6
 179 -156 180 -130 21 -200 c 5
EndSplineSet
Validated: 33
EndChar

StartChar: k
Encoding: 107 107 76
Width: 413
Flags: W
HStem: 0 21G<45 176> 479 20G<276.357 334.947> 672 20G<45 176>
VStem: 45 131<0 249 275 692>
LayerCount: 2
Fore
SplineSet
176 692 m 5
 176 275 l 5
 178 275 l 5
 286 499 l 5
 379 461 l 5
 289 284 l 5
 414 10 l 5
 278 -20 l 5
 176 249 l 5
 176 0 l 5
 45 0 l 5
 45 692 l 5
 176 692 l 5
EndSplineSet
Validated: 1
EndChar

StartChar: l
Encoding: 108 108 77
Width: 225
Flags: W
VStem: 39.2275 130.977<-8.86523 266.55> 54.5762 132.867<412.043 595.026>
LayerCount: 2
Fore
SplineSet
39.2275390625 -8.865234375 m 1x80
 54.576171875 595.026367188 l 1
 5.6982421875 601.7890625 l 1
 17.6455078125 713.580078125 l 1
 187.443359375 701.505859375 l 1x40
 170.204101562 -11.3681640625 l 1
 39.2275390625 -8.865234375 l 1x80
EndSplineSet
EndChar

StartChar: m
Encoding: 109 109 78
Width: 680
Flags: W
HStem: -10 31G<55.3377 186 275 405 494 624.633> 379 118<419.175 503.414> 389 108<187.627 271.824>
VStem: 46 130<98 385.252> 56 130<8 211.4> 275 130<-10 368.201> 494 130<0 194.6> 504 130<88.8 373.719>
LayerCount: 2
Fore
SplineSet
56 0 m 1xac
 46 302 l 2
 46 356 43 443 42 489 c 1
 156 499 l 1
 162 442 l 1
 164 442 l 1
 190 498 230.00430035 496.337718186 281 497 c 0
 358 498 372 496 388 441 c 1
 390 441 l 1
 430 498 450.956742658 496.554349552 508 497 c 0
 636 498 639.445596062 482.080835568 634 310 c 2xb5
 624 -6 l 1
 494 0 l 1xa6
 504 278 l 6
 507.198242188 370.09765625 510 380 458 379 c 4xc5
 425.1328125 378.368164062 405 358 405 300 c 6
 405 -10 l 1
 275 -10 l 1
 275 307 l 2
 275 370 278 390 230 389 c 0
 198.229376884 388.338112018 173.136514983 393.904550499 176 308 c 2xb5
 186 8 l 1
 56 0 l 1xac
EndSplineSet
Validated: 33
EndChar

StartChar: n
Encoding: 110 110 79
Width: 458
Flags: W
HStem: 0 21G<46 177> 377 120<195.298 279.252>
VStem: 46 131<0 370.563> 281 131<10 373.689>
LayerCount: 2
Fore
SplineSet
46 0 m 1
 46 342 l 2
 46 396 43 423 42 469 c 1
 155 479 l 1
 161 443 l 1
 163 443 l 1
 189 482 231 497 282 497 c 0
 400 497 412 474 412 314 c 2
 412 10 l 1
 281 10 l 1
 281 296 l 6
 281 367 286 378 233 377 c 4
 197.061523438 376.322265625 177 374 177 288 c 6
 177 0 l 1
 46 0 l 1
EndSplineSet
Validated: 33
EndChar

StartChar: o
Encoding: 111 111 80
Width: 431
Flags: W
HStem: -8 90<173.31 257.792> 388 109<170.384 261.134>
VStem: 29 130<92.7728 380.724> 272 131<90.2159 380.783>
LayerCount: 2
Fore
SplineSet
218 497 m 4
 333 497 403 484 403 246 c 4
 403 42 396 -8 216 -8 c 4
 99 -8 29 12 29 243 c 4
 29 419 42 497 218 497 c 4
217 388 m 4
 160 388 159 370 159 236 c 4
 159 92 172 82 219 82 c 4
 261 82 272 90 272 236 c 4
 272 376 269 388 217 388 c 4
EndSplineSet
Validated: 1
Substitution2: "'sups' +BBIENQRABEUEPQQ4BDkA +BDgEPQQ0BDUEOgRB lookup 12 subtable" o.superior
Substitution2: "'ordn' Ordinals lookup 11 subtable" o.superior
AlternateSubs2: "'aalt' +BBIEQQQ1 +BDAEOwRMBEIENQRABD0EMARCBDgEMgQ9BEsENQAA +BDIEMARABDgEMAQ9BEIESwAA lookup 1 subtable" ordmasculine o.superior
EndChar

StartChar: p
Encoding: 112 112 81
Width: 447
Flags: W
HStem: -194.125 21G<51.7731 183.103> 20.1348 68.8652<186.55 209.627> 377 121.506<181.182 280.813>
VStem: 42.9199 114.899<452.823 506.709> 52.123 130.979<-191.833 20.1348 92.075 205.896> 287.084 128.297<102.286 366.989>
LayerCount: 2
Fore
SplineSet
52.123046875 -194.125 m 1xec
 42.919921875 331.794921875 l 2
 41.88671875 390.78515625 38.837890625 460.741210938 36.033203125 506.69921875 c 1
 150.840820312 515.692382812 l 1
 157.819335938 452.823242188 l 1xf4
 159.819335938 452.858398438 l 1
 179.116210938 493.202148438 230.014648438 500.02734375 274.989257812 498.505859375 c 0
 408.912109375 493.974609375 423.361328125 477.375 415.380859375 241.509765625 c 4
 407.366210938 4.6455078125 382.840820312 -10.4326171875 250.916015625 -5.96875 c 0
 210.939453125 -4.6162109375 195.793945312 -2.58203125 181.393554688 20.169921875 c 1
 179.393554688 20.134765625 l 1
 183.102539062 -191.833007812 l 1
 52.123046875 -194.125 l 1xec
174.494140625 300.091796875 m 2
 176.786132812 169.112304688 l 2
 178.01171875 99.123046875 197.212890625 89 225 89 c 0
 271 89 282.349609375 95.025390625 287.083984375 234.9453125 c 0
 291.716796875 371.8671875 284 377 226 377 c 0
 193.96484375 377 173.19921875 374.080078125 174.494140625 300.091796875 c 2
EndSplineSet
Validated: 33
EndChar

StartChar: q
Encoding: 113 113 82
Width: 447
Flags: W
HStem: -202 21G<271 402> -8 97<108.515 252.154> 32 57<248.279 263.896> 387 110<174.901 263.302>
VStem: 29 131<102.051 372.953> 271 131<-202 32 95.0826 381.32>
LayerCount: 2
Fore
SplineSet
271 -202 m 1xdc
 271 32 l 1
 269 32 l 1xbc
 249 3 218 -8 176 -8 c 4
 42 -8 29 0 29 234 c 4
 29 477 55 497 194 497 c 0
 226 497 263 493 284 448 c 1
 286 447 l 1
 293 469 l 1
 406 462 l 1
 404 418 402 272 402 214 c 2
 402 -202 l 1
 271 -202 l 1xdc
271 164 m 2
 271 310 l 2
 271 349.841675382 271 387 222 387 c 0
 171 387 160 368 160 234 c 0
 160 90 182 89 222 89 c 0xdc
 270 89 271 123.920898438 271 164 c 2
EndSplineSet
Validated: 1
EndChar

StartChar: r
Encoding: 114 114 83
Width: 294
Flags: W
HStem: -7 21G<44.4269 177> 365 130<172.453 285.367>
VStem: 35 132<97.7 363.578> 45 132<0 173.6>
LayerCount: 2
Fore
SplineSet
45 -7 m 1xd0
 35 342 l 2
 35 391 33 424 31 469 c 1
 151 479 l 1
 155 438 l 1
 158 438 l 1
 170 519 210 509 291 495 c 5
 294 448 290 388 284 365 c 5
 168 381 162.204532173 366.927602104 167 248 c 6xe0
 177 0 l 1
 45 -7 l 1xd0
EndSplineSet
Validated: 33
EndChar

StartChar: s
Encoding: 115 115 84
Width: 324
Flags: W
HStem: -6 92<47.9617 190.437> 389 108<141.616 275.999>
VStem: 17 120<309.338 384.507> 193 110<89.7266 160.323>
LayerCount: 2
Fore
SplineSet
28 12 m 1
 52 102 l 1
 79 90 114 86 130 86 c 4
 182 86 193 87 193 132 c 4
 193 157 159 167 116 192 c 0
 36 237 17 298 17 343 c 0
 17 495 59 497 188 497 c 0
 208 497 266 492 297 485 c 1
 274 382 l 1
 254 386 211 389 196 389 c 0
 163 389 137 394 137 347 c 0
 137 325 148 313 194 286 c 0
 266 245 303 200 303 144 c 0
 303 0 276 -6 130 -6 c 0
 113 -6 55 0 28 12 c 1
EndSplineSet
Validated: 33
EndChar

StartChar: t
Encoding: 116 116 85
Width: 311
Flags: W
HStem: -37 122<206.808 275> 396 105.354<200 295.669> 396 97.6689<11 68.8574>
VStem: 69 131<93.9394 396 501.354 640>
LayerCount: 2
Fore
SplineSet
69 640 m 1xb0
 200 641 l 1
 199.749023438 501.354492188 l 1xd0
 295.668945312 505.2578125 l 1
 296 396 l 1xb0
 200 396 l 1xd0
 200 173 l 2
 200 86 204 91 284 85 c 1
 275 -37 l 5
 68 -28 69 7 69 165 c 2
 69 396 l 1
 11 396 l 1
 10.9052734375 493.668945312 l 1
 68.857421875 496.02734375 l 1
 69 640 l 1xb0
EndSplineSet
Validated: 524321
EndChar

StartChar: u
Encoding: 117 117 86
Width: 452
Flags: W
HStem: -18 100<113.5 265.079> 0 21G<290.625 408> 469 20G<42 174>
VStem: 42 132<90.676 489> 273 131<85.0836 479>
LayerCount: 2
Fore
SplineSet
404 479 m 5xb8
 404 179 l 2
 404 127 406 56 408 10 c 1
 295 0 l 1x78
 288 32 l 1
 286 32 l 1
 262 -16 223 -18 173 -18 c 0
 54 -18 42 0 42 183 c 2
 42 489 l 1
 174 489 l 1
 174 187 l 2
 174 88 186 82 223 82 c 0
 258.946289062 82 273 84 273 157 c 2
 273 479 l 5
 404 479 l 5xb8
EndSplineSet
Validated: 1
EndChar

StartChar: v
Encoding: 118 118 87
Width: 395
Flags: W
HStem: 0 21G<132.56 264.47> 469 20G<257.696 390>
LayerCount: 2
Fore
SplineSet
5 489 m 1
 136 509 l 1
 202 144 l 5
 204 144 l 5
 261 489 l 1
 390 479 l 1
 259 0 l 1
 138 0 l 1
 5 489 l 1
EndSplineSet
Validated: 1
EndChar

StartChar: w
Encoding: 119 119 88
Width: 616
Flags: W
HStem: -9 30G<120.082 237 371 487.153> 469 20G<5 148.43 478.858 608>
LayerCount: 2
Fore
SplineSet
5 479 m 1
 145 489 l 1
 198 180 l 1
 201 180 l 1
 251 463 l 1
 352 469 l 1
 416 190 l 5
 419 190 l 5
 483 499 l 1
 608 489 l 1
 482 0 l 1
 371 8 l 1
 299 304 l 1
 297 304 l 1
 237 0 l 1
 125 -9 l 1
 5 479 l 1
EndSplineSet
Validated: 1
EndChar

StartChar: x
Encoding: 120 120 89
Width: 396
Flags: W
HStem: 0 21G<16 145.627> 469 20G<249.903 379>
LayerCount: 2
Fore
SplineSet
7 489 m 1
 143 509 l 1
 200 334 l 1
 202 334 l 1
 257 489 l 1
 379 469 l 1
 278 259 l 1
 391 0 l 1
 255 -20 l 1
 205 153 l 5
 203 153 l 5
 137 0 l 1
 16 20 l 1
 125 233 l 1
 7 489 l 1
EndSplineSet
Validated: 1
EndChar

StartChar: y
Encoding: 121 121 90
Width: 391
Flags: W
HStem: 469 20G<15 149.742>
LayerCount: 2
Fore
SplineSet
15 469 m 1
 146 489 l 1
 207 163 l 5
 209 163 l 5
 272 509 l 1
 390 489 l 1
 290 112 l 2
 217.780370607 -160.268002813 220 -167 70 -215 c 1
 30 -102 l 5
 122 -71 144 -68 143 18 c 4
 142.930237274 23.9995944165 141 30 139 36 c 2
 15 469 l 1
EndSplineSet
Validated: 33
EndChar

StartChar: z
Encoding: 122 122 91
Width: 351
Flags: W
HStem: 0 107<163 311> 392 107<23.6511 192.083>
VStem: 21 306
LayerCount: 2
Fore
SplineSet
38 0 m 1
 28 82 l 1
 194 379 l 1
 194 382 l 1
 194 382 110 395 21 392 c 1
 16 425 19 474 25 499 c 1
 174 512 327 479 327 479 c 1
 327 380 l 1
 163 110 l 1
 163 107 l 1
 321 107 l 1
 311 0 l 5
 38 0 l 1
EndSplineSet
Validated: 33
EndChar

StartChar: braceleft
Encoding: 123 123 92
Width: 258
Flags: W
HStem: 218 89<16 65.7061> 600 83<160.569 229.37>
VStem: 10 225
LayerCount: 2
Fore
SplineSet
16 218 m 1
 10 307 l 1
 64 307 76 336 76 363 c 0
 76 417.862304688 70.1788555104 485.214147808 64 540 c 0
 49 673 118.612716763 668.01734104 216 683 c 2
 229 685 l 1
 235 602 l 1
 220 600 l 2
 134.565435656 588.608724754 149.900394767 585.987715068 174 391 c 0
 185 302 182 302 108 270 c 1
 108 268 l 1
 186 258 184 241 174 144 c 0
 159.153004555 -0.0158558154598 143.529411765 -15.8823529412 212 -33 c 6
 228 -37 l 5
 223 -114 l 5
 204 -112 l 6
 115.506849315 -102.684931507 72 -98 78 31 c 0
 81.7215551879 111.01343654 86 118.217773438 86 172 c 0
 86 196 70 218 16 218 c 1
EndSplineSet
Validated: 33
Substitution2: "'case' +BCAENQQzBDgEQQRCBEAEPgQ3BDAEMgQ4BEEEOAQ8BEsENQAA +BEQEPgRABDwESwAA lookup 4 subtable" braceleft.cap
Substitution2: "'aalt' +BBIEQQQ1 +BDAEOwRMBEIENQRABD0EMARCBDgEMgQ9BEsENQAA +BDIEMARABDgEMAQ9BEIESwAA lookup 0 subtable" braceleft.cap
EndChar

StartChar: bar
Encoding: 124 124 93
Width: 218
Flags: W
VStem: 61 97<-240 750>
LayerCount: 2
Fore
SplineSet
55 750 m 1
 162 760 l 5
 158 -240 l 5
 61 -250 l 1
 55 750 l 1
EndSplineSet
Validated: 1
EndChar

StartChar: braceright
Encoding: 125 125 94
Width: 258
Flags: W
HStem: -113 72<27 84.9556> 228 89<187.472 248>
VStem: 84 98<-35.8133 222.283 324.439 564.948>
LayerCount: 2
Fore
SplineSet
248 317 m 1
 248 228 l 1
 194 228 182 216 182 192 c 0
 182 138.2578125 190.643681405 66.1206373517 194 12 c 0
 202 -117 170.341628959 -106.174208145 48 -112 c 6
 27 -113 l 5
 23 -41 l 1
 36 -41 l 1
 82 -37 96 -29 92 19 c 0
 88.5416910182 60.4997077821 84 123.6171875 84 164 c 0
 84 232 110 262 160 278 c 1
 160 280 l 1
 110 296 84 327 84 391 c 0
 84 432.88671875 92 501.934570312 92 546 c 0
 92 584 76 591 38 595 c 1
 23 595 l 1
 31 706 l 1
 49 705 l 2
 192.224615385 697.043076923 202 690 194 550 c 0
 190.854907446 494.960880302 182 417.858398438 182 363 c 0
 182 336 194 317 248 317 c 1
EndSplineSet
Validated: 524321
Substitution2: "'case' +BCAENQQzBDgEQQRCBEAEPgQ3BDAEMgQ4BEEEOAQ8BEsENQAA +BEQEPgRABDwESwAA lookup 4 subtable" braceright.cap
Substitution2: "'aalt' +BBIEQQQ1 +BDAEOwRMBEIENQRABD0EMARCBDgEMgQ9BEsENQAA +BDIEMARABDgEMAQ9BEIESwAA lookup 0 subtable" braceright.cap
EndChar

StartChar: asciitilde
Encoding: 126 126 95
Width: 596
Flags: W
HStem: 191 78<356.291 444.879> 284 96<154.409 258.431>
VStem: 57 84<210.167 273.675> 456 83<272.022 351.843>
LayerCount: 2
Fore
SplineSet
141 201 m 1
 57 211 l 1
 86 383 118 380 182 380 c 0
 228 380 268 377 325 320 c 0
 375.084927872 269.915072128 384 269 423 269 c 4
 445 269 445 282 456 361 c 1
 539 351 l 1
 516 202 508.949569491 193.875423491 427 191 c 4
 370 189 337 186 286 237 c 4
 228.637120017 294.362879983 226 284 177 284 c 4
 160 284 154 276 141 201 c 1
EndSplineSet
Validated: 524321
EndChar

StartChar: exclamdown
Encoding: 161 161 96
Width: 236
Flags: W
HStem: 241 20G<61.3658 174.677> 333 161<47 175>
VStem: 47 143<-212 -5.0625> 47 128<333 426.917> 62 112<54.0625 261>
LayerCount: 2
Fore
SplineSet
190 -212 m 1xe0
 47 -212 l 1xe0
 62 261 l 1
 174 261 l 1xc8
 190 -212 l 1xe0
184 495 m 0
 175 333 l 0
 47 333 l 4xd0
 35 494 l 0
 184 495 l 0
EndSplineSet
Validated: 1
Substitution2: "'case' +BCAENQQzBDgEQQRCBEAEPgQ3BDAEMgQ4BEEEOAQ8BEsENQAA +BEQEPgRABDwESwAA lookup 4 subtable" exclamdown.cap
Substitution2: "'aalt' +BBIEQQQ1 +BDAEOwRMBEIENQRABD0EMARCBDgEMgQ9BEsENQAA +BDIEMARABDgEMAQ9BEIESwAA lookup 0 subtable" exclamdown.cap
EndChar

StartChar: cent
Encoding: 162 162 97
Width: 426
Flags: W
HStem: -7 21G<202 296> 461 101<298 360.77>
VStem: 55 130<203.273 439.646> 202 94<-7 90 562 656>
LayerCount: 2
Fore
SplineSet
296 -7 m 1
 202 -7 l 1
 202 93 l 1
 105.43752004 104.141824611 55 135 55 324 c 0
 55 526 108 543 204 555 c 1
 204 656 l 1
 298 656 l 1
 298 562 l 1
 332 561 361 554 378 545 c 1
 362 445 l 1
 336 458 294 461 267 461 c 0
 209 461 185 446 185 322 c 0
 185 206 191 188 273 188 c 0
 290 188 326 191 352 198 c 5
 362 100 l 5
 343 94 321 91 296 90 c 5
 296 -7 l 1
EndSplineSet
Validated: 1
Substitution2: "'onum' Oldstyle Figures lookup 14 subtable" cent.taboldstyle
Substitution2: "'subs' +BB0EOAQ2BD0EOAQ5 +BDgEPQQ0BDUEOgRB lookup 13 subtable" cent.inferior
Substitution2: "'sups' +BBIENQRABEUEPQQ4BDkA +BDgEPQQ0BDUEOgRB lookup 12 subtable" cent.superior
Substitution2: "'dnom' Denominators lookup 6 subtable" cent.denominator
Substitution2: "'numr' Numerators lookup 5 subtable" cent.numerator
AlternateSubs2: "'aalt' +BBIEQQQ1 +BDAEOwRMBEIENQRABD0EMARCBDgEMgQ9BEsENQAA +BDIEMARABDgEMAQ9BEIESwAA lookup 1 subtable" cent.numerator cent.denominator cent.superior cent.inferior cent.taboldstyle
EndChar

StartChar: sterling
Encoding: 163 163 98
Width: 426
Flags: W
HStem: -10 110<244.7 377> 0 110<185 275.9> 0 82<40 70.3663> 275 87<48 108> 287 87<244 336> 548 110<213.011 346.585>
VStem: 108 124<371 435.873> 122 122<161.909 278>
LayerCount: 2
Fore
SplineSet
377 -10 m 1x85
 40 0 l 5
 36 82 l 1
 110.867627162 111.947050865 137.587890625 194.864257812 122 278 c 1x25
 48 275 l 1
 43 362 l 1
 108 365 l 1
 62 568 43 658 282 658 c 0
 304 658 337 656 365 651 c 1
 345 543 l 1
 331 546 314 548 289 548 c 0
 141 548 219.262695312 441.0546875 232 371 c 1x36
 336 374 l 1
 340 287 l 1
 244 284 l 1
 248.704101562 208.73828125 228.86165097 152.487677818 185 112 c 1
 185 110 l 1x4d
 384 100 l 1
 377 -10 l 1x85
EndSplineSet
Validated: 33
Substitution2: "'onum' Oldstyle Figures lookup 14 subtable" sterling.taboldstyle
Substitution2: "'aalt' +BBIEQQQ1 +BDAEOwRMBEIENQRABD0EMARCBDgEMgQ9BEsENQAA +BDIEMARABDgEMAQ9BEIESwAA lookup 0 subtable" sterling.taboldstyle
EndChar

StartChar: fraction
Encoding: 8260 8260 99
Width: 117
Flags: MW
HStem: -8 21G<-150 -81 -150 -150> 638 20G<199 267 267 267>
VStem: -150 417
LayerCount: 2
Fore
SplineSet
-81 -8 m 1
 -150 -8 l 1
 199 658 l 1
 267 658 l 1
 -81 -8 l 1
EndSplineSet
Validated: 1
EndChar

StartChar: yen
Encoding: 165 165 100
Width: 426
Flags: W
HStem: -5 21G<152.1 272> 281 77<22 124 300 403> 640 20G<303.763 421>
VStem: 152 120<0 138.38 215.228 281>
LayerCount: 2
Fore
SplineSet
272 0 m 1
 152 -5 l 5
 152.719726562 138.379882812 l 1
 25.1796875 127.454101562 l 1
 19.5498046875 194.217773438 l 1
 152.08984375 205.142578125 l 1
 152 281 l 1
 22 281 l 1
 22 358 l 1
 124 358 l 1
 6 650 l 1
 125 670 l 1
 221 381 l 1
 223 381 l 1
 310 660 l 1
 421 640 l 1
 300 358 l 1
 403 358 l 1
 403 281 l 1
 272 281 l 1
 271.665039062 215.227539062 l 1
 399.201171875 226.236328125 l 1
 404.83203125 159.473632812 l 1
 272.295898438 148.463867188 l 1
 272 0 l 1
EndSplineSet
Validated: 1
Substitution2: "'onum' Oldstyle Figures lookup 14 subtable" yen.taboldstyle
Substitution2: "'aalt' +BBIEQQQ1 +BDAEOwRMBEIENQRABD0EMARCBDgEMgQ9BEsENQAA +BDIEMARABDgEMAQ9BEIESwAA lookup 0 subtable" yen.taboldstyle
EndChar

StartChar: florin
Encoding: 402 402 101
Width: 426
Flags: W
HStem: -64 84<23 95.843> 289 113<85 140 272 363>
LayerCount: 2
Fore
SplineSet
85 289 m 1
 76 402 l 1
 148 402 l 1
 152 448 l 6
 170.08630394 655.99249531 235 718 407 656 c 5
 390 539 l 1
 320.291363953 562.236212016 289.25633319 567.660798626 277 450 c 6
 272 402 l 1
 363 402 l 1
 372 289 l 1
 264 289 l 1
 247 107 l 6
 229.904857391 -76.0185855805 149 -119 5 -64 c 1
 23 20 l 1
 87 8 112.386232133 -0.132392956557 123 111 c 6
 140 289 l 1
 85 289 l 1
EndSplineSet
Validated: 524321
Substitution2: "'onum' Oldstyle Figures lookup 14 subtable" florin.taboldstyle
Substitution2: "'aalt' +BBIEQQQ1 +BDAEOwRMBEIENQRABD0EMARCBDgEMgQ9BEsENQAA +BDIEMARABDgEMAQ9BEIESwAA lookup 0 subtable" florin.taboldstyle
EndChar

StartChar: section
Encoding: 167 167 102
Width: 431
Flags: W
HStem: 575 92<253.037 336>
VStem: 33 107<301.406 384.902> 266 107<26.0774 130.322> 306 92<240.957 333.885>
LayerCount: 2
Fore
SplineSet
140 333 m 0xd0
 139 298 198 280 281 234 c 1
 293 243 306 277 306 298 c 0
 306 340 241 357 172 396 c 1
 156 386 140.627929688 354.991210938 140 333 c 0xd0
356 667 m 5
 336 575 l 1
 216 605 177 619.3822168 177 551 c 0
 177 515 188 513 252 481 c 0
 392.82045306 410.58977347 398 381 398 316 c 0xd0
 398 265 360 210 341 189 c 1
 354 177 374.413258494 145.975025959 373 106 c 0
 366 -92 270 -110 79 -25 c 1
 102 50 l 1
 224 0 266 -1.752838228 266 88 c 0xe0
 266 120 252 133 173 169 c 0
 37.2646893197 230.854065626 33 248 33 329 c 0
 33 375 88 432 102 449 c 1
 84 469 66.5122687322 498.076391802 69 532 c 4
 80 682 98 731 356 667 c 5
EndSplineSet
Validated: 33
EndChar

StartChar: currency
Encoding: 164 164 103
Width: 426
Flags: HW
HStem: 116 91<171.223 251.917> 445 91<171.211 251.873>
VStem: 45 111<219.562 432.848> 264 112<216.245 435.739>
LayerCount: 2
Fore
SplineSet
214 536 m 0
 266 536 289 522 313 500 c 1
 378 575 l 1
 432 519 l 1
 354 443 l 1
 369 409 376 394 376 328 c 0
 376 259 368 244 353 213 c 1
 431 132 l 1
 377 77 l 1
 310 154 l 1
 282 129 247 116 210 116 c 0
 155 116 138 129 112 152 c 1
 50 77 l 1
 -4 132 l 1
 69 207 l 1
 53 239 45 258 45 322 c 0
 45 391 55 410 72 443 c 1
 4 503 l 1
 60 561 l 1
 114 497 l 1
 142 523 162 536 214 536 c 0
211 435 m 4
 170 435 156 415 156 324 c 4
 156 200 175 197 211 197 c 0
 253 197 264 206 264 326 c 4
 264 419 254 435 211 435 c 4
EndSplineSet
EndChar

StartChar: quotesingle
Encoding: 39 39 104
Width: 170
Flags: W
HStem: 422 260<43 128>
VStem: 23 115<591 682>
LayerCount: 2
Fore
SplineSet
23 682 m 1
 138 682 l 1
 128 422 l 5
 43 422 l 1
 23 682 l 1
EndSplineSet
Validated: 1
EndChar

StartChar: quotedblleft
Encoding: 8220 8220 105
Width: 337
Flags: MW
HStem: 426 256
VStem: 4 335<421 682>
LayerCount: 2
Fore
SplineSet
117 431 m 1
 4 421 l 1
 31 511 74 602 116 675 c 1
 184 682 l 1
 155 599 128 511 117 431 c 1
272 431 m 1
 159 421 l 1
 187 511 229 602 272 675 c 1
 339 682 l 1
 311 599 284 511 272 431 c 1
EndSplineSet
Validated: 1
EndChar

StartChar: guillemotleft
Encoding: 171 171 106
Width: 383
Flags: W
LayerCount: 2
Fore
SplineSet
196 447 m 1
 113 259 l 1
 211 77 l 1
 131 57 l 1
 16 252 l 1
 101 467 l 1
 196 447 l 1
366 427 m 1
 278 243 l 1
 351 87 l 5
 272 67 l 5
 186 252 l 1
 271 447 l 1
 366 427 l 1
EndSplineSet
Validated: 1
Substitution2: "'case' +BCAENQQzBDgEQQRCBEAEPgQ3BDAEMgQ4BEEEOAQ8BEsENQAA +BEQEPgRABDwESwAA lookup 4 subtable" guillemotleft.cap
Substitution2: "'aalt' +BBIEQQQ1 +BDAEOwRMBEIENQRABD0EMARCBDgEMgQ9BEsENQAA +BDIEMARABDgEMAQ9BEIESwAA lookup 0 subtable" guillemotleft.cap
EndChar

StartChar: guilsinglleft
Encoding: 8249 8249 107
Width: 221
Flags: MW
HStem: 67 370<121 216 121 216>
VStem: 16 200<67 252>
LayerCount: 2
Fore
SplineSet
216 437 m 1
 108 252 l 1
 216 67 l 1
 121 67 l 1
 16 252 l 1
 121 437 l 1
 216 437 l 1
EndSplineSet
Validated: 1
Substitution2: "'case' +BCAENQQzBDgEQQRCBEAEPgQ3BDAEMgQ4BEEEOAQ8BEsENQAA +BEQEPgRABDwESwAA lookup 4 subtable" guilsinglleft.cap
Substitution2: "'aalt' +BBIEQQQ1 +BDAEOwRMBEIENQRABD0EMARCBDgEMgQ9BEsENQAA +BDIEMARABDgEMAQ9BEIESwAA lookup 0 subtable" guilsinglleft.cap
EndChar

StartChar: guilsinglright
Encoding: 8250 8250 108
Width: 221
Flags: MW
HStem: 67 370<5 99 5 100 5 99>
VStem: 5 200<67 252 252 437>
LayerCount: 2
Fore
SplineSet
113 252 m 1
 5 437 l 1
 99 437 l 1
 205 252 l 1
 100 67 l 1
 5 67 l 1
 113 252 l 1
EndSplineSet
Validated: 1
Substitution2: "'case' +BCAENQQzBDgEQQRCBEAEPgQ3BDAEMgQ4BEEEOAQ8BEsENQAA +BEQEPgRABDwESwAA lookup 4 subtable" guilsinglright.cap
Substitution2: "'aalt' +BBIEQQQ1 +BDAEOwRMBEIENQRABD0EMARCBDgEMgQ9BEsENQAA +BDIEMARABDgEMAQ9BEIESwAA lookup 0 subtable" guilsinglright.cap
EndChar

StartChar: fi
Encoding: 64257 64257 109
Width: 489
Flags: MW
HStem: 0 21G<69 200 69 69 312 312 312 444> 396 93<3 69 3 69 200 312> 593 107<255.5 309.5 197 311> 680 20
VStem: 69 131<0 396 489 507> 312 132<0 396 396 396>
LayerCount: 2
Fore
SplineSet
200 0 m 1xec
 69 0 l 1
 69 396 l 1
 3 396 l 1
 3 489 l 1
 69 489 l 1
 69 515 l 2
 69 578 108 700 286 700 c 0xec
 333 700 375 692 402 680 c 1xdc
 383 577 l 1
 361 585 331 593 291 593 c 0
 220 593 200 553 200 507 c 2
 200 489 l 1
 444 489 l 1
 444 0 l 1
 312 0 l 1
 312 396 l 1
 200 396 l 1
 200 0 l 1xec
EndSplineSet
Validated: 1
EndChar

StartChar: fl
Encoding: 64258 64258 110
Width: 489
Flags: MW
HStem: 0 21G<69 200 69 69 312 312 312 444> 396 93<3 69 3 69 200 271> 597 103<248.5 279.5>
VStem: 69 131<0 396 489 508 508 514> 312 132<0 591 591 591>
LayerCount: 2
Fore
SplineSet
200 0 m 1
 69 0 l 1
 69 396 l 1
 3 396 l 1
 3 489 l 1
 69 489 l 1
 69 508 l 2
 69 544 85 610 129 649 c 0
 162 678 209 700 288 700 c 0
 349 700 409 687 444 674 c 1
 444 0 l 1
 312 0 l 1
 312 591 l 1
 302 595 289 597 270 597 c 0
 219 597 200 557 200 514 c 2
 200 489 l 1
 271 489 l 1
 271 396 l 1
 200 396 l 1
 200 0 l 1
EndSplineSet
Validated: 1
EndChar

StartChar: endash
Encoding: 8211 8211 111
Width: 500
Flags: MW
HStem: 215 90<30 470 30 470>
VStem: 30 440<215 305 215 305>
LayerCount: 2
Fore
SplineSet
30 305 m 1
 470 305 l 1
 470 215 l 1
 30 215 l 1
 30 305 l 1
EndSplineSet
Validated: 1
Substitution2: "'case' +BCAENQQzBDgEQQRCBEAEPgQ3BDAEMgQ4BEEEOAQ8BEsENQAA +BEQEPgRABDwESwAA lookup 4 subtable" endash.cap
Substitution2: "'aalt' +BBIEQQQ1 +BDAEOwRMBEIENQRABD0EMARCBDgEMgQ9BEsENQAA +BDIEMARABDgEMAQ9BEIESwAA lookup 0 subtable" endash.cap
EndChar

StartChar: dagger
Encoding: 8224 8224 112
Width: 425
Flags: MW
HStem: 387 101 654 20G<157 268 268 268>
VStem: 160 105
LayerCount: 2
Fore
SplineSet
157 674 m 1
 268 674 l 1
 262 485 l 1
 393 491 l 1
 393 384 l 1
 262 390 l 1
 268 -51 l 1
 157 -51 l 1
 163 390 l 1
 32 384 l 1
 32 491 l 1
 163 485 l 1
 157 674 l 1
EndSplineSet
Validated: 1
EndChar

StartChar: daggerdbl
Encoding: 8225 8225 113
Width: 425
Flags: MW
HStem: 130 101 396 101 654 20G<157 268 268 268>
VStem: 159.5 105.5 163 99<228 399>
LayerCount: 2
Fore
SplineSet
157 674 m 1xf0
 268 674 l 1
 262 494 l 1xf0
 393 500 l 1
 393 393 l 1
 262 399 l 1
 262 228 l 1xe8
 393 234 l 1
 393 127 l 1
 262 133 l 1
 268 -50 l 1
 157 -50 l 1
 162 133 l 1xf0
 32 127 l 1
 32 234 l 1
 163 228 l 1
 163 399 l 1xe8
 32 393 l 1
 32 500 l 1
 163 494 l 1
 157 674 l 1xf0
EndSplineSet
Validated: 1
EndChar

StartChar: periodcentered
Encoding: 183 183 114
Width: 233
Flags: W
HStem: 183 173<54.9286 182.94>
VStem: 41 152<196.93 345.068>
LayerCount: 2
Fore
SplineSet
117 183 m 4
 44.4457985941 183.942262356 43.5031189813 217.060281139 41 269 c 4
 37 352 48 363 117 356 c 4
 188.639233899 348.732251633 201.75390023 339.031201837 193 269 c 4
 184 197 194 182 117 183 c 4
EndSplineSet
Validated: 33
Substitution2: "'case' +BCAENQQzBDgEQQRCBEAEPgQ3BDAEMgQ4BEEEOAQ8BEsENQAA +BEQEPgRABDwESwAA lookup 4 subtable" periodcentered.cap
Substitution2: "'aalt' +BBIEQQQ1 +BDAEOwRMBEIENQRABD0EMARCBDgEMgQ9BEsENQAA +BDIEMARABDgEMAQ9BEIESwAA lookup 0 subtable" periodcentered.cap
EndChar

StartChar: paragraph
Encoding: 182 182 115
Width: 431
Flags: W
HStem: 601 73<242 298.339>
VStem: 21 221<339.783 571.461> 180 72<-70 264> 290 72<-30 411.7> 300 72<177.4 601>
LayerCount: 2
Fore
SplineSet
252 -70 m 1xa0
 180 -70 l 1xa0
 177 264 l 5
 170 264 l 6
 85 264 21 315 21 452 c 0
 21 564 57 674 234 674 c 0
 289 674 341 671 372 666 c 1xc8
 362 -32 l 1
 290 -30 l 1x90
 300 601 l 1
 242 601 l 1xc8
 252 -70 l 1xa0
EndSplineSet
Validated: 1
EndChar

StartChar: bullet
Encoding: 8226 8226 116
Width: 287
Flags: MW
HStem: 158 219<114 173 114 174>
VStem: 38 211<234 300>
LayerCount: 2
Fore
SplineSet
143 158 m 0
 84 158 38 201 38 266 c 0
 38 334 84 377 144 377 c 0
 202 377 249 336 249 267 c 0
 249 201 205 158 143 158 c 0
EndSplineSet
Validated: 1
EndChar

StartChar: quotesinglbase
Encoding: 8218 8218 117
Width: 190
Flags: MW
HStem: -109 260<4 184>
VStem: 4 180
LayerCount: 2
Fore
SplineSet
71 -100 m 1
 4 -109 l 1
 33 -26 60 62 71 141 c 1
 184 151 l 1
 156 61 114 -28 71 -100 c 1
EndSplineSet
Validated: 1
EndChar

StartChar: quotedblbase
Encoding: 8222 8222 118
Width: 337
Flags: MW
HStem: -109 260<0 180 155 180>
VStem: 0 335<-109 151>
LayerCount: 2
Fore
SplineSet
68 -100 m 1
 0 -109 l 1
 29 -26 56 62 67 141 c 1
 180 151 l 1
 153 61 110 -28 68 -100 c 1
223 -100 m 1
 155 -109 l 1
 184 -26 211 62 222 141 c 1
 335 151 l 1
 308 61 266 -28 223 -100 c 1
EndSplineSet
Validated: 1
EndChar

StartChar: quotedblright
Encoding: 8221 8221 119
Width: 337
Flags: MW
HStem: 425.5 256.5 662 20G<180 180 335 335>
VStem: 0 335<421 682>
LayerCount: 2
Fore
SplineSet
67 674 m 1x60
 180 682 l 1
 153 592 110 502 68 430 c 1
 0 421 l 1xa0
 29 504 56 595 67 674 c 1x60
222 674 m 1
 335 682 l 1
 308 592 266 502 223 430 c 1
 155 421 l 1
 184 504 211 595 222 674 c 1
EndSplineSet
Validated: 1
EndChar

StartChar: guillemotright
Encoding: 187 187 120
Width: 383
Flags: W
LayerCount: 2
Fore
SplineSet
114 252 m 1
 16 417 l 1
 100 437 l 1
 206 252 l 1
 102 47 l 5
 16 67 l 5
 114 252 l 1
275 252 m 1
 187 447 l 1
 271 467 l 1
 367 252 l 1
 262 67 l 1
 177 87 l 1
 275 252 l 1
EndSplineSet
Validated: 1
Substitution2: "'case' +BCAENQQzBDgEQQRCBEAEPgQ3BDAEMgQ4BEEEOAQ8BEsENQAA +BEQEPgRABDwESwAA lookup 4 subtable" guillemotright.cap
Substitution2: "'aalt' +BBIEQQQ1 +BDAEOwRMBEIENQRABD0EMARCBDgEMgQ9BEsENQAA +BDIEMARABDgEMAQ9BEIESwAA lookup 0 subtable" guillemotright.cap
EndChar

StartChar: ellipsis
Encoding: 8230 8230 121
Width: 1000
Flags: MW
HStem: -8 174<146.5 188 146.5 189 480.5 522 814.5 856>
VStem: 90 153<52.5 104> 424 153<52.5 104> 758 153<52.5 104>
LayerCount: 2
Fore
SplineSet
166 -8 m 0
 125 -8 90 26 90 79 c 0
 90 129 126 166 167 166 c 0
 209 166 243 133 243 79 c 0
 243 26 212 -8 166 -8 c 0
500 -8 m 0
 458 -8 424 26 424 79 c 0
 424 129 460 166 501 166 c 0
 543 166 577 133 577 79 c 0
 577 26 546 -8 500 -8 c 0
834 -8 m 0
 792 -8 758 26 758 79 c 0
 758 129 794 166 835 166 c 0
 877 166 911 133 911 79 c 0
 911 26 880 -8 834 -8 c 0
EndSplineSet
Validated: 1
EndChar

StartChar: perthousand
Encoding: 8240 8240 122
Width: 958
Flags: MW
HStem: -6 70<494.5 525 494.5 543 795.5 826> 259 70<133.5 164.5 133.5 182> 323 69<495.5 526 796 827> 589 69<134.5 165>
VStem: 18 88<459 500 459 509> 190 88<417.5 496> 379 88<194 235 194 243.5> 551 88<152.5 231> 680 88<194 235 194 243.5> 852 88<152.5 231>
LayerCount: 2
Fore
SplineSet
511 392 m 0xbfc0
 608 392 639 285 639 196 c 0
 639 58 576 -6 510 -6 c 0
 419 -6 379 94 379 191 c 0
 379 296 426 392 511 392 c 0xbfc0
510 323 m 0
 481 323 467 276 467 194 c 0
 466 110 479 64 510 64 c 0
 540 64 551 112 551 193 c 0
 551 269 542 323 510 323 c 0
812 392 m 0
 909 392 940 285 940 196 c 0
 940 58 877 -6 811 -6 c 0
 720 -6 680 94 680 191 c 0
 680 296 727 392 812 392 c 0
811 323 m 0
 781 323 768 276 768 194 c 0
 767 110 780 64 811 64 c 0
 841 64 852 112 852 193 c 0
 852 269 843 323 811 323 c 0
150 658 m 0
 247 658 278 551 278 461 c 0
 278 323 215 259 149 259 c 0x4c
 58 259 18 358 18 456 c 0
 18 562 65 658 150 658 c 0
149 589 m 0
 120 589 106 541 106 459 c 0
 105 375 118 329 149 329 c 0x4c
 180 329 190 377 190 458 c 0
 190 534 181 589 149 589 c 0
188 -8 m 1
 119 -8 l 1
 469 658 l 1
 537 658 l 1
 188 -8 l 1
EndSplineSet
Validated: 33
EndChar

StartChar: questiondown
Encoding: 191 191 123
Width: 334
Flags: W
HStem: -195 113<167.403 286.55> 332 162<140.417 243.879>
VStem: 19 133<-68.0254 46.4731> 117 149<354.875 470.533>
LayerCount: 2
Fore
SplineSet
192 494 m 0xd0
 235 494 266 462 266 413 c 0
 266 366 238 332 193 332 c 0
 149 332 117 366 117 413 c 0
 117 462 151 494 192 494 c 0xd0
135 271 m 1
 246 271 l 1
 248 253 l 2
 255 193 232 145 195 87 c 0
 167 43 152 18 152 -21 c 0
 152 -58 177 -82 219 -82 c 0
 240 -82 264 -78 283 -65 c 1
 304 -166 l 1
 283 -180 236 -195 188 -195 c 0
 56 -195 19 -109 19 -42 c 0xe0
 19 27 57 80 92 131 c 0
 120 172 136 203 135 249 c 2
 135 271 l 1
EndSplineSet
Validated: 33
Substitution2: "'case' +BCAENQQzBDgEQQRCBEAEPgQ3BDAEMgQ4BEEEOAQ8BEsENQAA +BEQEPgRABDwESwAA lookup 4 subtable" questiondown.cap
Substitution2: "'aalt' +BBIEQQQ1 +BDAEOwRMBEIENQRABD0EMARCBDgEMgQ9BEsENQAA +BDIEMARABDgEMAQ9BEIESwAA lookup 0 subtable" questiondown.cap
EndChar

StartChar: grave
Encoding: 96 96 124
Width: 300
Flags: W
HStem: 559 130
VStem: 19 207
LayerCount: 2
Fore
SplineSet
19 669 m 5
 143 689 l 5
 226 564 l 1
 143 559 l 1
 19 669 l 5
EndSplineSet
Validated: 1
Substitution2: "'case' +BCAENQQzBDgEQQRCBEAEPgQ3BDAEMgQ4BEEEOAQ8BEsENQAA +BEQEPgRABDwESwAA lookup 4 subtable" grave.cap
Substitution2: "'aalt' +BBIEQQQ1 +BDAEOwRMBEIENQRABD0EMARCBDgEMgQ9BEsENQAA +BDIEMARABDgEMAQ9BEIESwAA lookup 0 subtable" grave.cap
EndChar

StartChar: acute
Encoding: 180 180 125
Width: 300
Flags: W
HStem: 549 140
VStem: 84 203
LayerCount: 2
Fore
SplineSet
173 689 m 1
 287 669 l 1
 166 549 l 5
 84 569 l 5
 173 689 l 1
EndSplineSet
Validated: 1
Substitution2: "'case' +BCAENQQzBDgEQQRCBEAEPgQ3BDAEMgQ4BEEEOAQ8BEsENQAA +BEQEPgRABDwESwAA lookup 4 subtable" acute.cap
Substitution2: "'aalt' +BBIEQQQ1 +BDAEOwRMBEIENQRABD0EMARCBDgEMgQ9BEsENQAA +BDIEMARABDgEMAQ9BEIESwAA lookup 0 subtable" acute.cap
EndChar

StartChar: circumflex
Encoding: 710 710 126
Width: 300
Flags: W
HStem: 549 139<187.574 196>
VStem: 19 263
LayerCount: 2
Fore
SplineSet
105 685 m 5
 196 688 l 5
 282 579 l 1
 192 549 l 1
 149 617 l 1
 147 617 l 1
 110 549 l 1
 19 559 l 1
 105 685 l 5
EndSplineSet
Validated: 1
Substitution2: "'case' +BCAENQQzBDgEQQRCBEAEPgQ3BDAEMgQ4BEEEOAQ8BEsENQAA +BEQEPgRABDwESwAA lookup 4 subtable" circumflex.cap
Substitution2: "'aalt' +BBIEQQQ1 +BDAEOwRMBEIENQRABD0EMARCBDgEMgQ9BEsENQAA +BDIEMARABDgEMAQ9BEIESwAA lookup 0 subtable" circumflex.cap
EndChar

StartChar: tilde
Encoding: 732 732 127
Width: 300
Flags: W
HStem: 557 118
VStem: 28 60<565.833 594.799> 215 58<637.326 659.207>
LayerCount: 2
Fore
SplineSet
88 557 m 1
 28 567 l 1
 41 660 50 675 99 675 c 0
 139.344992352 675 150.077221868 651.396666778 183 641 c 0
 202 635 209 625 215 668 c 5
 273 658 l 5
 259 576 244.862620021 560.605733512 203 564 c 4
 166 567 152.602458522 588.381147676 121 597 c 0
 99 603 92 584 88 557 c 1
EndSplineSet
Validated: 33
Substitution2: "'case' +BCAENQQzBDgEQQRCBEAEPgQ3BDAEMgQ4BEEEOAQ8BEsENQAA +BEQEPgRABDwESwAA lookup 4 subtable" tilde.cap
Substitution2: "'aalt' +BBIEQQQ1 +BDAEOwRMBEIENQRABD0EMARCBDgEMgQ9BEsENQAA +BDIEMARABDgEMAQ9BEIESwAA lookup 0 subtable" tilde.cap
EndChar

StartChar: macron
Encoding: 175 175 128
Width: 300
Flags: W
HStem: 582 84<44 252>
VStem: 44 213
LayerCount: 2
Fore
SplineSet
44 666 m 1
 257 661 l 1
 252 577 l 5
 44 582 l 1
 44 666 l 1
EndSplineSet
Validated: 1
Substitution2: "'case' +BCAENQQzBDgEQQRCBEAEPgQ3BDAEMgQ4BEEEOAQ8BEsENQAA +BEQEPgRABDwESwAA lookup 4 subtable" macron.cap
Substitution2: "'aalt' +BBIEQQQ1 +BDAEOwRMBEIENQRABD0EMARCBDgEMgQ9BEsENQAA +BDIEMARABDgEMAQ9BEIESwAA lookup 0 subtable" macron.cap
EndChar

StartChar: breve
Encoding: 728 728 129
Width: 300
Flags: W
HStem: 552 74<104.202 202.137> 659 20G<31 98>
VStem: 31 65<632.822 671> 205 74<630.815 659>
LayerCount: 2
Fore
SplineSet
31 671 m 5
 96 679 l 1
 100 645 106 626 149 626 c 0
 199 626 204 639 205 667 c 1
 279 659 l 1
 281 587 250 552 148 552 c 0
 77 552 31 569 31 671 c 5
EndSplineSet
Validated: 33
Substitution2: "'case' +BCAENQQzBDgEQQRCBEAEPgQ3BDAEMgQ4BEEEOAQ8BEsENQAA +BEQEPgRABDwESwAA lookup 4 subtable" breve.cap
Substitution2: "'aalt' +BBIEQQQ1 +BDAEOwRMBEIENQRABD0EMARCBDgEMgQ9BEsENQAA +BDIEMARABDgEMAQ9BEIESwAA lookup 0 subtable" breve.cap
EndChar

StartChar: dotaccent
Encoding: 729 729 130
Width: 300
Flags: W
HStem: 560 129<91 208>
VStem: 91 117<561 688>
LayerCount: 2
Fore
SplineSet
91 560 m 0
 86 689 l 4
 212 688 l 0
 208 561 l 0
 91 560 l 0
EndSplineSet
Validated: 1
Substitution2: "'case' +BCAENQQzBDgEQQRCBEAEPgQ3BDAEMgQ4BEEEOAQ8BEsENQAA +BEQEPgRABDwESwAA lookup 4 subtable" dotaccent.cap
Substitution2: "'aalt' +BBIEQQQ1 +BDAEOwRMBEIENQRABD0EMARCBDgEMgQ9BEsENQAA +BDIEMARABDgEMAQ9BEIESwAA lookup 0 subtable" dotaccent.cap
EndChar

StartChar: dieresis
Encoding: 168 168 131
Width: 300
Flags: W
HStem: 581 101<4 121 212.7 290> 586 106<177 290>
VStem: 4 122<585 682> 174 116<586 687>
LayerCount: 2
Fore
SplineSet
4 581 m 0xb0
 0 682 l 0
 121 686 l 0
 126 585 l 0
 4 581 l 0xb0
174 586 m 4x70
 177 692 l 0x70
 296 687 l 0
 290 581 l 4xb0
 174 586 l 4x70
EndSplineSet
Validated: 1
Substitution2: "'case' +BCAENQQzBDgEQQRCBEAEPgQ3BDAEMgQ4BEEEOAQ8BEsENQAA +BEQEPgRABDwESwAA lookup 4 subtable" dieresis.cap
Substitution2: "'aalt' +BBIEQQQ1 +BDAEOwRMBEIENQRABD0EMARCBDgEMgQ9BEsENQAA +BDIEMARABDgEMAQ9BEIESwAA lookup 0 subtable" dieresis.cap
EndChar

StartChar: ring
Encoding: 730 730 132
Width: 300
Flags: W
HStem: 538 34<84.6019 147.998> 667 54<79.6078 153.479>
VStem: 13 206
LayerCount: 2
Fore
SplineSet
117 538 m 0
 48 538 20 540 13 627 c 0
 8.82956939063 678.832494716 16 721 118 721 c 0
 210 721 221.88444102 681.919938367 219 630 c 0
 214 540 182 538 117 538 c 0
115 572 m 0
 148 572 157 599 157 620 c 0
 157 641 158 667 114 667 c 4
 76 667 76 639 76 618 c 0
 76 601 85 572 115 572 c 0
EndSplineSet
Validated: 33
Substitution2: "'case' +BCAENQQzBDgEQQRCBEAEPgQ3BDAEMgQ4BEEEOAQ8BEsENQAA +BEQEPgRABDwESwAA lookup 4 subtable" ring.cap
Substitution2: "'aalt' +BBIEQQQ1 +BDAEOwRMBEIENQRABD0EMARCBDgEMgQ9BEsENQAA +BDIEMARABDgEMAQ9BEIESwAA lookup 0 subtable" ring.cap
EndChar

StartChar: cedilla
Encoding: 184 184 133
Width: 300
Flags: W
HStem: -204 60<80.7526 160.288>
VStem: 67 176
LayerCount: 2
Fore
SplineSet
131 5 m 5
 200 5 l 5
 176 -44 l 5
 216 -62 241.664027214 -75.5848436353 243 -117 c 4
 246 -210 202 -204 132 -204 c 4
 120 -204 86 -197 67 -187 c 5
 86 -131 l 5
 102 -139 117 -144 129 -144 c 4
 157 -144 164.169169492 -136.510511864 160 -119 c 4
 155 -98 131 -90 92 -82 c 5
 131 5 l 5
EndSplineSet
Validated: 524321
Substitution2: "'case' +BCAENQQzBDgEQQRCBEAEPgQ3BDAEMgQ4BEEEOAQ8BEsENQAA +BEQEPgRABDwESwAA lookup 4 subtable" cedilla.cap
Substitution2: "'aalt' +BBIEQQQ1 +BDAEOwRMBEIENQRABD0EMARCBDgEMgQ9BEsENQAA +BDIEMARABDgEMAQ9BEIESwAA lookup 0 subtable" cedilla.cap
EndChar

StartChar: hungarumlaut
Encoding: 733 733 134
Width: 300
Flags: W
HStem: 549 140
VStem: 49 315
LayerCount: 2
Fore
SplineSet
111 689 m 1
 206 679 l 1
 116 549 l 1
 49 569 l 1
 111 689 l 1
259 689 m 1
 364 679 l 5
 264 549 l 5
 187 559 l 1
 259 689 l 1
EndSplineSet
Validated: 1
Substitution2: "'case' +BCAENQQzBDgEQQRCBEAEPgQ3BDAEMgQ4BEEEOAQ8BEsENQAA +BEQEPgRABDwESwAA lookup 4 subtable" hungarumlaut.cap
Substitution2: "'aalt' +BBIEQQQ1 +BDAEOwRMBEIENQRABD0EMARCBDgEMgQ9BEsENQAA +BDIEMARABDgEMAQ9BEIESwAA lookup 0 subtable" hungarumlaut.cap
EndChar

StartChar: ogonek
Encoding: 731 731 135
Width: 300
Flags: W
HStem: -205 84<146.144 229.635>
VStem: 57 186
LayerCount: 2
Fore
SplineSet
94 5 m 5
 174 5 l 1
 140 -70 122.993959414 -121 188 -121 c 0
 205 -121 217 -118 227 -114 c 1
 243 -191 l 1
 221 -199 181 -205 155 -205 c 0
 65 -205 57 -177 57 -120 c 4
 57 -88 76 -29 94 5 c 5
EndSplineSet
Validated: 33
Substitution2: "'case' +BCAENQQzBDgEQQRCBEAEPgQ3BDAEMgQ4BEEEOAQ8BEsENQAA +BEQEPgRABDwESwAA lookup 4 subtable" ogonek.cap
Substitution2: "'aalt' +BBIEQQQ1 +BDAEOwRMBEIENQRABD0EMARCBDgEMgQ9BEsENQAA +BDIEMARABDgEMAQ9BEIESwAA lookup 0 subtable" ogonek.cap
EndChar

StartChar: caron
Encoding: 711 711 136
Width: 300
Flags: W
HStem: 543 149
VStem: 20 262
LayerCount: 2
Fore
SplineSet
196 543 m 1
 104 549 l 1
 20 683 l 1
 108 692 l 1
 148 617 l 1
 150 617 l 1
 191 689 l 1
 282 669 l 1
 196 543 l 1
EndSplineSet
Validated: 1
Substitution2: "'case' +BCAENQQzBDgEQQRCBEAEPgQ3BDAEMgQ4BEEEOAQ8BEsENQAA +BEQEPgRABDwESwAA lookup 4 subtable" caron.cap
Substitution2: "'aalt' +BBIEQQQ1 +BDAEOwRMBEIENQRABD0EMARCBDgEMgQ9BEsENQAA +BDIEMARABDgEMAQ9BEIESwAA lookup 0 subtable" caron.cap
EndChar

StartChar: emdash
Encoding: 8212 8212 137
Width: 1000
Flags: MW
HStem: 215 90<30 970 30 970>
VStem: 30 940<215 305 215 305>
LayerCount: 2
Fore
SplineSet
30 305 m 1
 970 305 l 1
 970 215 l 1
 30 215 l 1
 30 305 l 1
EndSplineSet
Validated: 1
Substitution2: "'case' +BCAENQQzBDgEQQRCBEAEPgQ3BDAEMgQ4BEEEOAQ8BEsENQAA +BEQEPgRABDwESwAA lookup 4 subtable" emdash.cap
Substitution2: "'aalt' +BBIEQQQ1 +BDAEOwRMBEIENQRABD0EMARCBDgEMgQ9BEsENQAA +BDIEMARABDgEMAQ9BEIESwAA lookup 0 subtable" emdash.cap
EndChar

StartChar: AE
Encoding: 198 198 138
Width: 595
Flags: W
HStem: 0 114<417 560> 184 102<191 280> 275 119<408 549> 566.392 107.432<122.543 164.597 263.056 266.055 389.092 402.377> 566.465 118.551<389.092 574.256>
VStem: 266.055 123.037<425.682 566.465>
LayerCount: 2
Fore
SplineSet
118 -20 m 1xc4
 -6 10 l 1
 164.596679688 564.991210938 l 1
 122.54296875 562.96484375 l 1
 115.392578125 673.823242188 l 1xd4
 574.255859375 685.015625 l 1
 577.036132812 571.048828125 l 1
 389.091796875 566.46484375 l 1
 396 394 l 1
 549 394 l 1
 550 275 l 5
 408 275 l 5xac
 417 114 l 1
 560 114 l 1
 560 0 l 1
 302 0 l 1
 290 184 l 1
 167 184 l 1
 118 -20 l 1xc4
191 286 m 1
 280 286 l 1
 266.0546875 566.46484375 l 1xcc
 263.055664062 566.391601562 l 1
 191 286 l 1
EndSplineSet
Validated: 1
Position2: "'cpsp' +BBgEPQRCBDUEQAQyBDAEOwAA +BD8EQAQ+BD8EOARBBD0ESwRF lookup 0 subtable" dx=10 dy=0 dh=20 dv=0
EndChar

StartChar: ordfeminine
Encoding: 170 170 139
Width: 302
Flags: W
HStem: 258 67<112.951 175.401> 415 57<119.759 182> 520 68<64.1345 176.166>
VStem: 31 78<328.025 402.213> 184 80<329.75 415 472 511.577> 192 72<263 296>
LayerCount: 2
Fore
SplineSet
268 263 m 1xf8
 197 263 l 1
 192 296 l 1
 190 296 l 1
 172 271 147 258 116 258 c 0
 68 258 31 296 31 354 c 0
 31 439 106 471 182 472 c 1
 182 480 l 2
 182 499 168 520 131 520 c 0
 103 520 83 512 67 501 c 1
 53 562 l 1
 79 578 113 588 146 588 c 0
 243 588 264 516 264 451 c 2xf4
 264 338 l 2
 264 313 265 286 268 263 c 1xf8
184 362 m 2xf8
 184 415 l 1
 150 415 109 404 109 363 c 0
 109 340 125 325 144 325 c 0
 156 325 170 331 178 345 c 0
 181 350 184 356 184 362 c 2xf8
EndSplineSet
Validated: 1
EndChar

StartChar: Lslash
Encoding: 321 321 140
Width: 382
Flags: W
HStem: -10 21G<60 364> 654 20G<60 191>
VStem: 60 131<101 232 436 664>
LayerCount: 2
Fore
SplineSet
364 0 m 1
 60 -10 l 1
 60 232 l 1
 11 196 l 1
 0 298 l 1
 60 345 l 1
 60 664 l 5
 191 674 l 1
 191 436 l 1
 285 508 l 1
 298 392 l 1
 191 315 l 1
 191 101 l 1
 359 111 l 1
 364 0 l 1
EndSplineSet
Validated: 1
Position2: "'cpsp' +BBgEPQRCBDUEQAQyBDAEOwAA +BD8EQAQ+BD8EOARBBD0ESwRF lookup 0 subtable" dx=10 dy=0 dh=20 dv=0
EndChar

StartChar: Oslash
Encoding: 216 216 141
Width: 481
Flags: W
HStem: -8 104<184.057 294.488> 568 114<170.596 286.877>
VStem: 25 133.173<272.921 550.44> 329.083 126.917<145.025 432.887>
LayerCount: 2
Fore
SplineSet
242 568 m 0
 156 568 149 557 156 337 c 0
 156.765312477 312.9468012 157.45794418 291.302184181 158.172911435 271.824067044 c 1
 286.877091161 565.269116561 l 1
 274.867690257 567.854975105 260.029118971 568 242 568 c 0
363.579101562 740.149414062 m 1
 456 713 l 1
 422.99539571 640.344636527 l 1
 460.531484469 597.321344142 459.369667271 512.428862659 456 349 c 0
 449.197322129 19.0701232477 428 -8 238 -8 c 0
 194.249880851 -8 159.789657298 -6.05653385974 132.553648436 0.974731318866 c 1
 112.698242188 -42.734375 l 1
 28.5927734375 -23.6181640625 l 1
 62.3430224572 53.3322777636 l 1
 35.7687501888 102.028772917 29.3104438171 188.134466401 25 339 c 0
 16 654 42 682 247 682 c 0
 282.17630552 682 311.59751592 680.865192512 336.178537408 677.676230035 c 1
 363.579101562 740.149414062 l 1
182.767329997 111.513650468 m 1
 194.839817817 97.7843670716 213.429054337 96.4050814474 243 96 c 0
 316 95 306.603664678 101.625847408 324 343 c 0
 326.559397146 378.511635402 328.299980073 408.419510994 329.082583144 433.607737882 c 1
 182.767329997 111.513650468 l 1
EndSplineSet
Validated: 524321
Position2: "'cpsp' +BBgEPQRCBDUEQAQyBDAEOwAA +BD8EQAQ+BD8EOARBBD0ESwRF lookup 0 subtable" dx=10 dy=0 dh=20 dv=0
EndChar

StartChar: OE
Encoding: 338 338 142
Width: 650
Flags: W
HStem: -8 114<220.495 313.497> 0 114<445 619> 296 109<445 599> 560 114<445 607> 568 114<222.962 313.71>
VStem: 25 136<188.101 484.594> 314 131<114 296 405 559.894>
LayerCount: 2
Fore
SplineSet
619 114 m 1x76
 619 0 l 1
 356 0 l 2x76
 342 0 328 -2 316 -4 c 0
 302 -6 288 -8 274 -8 c 0
 75 -8 25 165 25 337 c 0
 25 523 101 682 280 682 c 0xae
 296 682 311 680 324 678 c 0
 338 676 350 674 361 674 c 2
 607 674 l 1
 607 560 l 1
 445 560 l 1
 445 405 l 1
 599 405 l 1
 599 296 l 1
 445 296 l 1
 445 114 l 1
 619 114 l 1x76
314 114 m 1
 314 558 l 1
 304 564 291 568 272 568 c 0
 215 568 161 503 161 341 c 0
 160 174 209 106 275 106 c 0xae
 291 106 306 109 314 114 c 1
EndSplineSet
Validated: 33
Position2: "'cpsp' +BBgEPQRCBDUEQAQyBDAEOwAA +BD8EQAQ+BD8EOARBBD0ESwRF lookup 0 subtable" dx=10 dy=0 dh=20 dv=0
EndChar

StartChar: ordmasculine
Encoding: 186 186 143
Width: 311
Flags: W
HStem: 258 69<121.656 185.136> 499 89<120.763 186.369>
VStem: 30 83<330.744 495.491> 193 84<330.623 496.118>
LayerCount: 2
Fore
SplineSet
155 588 m 4
 254 588 277 524 277 425 c 0
 277 291 242 258 154 258 c 4
 52 258 30 319 30 422 c 0
 30 535 60 588 155 588 c 4
154 499 m 0
 120 499 113 478 113 423 c 4
 113 338 124 327 154 327 c 4
 188 327 193 356 193 423 c 4
 193 482 186 499 154 499 c 0
EndSplineSet
Validated: 1
EndChar

StartChar: ae
Encoding: 230 230 144
Width: 633
Flags: W
HStem: -8 98<142.999 237.932> -8 88<408.866 558.463> 204 95<369 485> 214 102<149.878 240> 386 111<380.516 477.653> 400 107<70.0387 221.455>
VStem: 19 117<94.1863 199.511> 242 127<120.302 204 316 376.112> 485 120<299 377.013>
LayerCount: 2
Fore
SplineSet
601 204 m 1x2b80
 369 204 l 1
 369 112 418 80 476 80 c 0x6b80
 498 80 531 83 556 90 c 1x8380
 574 9 l 1
 531 -5 496 -8 453 -8 c 0x4380
 348 -8 323 6 299 77 c 1
 296 77 l 1
 279 10 253 -8 154 -8 c 0
 41 -8 19 6 19 146 c 0
 19 301 131 315 240 316 c 1
 240 331 l 2
 240 369 214 400 164 400 c 0
 132 400 98 394 74 383 c 1
 50 479 l 1
 82 495 140 507 189 507 c 0x9780
 297 507 305 481 315 430 c 1
 317 430 l 1
 333 486 349 497 450 497 c 0
 571 497 605 489 605 266 c 0
 605 247 603 221 601 204 c 1x2b80
242 160 m 2
 242 214 l 1
 198 214 136 220 136 151 c 0
 136 89 163 90 186 90 c 0x9380
 236 90 242 96 242 160 c 2
369 299 m 1x2b80
 485 299 l 1
 485 385 471 386 432 386 c 0
 389 386 369 373 369 299 c 1x2b80
EndSplineSet
Validated: 33
EndChar

StartChar: dotlessi
Encoding: 305 305 145
Width: 223
Flags: W
HStem: -10 21G<45.6071 177> 479 20G<36 177>
VStem: 36 141<142.7 499> 46 131<-10 346.3>
LayerCount: 2
Fore
SplineSet
177 -10 m 5xd0
 46 -10 l 5xd0
 36 499 l 1
 177 499 l 1xe0
 177 -10 l 5xd0
EndSplineSet
Validated: 1
EndChar

StartChar: lslash
Encoding: 322 322 146
Width: 227
Flags: W
HStem: 0 21G<48 179> 477 20G<196.571 223.093>
VStem: 48 131<0 275 462 577>
LayerCount: 2
Fore
SplineSet
179 0 m 1
 48 0 l 1
 48 275 l 1
 7 241 l 1
 -7 337 l 1
 48 384 l 1
 48 577 l 1
 9 583 l 5
 19 704 l 5
 179 692 l 1
 179 462 l 1
 220 497 l 1
 235 400 l 1
 179 353 l 1
 179 0 l 1
EndSplineSet
Validated: 1
EndChar

StartChar: oslash
Encoding: 248 248 147
Width: 431
Flags: W
HStem: -8 100<181.166 259.649> 398 99<160.216 252.878>
VStem: 29 114<185.535 379.715> 274 124<98.4583 303>
LayerCount: 2
Fore
SplineSet
217 497 m 0
 250 497 279 489 305 473 c 1
 338 530 l 1
 404 509 l 1
 355 426 l 1
 384 402 402 381 398 249 c 4
 390.541015625 2.8671875 372 -8 217 -8 c 0
 183 -8 152 0 126 16 c 1
 94 -41 l 1
 27 -14 l 1
 76 62 l 1
 44 89 28 127 29 243 c 0
 30.9826849492 472.991454103 52 497 217 497 c 0
158 182 m 1
 255 373 l 1
 248 389 236 398 216 398 c 0
 158 398 143 387 143 246 c 0
 143 227 151 206 154 184 c 1
 158 182 l 1
273 300 m 1
 179 117 l 1
 186 101 198 92 217 92 c 0
 266 92 267.733742793 95.142341451 274 233 c 4
 275 255 275 281 276 303 c 5
 273 300 l 1
EndSplineSet
Validated: 524321
EndChar

StartChar: oe
Encoding: 339 339 148
Width: 665
Flags: W
HStem: -8 100<184.5 253.711 439.134 603.338> 203 85<404 519> 398 99<184.042 251.991 427.423 503.397>
VStem: 29 130<117.75 373.583> 276 126<130.965 203 288 370.638> 519 120<288 383.385>
LayerCount: 2
Fore
SplineSet
636 203 m 1
 402 203 l 1
 407 119 453 92 507 92 c 0
 546 92 577 100 601 108 c 1
 618 19 l 1
 579 -3 531 -8 489 -8 c 0
 427 -8 371 14 340 75 c 1
 338 75 l 1
 310 17 253 -8 205 -8 c 0
 101 -8 29 83 29 243 c 0
 29 418 121 497 216 497 c 0
 267 497 316 474 342 415 c 1
 344 415 l 1
 377 469 423 497 481 497 c 0
 579 497 639 410 639 266 c 0
 639 235 637 214 636 203 c 1
218 398 m 0
 167 398 159 309 159 244 c 0
 159 161 173 92 218 92 c 0
 268 92 276 169 276 247 c 0
 276 316 266 398 218 398 c 0
404 288 m 1
 519 288 l 1
 520 351 505 400 468 400 c 0
 423 400 405 339 404 288 c 1
EndSplineSet
Validated: 33
EndChar

StartChar: germandbls
Encoding: 223 223 149
Width: 493
Flags: W
HStem: -8 111<237.745 340.059>
VStem: 46 131<-20 588.178> 245 125<325.663 426.013> 319 124<467.779 583.342> 347 124<114.731 214.794>
LayerCount: 2
Fore
SplineSet
177 -20 m 1xd0
 46 -20 l 1
 46 432 l 2
 46 700 70.2016783976 708.820838243 263 700 c 4
 416 693 443 684 443 530 c 0xd0
 443 454.837674412 370 438.4134017 370 385 c 0xe0
 370 311.430974425 471 269 471 157 c 0
 471 1.06581410364e-014 436 -8 239 -8 c 1
 232 23 230 85 230 103 c 1
 325 110 347 103 347 156 c 0xc8
 347 228.108398438 245 280.223049185 245 363 c 0xe0
 245 440.355030537 319 451.567735076 319 525 c 0
 319 567 318 591 256 595 c 0
 190.136929608 599.249230348 177 624 177 443 c 6
 177 -20 l 1xd0
EndSplineSet
Validated: 33
EndChar

StartChar: onesuperior
Encoding: 185 185 150
Width: 239
Flags: W
HStem: 413 21G<88 182.508> 680 21G<31.25 86.5>
VStem: 88 94<417 617.9> 98 94<531.2 704>
LayerCount: 2
Fore
SplineSet
182 413 m 5xe0
 88 417 l 1xe0
 98 704 l 1
 96 704 l 1
 39 680 l 1
 8 760 l 1
 108 807 l 1
 192 807 l 1xd0
 182 413 l 5xe0
EndSplineSet
Validated: 1
EndChar

StartChar: logicalnot
Encoding: 172 172 151
Width: 596
Flags: W
HStem: 319 102<45 344.6> 329 102<194.8 473>
VStem: 462 83<111 249.727> 473 83<224.182 329>
LayerCount: 2
Fore
SplineSet
40 421 m 1x90
 556 431 l 1x50
 545 106 l 1
 462 111 l 5x60
 473 329 l 1x50
 45 319 l 1
 40 421 l 1x90
EndSplineSet
Validated: 1
EndChar

StartChar: mu
Encoding: 181 181 152
Width: 455
Flags: W
HStem: -192 21G<56.5 182> -1 98<182.975 272.011> 469 20G<276 407>
VStem: 45 132<-170.531 12 100.962 499> 276 131<115.55 479>
LayerCount: 2
Fore
SplineSet
303 49 m 1
 300 49 l 1
 286 6 258 0 225 -1 c 0
 217.932176542 -1.21417646844 184 0 171 12 c 1
 171 -17 l 2
 171 -88 176 -141 182 -172 c 1
 61 -192 l 1
 52 -167 45 -103 45 0 c 2
 45 499 l 1
 177 509 l 1
 177 160 l 2
 177 105 193 97 223 97 c 4
 274 97 276 115.954101562 276 157 c 2
 276 489 l 1
 407 479 l 5
 407 162 l 2
 407 121 428 112 452 107 c 1
 429 -2 l 1
 380 0 337 16 303 49 c 1
EndSplineSet
Validated: 33
EndChar

StartChar: trademark
Encoding: 8482 8482 153
Width: 539
Flags: W
HStem: 415 21G<223 291.875> 600 74<25 81 158 215 448 451>
VStem: 81 77<401 600> 341 70<446 474.568> 451 63<518.5 597> 456 70<411 561.5>
LayerCount: 2
Fore
SplineSet
25 674 m 1xf0
 215 674 l 1
 215 600 l 5
 158 600 l 5
 158 401 l 1
 81 401 l 1
 81 600 l 5
 25 600 l 5
 25 674 l 1xf0
526 411 m 1xf4
 456 405 l 1xf4
 451 597 l 1
 448 597 l 1
 411 446 l 1
 341 446 l 1
 311 607 l 1
 308 607 l 1
 290 415 l 1
 223 421 l 1
 246 669 l 1
 351 674 l 1
 375 541 l 1
 376 541 l 1
 404 674 l 1
 514 669 l 1xf8
 526 411 l 1xf4
EndSplineSet
Validated: 1
EndChar

StartChar: Eth
Encoding: 208 208 154
Width: 493
Flags: W
HStem: -6 97<192.592 309.97> 293 110<191 265> 293 101<10 61> 562 115<192.138 316.805>
VStem: 61 130<91.3865 293 403 560.997> 333 135<112.195 545.359>
LayerCount: 2
Fore
SplineSet
10 293 m 1xbc
 10 394 l 1
 61 397 l 1
 61 664 l 1
 93 672 212 677 264 677 c 0
 466.796875 677 468 671 468 345 c 4
 468 8 469 -6 239 -6 c 4
 197 -6 86 -2 61 2 c 1
 61 293 l 1
 10 293 l 1xbc
265 404 m 5
 267 293 l 1xbc
 191 293 l 1
 191 93 l 1
 198 91 238 91 245 91 c 0
 327 91 333 97 333 350 c 0
 333 562 327 562 247 562 c 0
 237 562 199 561 191 559 c 1
 191 403 l 5xdc
 265 404 l 5
EndSplineSet
Validated: 524321
Position2: "'cpsp' +BBgEPQRCBDUEQAQyBDAEOwAA +BD8EQAQ+BD8EOARBBD0ESwRF lookup 0 subtable" dx=10 dy=0 dh=20 dv=0
EndChar

StartChar: onehalf
Encoding: 189 189 155
Width: 667
Flags: W
HStem: -8 21G<90 169.61> 0 80<502 629> 263 21G<96 190> 316 79<408.957 516.66> 638 20G<428.36 507>
VStem: 96 94<263 570> 524 101<204.108 308.175>
LayerCount: 2
Fore
SplineSet
190 263 m 1x3e
 96 263 l 1
 96 570 l 1
 94 570 l 1
 34 540 l 1
 6 626 l 1
 106 673 l 1
 190 663 l 1
 190 263 l 1x3e
159 -8 m 1xbe
 90 2 l 5
 439 658 l 1
 507 648 l 1
 159 -8 l 1xbe
385 0 m 1x7e
 385 53 l 1
 432 110 l 2
 483 173 524 218 524 263 c 0
 524 301 503 316 474 316 c 0
 449 316 426 305 410 293 c 1
 390 362 l 1
 411 380 451 395 499 395 c 0
 595 395 625 335 625 282 c 0
 625 209 570 153 520 102 c 2
 502 83 l 1
 502 80 l 1
 629 80 l 1
 629 0 l 1
 385 0 l 1x7e
EndSplineSet
Validated: 1
LCarets2: 2 0 0
Ligature2: "'frac' Diagonal Fractions lookup 9 subtable" one.numerator slash.frac two.numerator
Ligature2: "'frac' Diagonal Fractions lookup 9 subtable" one.numerator uni2215 two.numerator
Ligature2: "'frac' Diagonal Fractions lookup 9 subtable" one.numerator fraction two.numerator
EndChar

StartChar: plusminus
Encoding: 177 177 156
Width: 596
Flags: W
HStem: 0 82<60 536> 303.032 81.9473<41.7383 223.852> 321.526 81.9473<362.23 554.468>
VStem: 218.491 103.933<137.986 309.563> 226.364 103.934<395.434 565.008>
LayerCount: 2
Fore
SplineSet
231.6640625 565.0078125 m 5xc8
 335.59765625 568.735351562 l 5
 330.297851562 395.43359375 l 5xc8
 554.467773438 403.473632812 l 5
 557.407226562 321.526367188 l 5
 327.78515625 313.291015625 l 5
 322.423828125 137.986328125 l 5
 218.491210938 134.258789062 l 5xb0
 223.8515625 309.563476562 l 5
 41.73828125 303.032226562 l 5
 38.798828125 384.979492188 l 5
 226.364257812 391.706054688 l 5
 231.6640625 565.0078125 l 5xc8
60 82 m 1
 536 82 l 1
 536 0 l 1
 60 0 l 1
 60 82 l 1
EndSplineSet
Validated: 1
EndChar

StartChar: Thorn
Encoding: 222 222 157
Width: 453
Flags: W
HStem: -5 21G<58 186> 139 88<186 291.977> 454 106<186 292.568> 659 20G<53 186>
VStem: 58 128<0 143 228.058 452.828 558 674> 305 128<238.706 441.333>
LayerCount: 2
Fore
SplineSet
58 0 m 1
 53 674 l 5
 186 679 l 1
 186 558 l 1
 198 560 242 560 258 560 c 0
 364.442238719 560 432.132740565 559.000632298 433 363 c 0
 434 137 345 139 253 139 c 0
 238 139 195 141 186 143 c 1
 186 -5 l 1
 58 0 l 1
186 451 m 1
 186 230 l 1
 195 228 234 227 245 227 c 0
 303 227 305 272 305 333 c 0
 305 390 312 454 250 454 c 0
 237 454 196 453 186 451 c 1
EndSplineSet
Validated: 33
Position2: "'cpsp' +BBgEPQRCBDUEQAQyBDAEOwAA +BD8EQAQ+BD8EOARBBD0ESwRF lookup 0 subtable" dx=10 dy=0 dh=20 dv=0
EndChar

StartChar: onequarter
Encoding: 188 188 158
Width: 667
Flags: W
HStem: 0 21G<507 591> 89 69<436 507 591 633> 263 21G<106 201> 633 20G<75.4314 201>
VStem: 106 95<263 550> 507 84<0 89 158 294.199>
LayerCount: 2
Fore
SplineSet
201 263 m 1
 106 263 l 1
 106 550 l 1
 104 550 l 1
 46 523 l 1
 11 602 l 1
 117 653 l 1
 201 643 l 1
 201 263 l 1
185 -18 m 5
 117 -8 l 1
 466 668 l 1
 534 658 l 1
 185 -18 l 5
591 0 m 1
 507 0 l 1
 507 89 l 1
 359 89 l 1
 359 149 l 1
 499 391 l 1
 591 391 l 1
 591 158 l 1
 633 158 l 1
 633 89 l 1
 591 89 l 1
 591 0 l 1
507 158 m 1
 507 229 l 2
 507 255 508 278 510 295 c 1
 508 295 l 1
 498 276 493 261 483 243 c 2
 436 160 l 1
 436 158 l 1
 507 158 l 1
EndSplineSet
Validated: 1
LCarets2: 2 0 0
Ligature2: "'frac' Diagonal Fractions lookup 9 subtable" one.numerator slash.frac four.numerator
Ligature2: "'frac' Diagonal Fractions lookup 9 subtable" one.numerator uni2215 four.numerator
Ligature2: "'frac' Diagonal Fractions lookup 9 subtable" one.numerator fraction four.numerator
EndChar

StartChar: divide
Encoding: 247 247 159
Width: 596
Flags: W
HStem: 40 120<238 354> 216 112<40 220.6> 226 82<375.4 556> 385 127<234 360>
VStem: 234 126<388 512> 238 116<40 159>
LayerCount: 2
Fore
SplineSet
234 385 m 4x98
 228 512 l 4
 362 516 l 4
 360 388 l 4
 234 385 l 4x98
556 226 m 1xb0
 40 216 l 1
 40 328 l 1xd0
 556 308 l 1
 556 226 l 1xb0
238 33 m 0x94
 232 159 l 0
 354 160 l 0
 354 40 l 0
 238 33 l 0x94
EndSplineSet
Validated: 1
EndChar

StartChar: brokenbar
Encoding: 166 166 160
Width: 218
Flags: W
HStem: 654 20G<60.4286 168>
VStem: 51 107<-176 69 324 569> 61 107<-71 174 429 674>
LayerCount: 2
Fore
SplineSet
61 174 m 1xa0
 168 174 l 1xa0
 158 -176 l 5
 51 -176 l 5xc0
 61 174 l 1xa0
61 674 m 1
 168 674 l 1xa0
 158 324 l 1
 51 324 l 1xc0
 61 674 l 1
EndSplineSet
Validated: 1
EndChar

StartChar: degree
Encoding: 176 176 161
Width: 287
Flags: W
HStem: 440 51<97.7106 196.292> 611 71<91.1406 205.063>
VStem: 26 59<502.565 606.932> 209 58<503.471 606.058>
LayerCount: 2
Fore
SplineSet
147 682 m 4
 262 682 267 627 267 563 c 0
 267 446 200 440 145 440 c 0
 32 440 26 490 26 557 c 0
 26 660 62 682 147 682 c 4
147 611 m 4
 114 611 85 614 85 558 c 0
 85 521 98 491 147 491 c 0
 181 491 209 506 209 559 c 0
 209 595 206 611 147 611 c 4
EndSplineSet
Validated: 33
EndChar

StartChar: thorn
Encoding: 254 254 162
Width: 447
Flags: W
HStem: -8 107<181.197 275.705> 15 84<181.054 211.282> 377 120<186.371 324> 672 20G<45 175>
VStem: 45 131<-212 15 103.406 372.479 460 692> 287 131<104.907 363.46>
LayerCount: 2
Fore
SplineSet
45 692 m 1x7c
 175 692 l 1
 175 460 l 1
 177 460 l 1
 197 503 230 497 274 497 c 0
 374 497 418 493 418 245 c 0
 418 -10 341 -8 268 -8 c 0xbc
 220 -8 191 -12 178 15 c 1
 176 15 l 1
 176 -212 l 5
 45 -212 l 5
 45 692 l 1x7c
176 331 m 2
 176 150 l 2
 176 107.21484375 196.427462302 99 224 99 c 0
 271 99 287 92 287 234 c 0
 287 378 265 377 227 377 c 0
 195.408203125 377 176 367.38671875 176 331 c 2
EndSplineSet
Validated: 524321
EndChar

StartChar: threequarters
Encoding: 190 190 163
Width: 667
Flags: W
HStem: 0 21G<512 597> 89 69<442 512 597 639> 258 71<37.5498 154.286> 439 62<80 150.566> 587 71<52.3103 155.345>
VStem: 160 93<512.857 582.368> 166 98<341.192 424.277> 512 85<0 89 158 294.199>
LayerCount: 2
Fore
SplineSet
56 569 m 1xfd
 41 635 l 1
 64 647 99 658 136 658 c 0
 220 658 253 609 253 563 c 0xfd
 253 519 228 489 188 472 c 1
 188 470 l 1
 230 462 264 425 264 379 c 0
 264 309 206 258 112 258 c 0
 74 258 45 266 27 277 c 1
 41 346 l 1
 58 337 81 329 107 329 c 0
 140 329 166 351 166 382 c 0xfb
 166 419 134 439 92 439 c 2
 80 439 l 1
 80 501 l 1
 87 501 l 2
 120 501 160 513 160 546 c 0
 160 572 142 587 115 587 c 0
 92 587 74 580 56 569 c 1xfd
202 -18 m 5
 133 -8 l 1
 482 668 l 1
 550 658 l 1
 202 -18 l 5
597 0 m 1
 512 0 l 1
 512 89 l 1
 365 89 l 1
 365 149 l 1
 505 391 l 1
 597 391 l 1
 597 158 l 1
 639 158 l 1
 639 89 l 1
 597 89 l 1
 597 0 l 1
512 158 m 1
 512 229 l 2
 512 255 514 278 516 295 c 1
 514 295 l 1
 504 276 499 261 489 243 c 2
 442 160 l 1
 442 158 l 1
 512 158 l 1
EndSplineSet
Validated: 1
LCarets2: 2 0 0
Ligature2: "'frac' Diagonal Fractions lookup 9 subtable" three.numerator slash.frac four.numerator
Ligature2: "'frac' Diagonal Fractions lookup 9 subtable" three.numerator uni2215 four.numerator
Ligature2: "'frac' Diagonal Fractions lookup 9 subtable" three.numerator fraction four.numerator
EndChar

StartChar: twosuperior
Encoding: 178 178 164
Width: 274
Flags: W
HStem: 733 79<28.2081 143.657>
VStem: 146 101<621.247 729.586>
LayerCount: 2
Fore
SplineSet
8 427 m 1
 8 480 l 1
 54 527 l 2
 106 590 146 635 146 680 c 0
 146 718 146 733 96 733 c 0
 72 733 54 727 32 720 c 1
 13 789 l 1
 45 804 73 812 121 812 c 0
 248 812 247 752 247 699 c 0
 247 626 191 571 142 519 c 2
 125 500 l 1
 125 497 l 1
 241 487 l 1
 231 407 l 1
 8 427 l 1
EndSplineSet
Validated: 33
EndChar

StartChar: registered
Encoding: 174 174 165
Width: 374
Flags: W
HStem: 361 39<124.7 247.697> 499 31<169 208.653> 566 33<169.432 207.399> 642 40<124.7 249.511>
VStem: 27 47<448.599 592.554> 123 46<530 565> 209 47<530.112 565.562> 222 43<446.372 496.63> 300 47<448.703 592.659>
LayerCount: 2
Fore
SplineSet
167 499 m 1xfd80
 170 446 l 1
 129 444 l 1
 123 593 l 1
 132 595 167.021425936 597.885439459 196 599 c 0
 248 601 256 590.757920159 256 554 c 0xfe80
 256 527 254 522 233 521 c 1
 233 519 l 1
 253 512 256 509 265 448 c 5
 222 438 l 5
 212 496 211.041183594 499 182 499 c 2
 167 499 l 1xfd80
169 565 m 2
 169 530 l 1
 192 530 l 2
 208 530 209 537 209 548 c 0
 209 560 210 566 194 566 c 0
 188 566 172 565 169 565 c 2
187 682 m 0
 277 682 347 610 347 522 c 0
 347 433 277 361 187 361 c 0
 98 361 27 433 27 522 c 0
 27 610 98 682 187 682 c 0
187 642 m 0
 122 642 74 589 74 521 c 0
 74 454 122 400 187 400 c 0
 252 400 300 454 300 522 c 0
 300 589 252 642 187 642 c 0
EndSplineSet
Validated: 524321
EndChar

StartChar: minus
Encoding: 8722 8722 166
Width: 596
Flags: W
HStem: 221 92<40 556>
LayerCount: 2
Fore
SplineSet
40 313 m 5
 556 308 l 1
 556 226 l 1
 40 221 l 5
 40 313 l 5
EndSplineSet
Validated: 1
EndChar

StartChar: eth
Encoding: 240 240 167
Width: 431
Flags: W
HStem: -8 100<185.201 249.418> 400 85<184.945 236.344>
VStem: 29 130<119.257 368.315> 272 131<118.92 382.816>
LayerCount: 2
Fore
SplineSet
217 92 m 0
 263 92 272 168 272 241 c 0
 272 286 272 326 263 356 c 0
 256 381 243 400 218 400 c 0
 168 400 159 303 159 246 c 0
 159 161 175 92 217 92 c 0
84 504 m 1
 56 547 l 1
 138 590 l 1
 122 606 99 624 76 641 c 1
 151 708 l 1
 177 691 207 668 237 641 c 1
 329 690 l 1
 357 644 l 1
 276 603 l 1
 310 568 337 524 361 478 c 0
 393 414 403 341 403 260 c 0
 403 43 291 -8 213 -8 c 0
 97 -8 29 85 29 243 c 0
 29 410 121 485 200 485 c 0
 213 485 224 482 236 475 c 1
 238 480 l 1
 224 507 203 536 182 555 c 1
 84 504 l 1
EndSplineSet
Validated: 1
EndChar

StartChar: multiply
Encoding: 215 215 168
Width: 596
Flags: W
HStem: 0 21G<78.8451 117.608 477.49 516.344>
LayerCount: 2
Fore
SplineSet
50 456 m 5
 106 516 l 5
 288 331 l 1
 490 536 l 1
 556 466 l 1
 356 263 l 1
 556 61 l 1
 497 0 l 1
 298 204 l 1
 98 0 l 1
 30 71 l 1
 229 273 l 1
 50 456 l 5
EndSplineSet
Validated: 1
EndChar

StartChar: threesuperior
Encoding: 179 179 169
Width: 260
Flags: W
HStem: 412 71<41.214 140.599> 479 20G<40.1176 54.5> 583 72<59 135.236> 741 71<30.7567 139.239>
VStem: 140 92<661.464 740.644> 145 98<485.995 578.823>
LayerCount: 2
Fore
SplineSet
35 723 m 5xb8
 14 785 l 1
 36 797 98 812 135 812 c 0
 219 812 232 795 232 717 c 0xb8
 232 673 224 648 177 626 c 1
 177 624 l 1
 234 613 243 593 243 533 c 0
 243 428 205 412 111 412 c 0xb4
 74 412 45 420 26 431 c 1
 46 499 l 5x74
 63 490 80 483 107 483 c 0
 140 483 145 505 145 536 c 0xb4
 145 573 133 583 91 583 c 2
 59 583 l 1
 59 655 l 1
 87 655 l 2
 119 655 140 667 140 700 c 0
 140 726 141 741 114 741 c 0
 91 741 57 734 35 723 c 5xb8
EndSplineSet
Validated: 33
EndChar

StartChar: copyright
Encoding: 169 169 170
Width: 677
Flags: W
HStem: 30 56<242.015 432.752> 153 69<265.252 447.596> 223 20G<436 451.839> 417 21G<441.5 455.06> 441 79<270.11 450.761> 592 56<242.015 432.752>
VStem: 31 65<233.929 440.99> 169 71<247.233 412.221> 581 65<233.929 440.99>
LayerCount: 2
Fore
SplineSet
340 648 m 0
 511 648 646 510 646 340 c 0
 646 168 511 30 340 30 c 0
 168 30 31 168 31 340 c 0
 31 510 168 648 340 648 c 0
339 592 m 0
 203 592 96 479 96 339 c 0
 96 199 203 86 339 86 c 0
 474 86 581 199 581 339 c 0
 581 479 474 592 339 592 c 0
474 484 m 1
 447 417 l 5
 436 428 411 441 366 441 c 0
 290 441 240 437 240 321 c 0
 240 226 289 222 362 222 c 0
 389 222 425 232 447 243 c 1
 462 181 l 1
 427 162 401 153 351 153 c 0
 237 153 169 208 169 334 c 0
 169 485 254 520 369 520 c 0
 414 520 457 504 474 484 c 1
EndSplineSet
Validated: 1
EndChar

StartChar: Ccedilla
Encoding: 199 199 177
Width: 402
Flags: W
HStem: -204 60<170.753 250.288>
VStem: 25 139<140.952 525.088>
LayerCount: 2
Fore
SplineSet
358 120 m 1
 371 10 l 1
 286.608198284 -1.92492850334 l 1
 266 -44 l 1
 306 -62 331.6640625 -75.5849609375 333 -117 c 0
 336 -210 292 -204 222 -204 c 0
 210 -204 176 -197 157 -187 c 1
 176 -131 l 1
 192 -139 207 -144 219 -144 c 0
 247 -144 254.168945312 -136.510742188 250 -119 c 0
 245 -98 221 -90 182 -82 c 1
 214.557258267 -9.37227002057 l 1
 86.8463767693 -14.3181477197 34.5328461897 46.2143485929 25 327 c 0
 12.9124887232 683.032150334 101.902528495 697.93999738 297 680 c 2
 384 672 l 1
 371 548 l 1
 305 555 l 2
 188.932209783 567.310220175 156 563 164 334 c 0
 171.471424788 120.130465443 177 91 295 110 c 2
 358 120 l 1
EndSplineSet
Validated: 524321
Position2: "'cpsp' +BBgEPQRCBDUEQAQyBDAEOwAA +BD8EQAQ+BD8EOARBBD0ESwRF lookup 0 subtable" dx=10 dy=0 dh=20 dv=0
EndChar

StartChar: Igrave
Encoding: 204 204 185
Width: 248
Flags: HW
HStem: 0 21G<47.7738 179.075>
VStem: 47.9244 131<0 664>
LayerCount: 2
Fore
SplineSet
-40.0751953125 823 m 1
 91.9248046875 823 l 1
 174.924804688 710 l 1
 81.9248046875 710 l 1
 -40.0751953125 823 l 1
EndSplineSet
Refer: 42 73 N 1 0 0 1 0 0 2
Position2: "'cpsp' +BBgEPQRCBDUEQAQyBDAEOwAA +BD8EQAQ+BD8EOARBBD0ESwRF lookup 0 subtable" dx=10 dy=0 dh=20 dv=0
EndChar

StartChar: Ograve
Encoding: 210 210 190
Width: 481
Flags: HW
HStem: -8 104<162.787 281.639> 558 124<149.221 291.395>
VStem: 5 131<120.323 542.437> 304 132<120.003 547.751>
LayerCount: 2
Fore
SplineSet
70 823 m 1
 202 823 l 1
 285 710 l 1
 192 710 l 1
 70 823 l 1
EndSplineSet
Refer: 48 79 S 1 0 0 1 0 0 2
Position2: "'cpsp' +BBgEPQRCBDUEQAQyBDAEOwAA +BD8EQAQ+BD8EOARBBD0ESwRF lookup 0 subtable" dx=10 dy=0 dh=20 dv=0
EndChar

StartChar: Scaron
Encoding: 352 352 192
Width: 394
Flags: W
HStem: -6 114<51.0389 222.923> 566 114<182.736 332.876>
VStem: 32 129<442.92 545.343> 246 130<132.14 241.364>
LayerCount: 2
Fore
SplineSet
24 21 m 1
 43 134 l 1
 70 119 116 108 154 108 c 0
 216 108 246 140 246 184 c 0
 246 233 216 257 159 294 c 0
 67 350 32 421 32 482 c 0
 32 590 104 680 245 680 c 0
 289 680 331 668 351 656 c 1
 330 543 l 1
 311 555 282 566 244 566 c 0
 188 566 161 532 161 496 c 0
 161 456 181 435 254 391 c 0
 343 337 376 269 376 198 c 0
 376 75 285 -6 153 -6 c 0
 99 -6 46 8 24 21 c 1
261 710 m 1
 159 710 l 1
 75 820 l 1
 170 820 l 1
 209 767 l 1
 211 767 l 1
 250 820 l 1
 342 820 l 1
 261 710 l 1
EndSplineSet
Validated: 1
Position2: "'cpsp' +BBgEPQRCBDUEQAQyBDAEOwAA +BD8EQAQ+BD8EOARBBD0ESwRF lookup 0 subtable" dx=10 dy=0 dh=20 dv=0
EndChar

StartChar: Ugrave
Encoding: 217 217 196
Width: 500
Flags: HW
HStem: -8 105<177.9 283.686> 664 20G<294 425>
VStem: 34 131<106.375 664> 294 131<109.01 684>
LayerCount: 2
Fore
SplineSet
81 823 m 1
 214 823 l 1
 297 710 l 1
 204 710 l 1
 81 823 l 1
EndSplineSet
Refer: 54 85 N 1 0 0 1 0 0 2
Position2: "'cpsp' +BBgEPQRCBDUEQAQyBDAEOwAA +BD8EQAQ+BD8EOARBBD0ESwRF lookup 0 subtable" dx=10 dy=0 dh=20 dv=0
EndChar

StartChar: Zcaron
Encoding: 381 381 199
Width: 387
Flags: W
HStem: 0 114<168 371> 560 114<31 224>
LayerCount: 2
Fore
SplineSet
11 0 m 1
 11 77 l 1
 224 557 l 1
 224 560 l 1
 31 560 l 1
 31 674 l 1
 372 674 l 1
 372 577 l 1
 168 117 l 1
 168 114 l 1
 371 114 l 1
 371 0 l 1
 11 0 l 1
255 710 m 1
 152 710 l 1
 68 820 l 1
 164 820 l 1
 203 767 l 1
 205 767 l 1
 243 820 l 1
 336 820 l 1
 255 710 l 1
EndSplineSet
Validated: 1
Position2: "'cpsp' +BBgEPQRCBDUEQAQyBDAEOwAA +BD8EQAQ+BD8EOARBBD0ESwRF lookup 0 subtable" dx=10 dy=0 dh=20 dv=0
EndChar

StartChar: agrave
Encoding: 224 224 203
Width: 422
Flags: W
HStem: -8 28.4437G<91.4912 182.5 263 285.5> 233.281 83.3694<164.469 243> 397.077 106.909<75.7739 232.689>
VStem: 19 124<89.4888 215.032> 247 128<94.5787 233.281 316.65 385.27>
LayerCount: 2
Fore
SplineSet
78 689 m 1
 193 689 l 1
 261 549 l 1
 179 549 l 1
 78 689 l 1
EndSplineSet
Refer: 66 97 N 1 0 0 0.980817 0 -0.153467 2
Validated: 1
EndChar

StartChar: aring
Encoding: 229 229 204
Width: 422
Flags: W
HStem: -8 28.277G<91.4912 182.5 263 285.5> 231.867 82.8809<164.469 243> 394.704 106.283<75.7739 232.689> 538 44<177.743 247.044> 677 44<177.788 248.203>
VStem: 19 124<88.9176 213.725> 109 63<586.401 672.595> 247 128<93.9776 231.867 314.748 382.966> 253 62<587.29 672.402>
LayerCount: 2
Fore
SplineSet
213 538 m 0xfa80
 144 538 109 578 109 627 c 0
 109 679 143 721 214 721 c 0
 281 721 315 682 315 630 c 0
 315 579 278 538 213 538 c 0xfa80
211 582 m 0
 244 582 253 609 253 630 c 0
 253 651 245 677 210 677 c 0
 181 677 172 649 172 628 c 0
 172 611 181 582 211 582 c 0
EndSplineSet
Refer: 66 97 S 1 0 0 0.97507 0 -0.199443 2
Validated: 1
EndChar

StartChar: atilde
Encoding: 227 227 205
Width: 422
Flags: W
HStem: -8 28.2215G<91.4912 182.5 263 285.5> 231.396 82.7181<164.469 243> 393.913 106.074<75.7739 232.689> 564 77<205.585 273.478> 597 78<151.493 220.376>
VStem: 19 124<88.7271 213.289> 88 60<557 594.78> 247 128<93.7772 231.396 314.114 382.198> 275 58<643.823 678>
LayerCount: 2
Fore
SplineSet
148 557 m 1xea80
 88 557 l 1
 88 622 111 675 159 675 c 0xea80
 184 675 201 665 217 657 c 0
 229 649 241 641 254 641 c 0
 267 641 275 646 275 678 c 1
 333 678 l 1
 333 598 306 564 263 564 c 0xf280
 244 564 225 573 210 580 c 0
 194 588 185 597 171 597 c 0
 159 597 149 583 148 557 c 1xea80
EndSplineSet
Refer: 66 97 S 1 0 0 0.973154 0 -0.214768 2
Validated: 1
EndChar

StartChar: ccedilla
Encoding: 231 231 206
Width: 323
Flags: W
HStem: -204 60<120.753 200.288> -5.99925 96.9992<234.613 306.133> 389 107<182.725 313.843>
VStem: 31 128<118.214 360.654>
LayerCount: 2
Fore
SplineSet
306 96 m 1
 312 1 l 1
 294.201227205 -3.94410355418 252.936060854 -5.95490791383 234.61261286 -5.99924874381 c 1
 216 -44 l 1
 256 -62 281.6640625 -75.5849609375 283 -117 c 0
 286 -210 242 -204 172 -204 c 0
 160 -204 126 -197 107 -187 c 1
 126 -131 l 1
 142 -139 157 -144 169 -144 c 0
 197 -144 204.168945312 -136.510742188 200 -119 c 0
 195 -98 171 -90 132 -82 c 1
 167.100269087 -3.69939972903 l 1
 59.70261381 5.95154099525 38.024045398 51.9011936986 31 240 c 0
 22 481 70 496 253 496 c 0
 268 496 304 493 325 488 c 1
 313 383 l 1
 299 387 273 389 259 389 c 0
 196 389 154 388 159 244 c 0
 163.823482091 105.083715784 178 91 257 91 c 0
 266 91 294 92 306 96 c 1
EndSplineSet
Validated: 524321
EndChar

StartChar: eacute
Encoding: 233 233 207
Width: 419
Flags: W
HStem: -6 100<187.859 354.586> 198 92<156 272> 402 95<180.064 253.485> 569 140
VStem: 29 126<127.8 198 290 362.775> 168 203 272 119<290 384.639>
LayerCount: 2
Fore
SplineSet
387 198 m 1xfa
 155 198 l 1
 157 122 201 94 259 94 c 0
 296 94 329 102 352 110 c 1
 370 16 l 1
 336 3 285 -6 235 -6 c 0
 102 -6 29 82 29 235 c 0
 29 399 114 497 225 497 c 0
 330 497 391 414 391 266 c 0
 391 231 390 212 387 198 c 1xfa
156 290 m 1
 272 290 l 1
 272 353 256 402 217 402 c 0
 174 402 157 339 156 290 c 1
EndSplineSet
Refer: 125 180 S 1 0 0 1 84 20 2
Validated: 1
EndChar

StartChar: ecircumflex
Encoding: 234 234 208
Width: 419
Flags: W
HStem: -6 100<187.859 354.586> 198 92<156 272> 402 95<180.064 253.485> 549 139<265.574 274>
VStem: 29 126<127.8 198 290 362.775> 97 263 272 119<290 384.639>
LayerCount: 2
Fore
SplineSet
387 198 m 1xfa
 155 198 l 1
 157 122 201 94 259 94 c 0
 296 94 329 102 352 110 c 1
 370 16 l 1
 336 3 285 -6 235 -6 c 0
 102 -6 29 82 29 235 c 0
 29 399 114 497 225 497 c 0
 330 497 391 414 391 266 c 0
 391 231 390 212 387 198 c 1xfa
156 290 m 1
 272 290 l 1
 272 353 256 402 217 402 c 0
 174 402 157 339 156 290 c 1
EndSplineSet
Refer: 126 710 S 1 0 0 1 78 0 2
Validated: 1
EndChar

StartChar: edieresis
Encoding: 235 235 209
Width: 419
Flags: W
HStem: -6 100<187.859 354.586> 198 92<156 272> 402 95<180.064 253.485> 563 111.009<82 199 290.7 368> 568.495 116.505<255 368>
VStem: 29 126<127.8 198 290 362.775> 82 122<567.396 674.009> 252 116<568.495 679.505> 272 119<290 384.639>
LayerCount: 2
Fore
SplineSet
387 198 m 1xe480
 155 198 l 1
 157 122 201 94 259 94 c 0
 296 94 329 102 352 110 c 1
 370 16 l 1
 336 3 285 -6 235 -6 c 0
 102 -6 29 82 29 235 c 0
 29 399 114 497 225 497 c 0
 330 497 391 414 391 266 c 0
 391 231 390 212 387 198 c 1xe480
156 290 m 1
 272 290 l 1
 272 353 256 402 217 402 c 0
 174 402 157 339 156 290 c 1
EndSplineSet
Refer: 131 168 S 1 0 0 1.0991 78 -75.5766 2
Validated: 1
EndChar

StartChar: egrave
Encoding: 232 232 210
Width: 419
Flags: W
HStem: -6 100<187.859 354.586> 198 92<156 272> 402 95<180.064 253.485>
VStem: 29 126<127.8 198 290 362.775> 272 119<290 384.639>
LayerCount: 2
Fore
SplineSet
387 198 m 1
 155 198 l 1
 157 122 201 94 259 94 c 0
 296 94 329 102 352 110 c 1
 370 16 l 1
 336 3 285 -6 235 -6 c 0
 102 -6 29 82 29 235 c 0
 29 399 114 497 225 497 c 0
 330 497 391 414 391 266 c 0
 391 231 390 212 387 198 c 1
156 290 m 1
 272 290 l 1
 272 353 256 402 217 402 c 0
 174 402 157 339 156 290 c 1
93 689 m 1
 208 689 l 1
 276 549 l 1
 194 549 l 1
 93 689 l 1
EndSplineSet
Validated: 1
EndChar

StartChar: iacute
Encoding: 237 237 211
Width: 223
Flags: W
HStem: 0 21G<46 177> 469 20G<46 177> 559 140
VStem: 46 131<0 489> 54 203
LayerCount: 2
Fore
SplineSet
177 0 m 1xf0
 46 0 l 1
 46 489 l 1
 177 489 l 1
 177 0 l 1xf0
EndSplineSet
Refer: 125 180 S 1 0 0 1 -30 10 2
Validated: 1
EndChar

StartChar: icircumflex
Encoding: 238 238 212
Width: 223
Flags: W
HStem: 0 21G<46 177> 469 20G<46 177> 549 139<143.574 152>
VStem: -25 263 46 131<0 489>
LayerCount: 2
Fore
SplineSet
177 0 m 1xe8
 46 0 l 1
 46 489 l 1
 177 489 l 1
 177 0 l 1xe8
EndSplineSet
Refer: 126 710 S 1 0 0 1 -44 0 2
Validated: 1
EndChar

StartChar: idieresis
Encoding: 239 239 213
Width: 223
Flags: W
HStem: 0 21G<46 177> 469 20G<46 177> 563 118.288<-30 87 178.7 256> 568.856 124.144<143 256>
VStem: -30 122<567.685 681.288> 46 131<0 489> 140 116<568.856 687.144>
LayerCount: 2
Fore
SplineSet
177 0 m 1xc4
 46 0 l 1
 46 489 l 1
 177 489 l 1
 177 0 l 1xc4
EndSplineSet
Refer: 131 168 S 1 0 0 1.17117 -34 -117.45 2
Validated: 1
EndChar

StartChar: igrave
Encoding: 236 236 214
Width: 223
Flags: W
HStem: 0 21G<46 177> 469 20G<46 177>
VStem: 46 131<0 489>
LayerCount: 2
Fore
SplineSet
177 0 m 1
 46 0 l 1
 46 489 l 1
 177 489 l 1
 177 0 l 1
-24 689 m 1
 91 689 l 1
 159 549 l 1
 77 549 l 1
 -24 689 l 1
EndSplineSet
Validated: 1
EndChar

StartChar: ntilde
Encoding: 241 241 215
Width: 458
Flags: W
HStem: 0 21G<46 177 281 412> 387 110<205.875 328.5> 469 20G<42 157.143> 564 77<227.617 296.147> 597 78<173.057 243.031>
VStem: 46 115<433 489> 111 60<557 594.78> 281 131<0 375.763> 298 58<643.823 678>
LayerCount: 2
Fore
SplineSet
46 0 m 1xc5
 46 342 l 2
 46 396 43 443 42 489 c 1
 155 489 l 1xa5
 161 433 l 1
 163 433 l 1
 189 472 231 497 282 497 c 0
 375 497 412 423 412 314 c 2
 412 0 l 1
 281 0 l 1
 281 306 l 2
 281 348 271 387 233 387 c 0
 211 387 193 372 184 343 c 0
 180 333 177 317 177 298 c 2
 177 0 l 1
 46 0 l 1xc5
171 557 m 1x8a80
 111 557 l 1
 111 622 133 675 182 675 c 0x8a80
 206 675 223 665 239 657 c 0
 252 649 263 641 276 641 c 0
 289 641 297 646 298 678 c 1
 356 678 l 1
 356 598 328 564 286 564 c 0x9280
 266 564 247 573 233 580 c 0
 216 588 208 597 194 597 c 0
 181 597 171 583 171 557 c 1x8a80
EndSplineSet
Validated: 1
EndChar

StartChar: ograve
Encoding: 242 242 219
Width: 431
Flags: W
HStem: -8 90<173.31 257.792> 388 109<170.384 261.134>
VStem: 29 130<92.7728 380.724> 272 131<90.2159 380.783>
LayerCount: 2
Fore
SplineSet
84 689 m 1
 199 689 l 1
 267 549 l 1
 185 549 l 1
 84 689 l 1
EndSplineSet
Refer: 80 111 S 1 0 0 1 0 0 2
Validated: 1
EndChar

StartChar: otilde
Encoding: 245 245 220
Width: 431
Flags: W
HStem: -8 90<173.31 257.792> 388 109<170.384 261.134> 564 77<210.617 279.147> 597 78<156.057 226.031>
VStem: 29 130<92.7728 380.724> 94 60<557 594.78> 272 131<90.2159 380.783> 281 58<643.823 678>
LayerCount: 2
Fore
SplineSet
154 557 m 1xd5
 94 557 l 1
 94 622 116 675 165 675 c 0xd5
 189 675 206 665 222 657 c 0
 235 649 246 641 259 641 c 0
 272 641 280 646 281 678 c 1
 339 678 l 1
 339 598 311 564 269 564 c 0xe5
 249 564 230 573 216 580 c 0
 199 588 191 597 177 597 c 0
 164 597 154 583 154 557 c 1xd5
EndSplineSet
Refer: 80 111 S 1 0 0 1 0 0 2
Validated: 1
EndChar

StartChar: scaron
Encoding: 353 353 221
Width: 324
Flags: W
HStem: -6 98<40.1865 176.568> 399 98<152.574 268.077>
VStem: 27 120<319.434 391.533> 183 120<99.4151 177.052>
LayerCount: 2
Fore
SplineSet
18 22 m 1
 42 118 l 1
 61 106 97 92 130 92 c 0
 164 92 183 107 183 136 c 0
 183 161 169 177 126 202 c 0
 46 247 27 298 27 343 c 0
 27 431 90 497 188 497 c 0
 229 497 261 487 287 475 c 1
 264 379 l 1
 245 390 222 399 196 399 c 0
 163 399 147 379 147 357 c 0
 147 335 158 323 204 296 c 0
 276 255 303 204 303 148 c 0
 303 48 231 -6 130 -6 c 0
 89 -6 41 5 18 22 c 1
208 549 m 1
 116 549 l 1
 31 689 l 1
 120 689 l 1
 161 609 l 1
 163 609 l 1
 203 689 l 1
 294 689 l 1
 208 549 l 1
EndSplineSet
Validated: 1
EndChar

StartChar: ugrave
Encoding: 249 249 225
Width: 452
Flags: W
HStem: -18 100<113.5 265.079> 0 21G<290.625 408> 469 20G<42 174>
VStem: 42 132<90.676 489> 273 131<85.0836 479>
LayerCount: 2
Fore
SplineSet
97 689 m 1x38
 211 689 l 1
 280 549 l 1
 198 549 l 1
 97 689 l 1x38
EndSplineSet
Refer: 86 117 S 1 0 0 1 0 0 2
Validated: 524289
EndChar

StartChar: yacute
Encoding: 253 253 226
Width: 391
Flags: W
HStem: 469 20G<5 149.78 258.797 390> 549 140
VStem: 144 203
LayerCount: 2
Fore
SplineSet
5 489 m 1
 146 489 l 1
 194 235 l 2
 199 206 203 179 207 153 c 1
 209 153 l 1
 213 178 217 206 221 233 c 2
 262 489 l 1
 390 489 l 1
 290 112 l 2
 266 20 234 -75 181 -138 c 0
 140 -186 90 -209 70 -215 c 1
 30 -102 l 1
 53 -94 75 -79 95 -61 c 0
 113 -44 127 -24 136 -3 c 0
 140 6 143 11 143 18 c 0
 143 24 141 30 139 36 c 2
 5 489 l 1
EndSplineSet
Refer: 125 180 S 1 0 0 1 60 0 2
Validated: 1
EndChar

StartChar: zcaron
Encoding: 382 382 228
Width: 351
Flags: W
HStem: 0 107<163 331> 382 107<33 184>
VStem: 18 313<0 82>
LayerCount: 2
Fore
SplineSet
18 0 m 1
 18 82 l 1
 138 300 l 2
 154 328 175 360 184 379 c 1
 184 382 l 1
 33 382 l 1
 33 489 l 1
 327 489 l 1
 327 400 l 1
 210 190 l 2
 193 161 174 130 163 110 c 1
 163 107 l 1
 331 107 l 1
 331 0 l 1
 18 0 l 1
232 549 m 1
 140 549 l 1
 55 689 l 1
 144 689 l 1
 185 609 l 1
 187 609 l 1
 227 689 l 1
 318 689 l 1
 232 549 l 1
EndSplineSet
Validated: 1
EndChar

StartChar: Dcroat
Encoding: 272 272 229
Width: 493
Flags: W
HStem: -6 109<191 273.195> 303 91<0 61 191 265> 572 105<191.47 276.428>
VStem: 61 130<101.002 303 394 571.941> 333 135<188.968 497.639>
LayerCount: 2
Fore
SplineSet
0 303 m 1
 0 394 l 1
 61 394 l 1
 61 664 l 1
 93 672 142 677 194 677 c 0
 279 677 338 657 381 617 c 0
 439 565 468 476 468 345 c 0
 468 208 433 112 375 59 c 0
 329 16 263 -6 169 -6 c 0
 127 -6 86 -2 61 2 c 1
 61 303 l 1
 0 303 l 1
265 394 m 1
 265 303 l 1
 191 303 l 1
 191 103 l 1
 198 101 208 101 215 101 c 0
 278 101 333 163 333 350 c 0
 333 488 297 572 217 572 c 0
 207 572 199 571 191 569 c 1
 191 394 l 1
 265 394 l 1
EndSplineSet
Validated: 1
Position2: "'cpsp' +BBgEPQRCBDUEQAQyBDAEOwAA +BD8EQAQ+BD8EOARBBD0ESwRF lookup 0 subtable" dx=10 dy=0 dh=20 dv=0
EndChar

StartChar: Eng
Encoding: 330 330 230
Width: 516
Flags: W
HStem: -202 21G<284.469 350> 0 21G<58 173> 654 20G<58 185.879 343 458>
VStem: 58 115<0 431.822> 58 107<189.147 459> 343 115<-66.1359 -15 245.574 674>
LayerCount: 2
Fore
SplineSet
173 0 m 1xf4
 58 0 l 1xf4
 58 674 l 1
 178 674 l 1
 282 410 l 2
 302 358 335 271 354 213 c 1
 356 213 l 1
 352 284 343 401 343 525 c 2
 343 674 l 1
 458 674 l 1
 458 31 l 2
 458 -97 409 -181 291 -202 c 1
 259 -104 l 1
 312 -88 339 -57 340 -15 c 1
 235 256 l 2
 213 313 182 398 167 459 c 1
 165 459 l 1xec
 168 391 173 287 173 152 c 2
 173 0 l 1xf4
EndSplineSet
Validated: 1
Position2: "'cpsp' +BBgEPQRCBDUEQAQyBDAEOwAA +BD8EQAQ+BD8EOARBBD0ESwRF lookup 0 subtable" dx=10 dy=0 dh=20 dv=0
EndChar

StartChar: Hbar
Encoding: 294 294 231
Width: 515
Flags: W
HStem: 0 21G<58 189> 245 122<189 326> 470 89<14 58 189 326 457 501> 664 20G<58 189>
VStem: 58 131<0 245 367 470 559 684> 326 131<-20 245 367 470 559 664>
LayerCount: 2
Fore
SplineSet
501 470 m 1
 457 470 l 1
 457 -20 l 1
 326 -20 l 1
 326 245 l 1
 189 245 l 1
 189 0 l 1
 58 0 l 1
 58 470 l 1
 14 470 l 1
 14 559 l 1
 58 559 l 1
 58 684 l 5
 189 684 l 5
 189 559 l 1
 326 559 l 1
 326 664 l 1
 457 664 l 1
 457 559 l 1
 501 559 l 1
 501 470 l 1
326 367 m 1
 326 470 l 1
 189 470 l 1
 189 367 l 1
 326 367 l 1
EndSplineSet
Position2: "'cpsp' +BBgEPQRCBDUEQAQyBDAEOwAA +BD8EQAQ+BD8EOARBBD0ESwRF lookup 0 subtable" dx=10 dy=0 dh=20 dv=0
EndChar

StartChar: Tbar
Encoding: 358 358 232
Width: 393
Flags: W
HStem: 0 21G<131 262> 301 89<50 131 262 342> 553 121<12 131 262 382>
VStem: 131 131<0 301 390 553>
LayerCount: 2
Fore
SplineSet
382 553 m 1
 262 553 l 1
 262 390 l 1
 342 390 l 1
 342 301 l 1
 262 301 l 1
 262 0 l 1
 131 0 l 1
 131 301 l 1
 50 301 l 1
 50 390 l 1
 131 390 l 1
 131 553 l 1
 12 553 l 1
 12 674 l 1
 382 674 l 1
 382 553 l 1
EndSplineSet
Validated: 1
Position2: "'cpsp' +BBgEPQRCBDUEQAQyBDAEOwAA +BD8EQAQ+BD8EOARBBD0ESwRF lookup 0 subtable" dx=10 dy=0 dh=20 dv=0
EndChar

StartChar: uni021C
Encoding: 540 540 233
Width: 388
Flags: W
HStem: 565 117<48.8039 186.693>
VStem: 201 125<423.573 552.146> 231 134<78.7462 271.619>
LayerCount: 2
Fore
SplineSet
56 -113 m 5xa0
 18 -18 l 5
 196 30 231 67 231 177 c 0xa0
 231 257.30946763 232 318 75 265 c 1
 47 359 l 1
 192 408 201 424 201 500 c 0
 201 540 180 565 140 565 c 0
 110 565 75 554 54 545 c 1
 22 659 l 5
 78 674 126 682 160 682 c 4
 296 682 326 680 326 531 c 0xc0
 326 446 316 412 234 362 c 1
 234 360 l 1
 334 346 365 340 365 183 c 0
 365 -2 250 -66 56 -113 c 5xa0
EndSplineSet
Validated: 524321
Position2: "'cpsp' +BBgEPQRCBDUEQAQyBDAEOwAA +BD8EQAQ+BD8EOARBBD0ESwRF lookup 0 subtable" dx=10 dy=0 dh=20 dv=0
EndChar

StartChar: dcroat
Encoding: 273 273 234
Width: 447
Flags: W
HStem: -8 107<129 245.944> 0 21G<289.455 405> 387 110<143.678 248.394> 533 81<142 270 401 461> 672 20G<270 401>
VStem: 29 130<128.476 357.429> 270 131<110.391 375.241 448 533 614 692> 292 113<0 55>
LayerCount: 2
Fore
SplineSet
461 533 m 1xbe
 401 533 l 1
 401 145 l 2xbe
 401 98 403 45 405 0 c 1
 292 0 l 1x7d
 285 55 l 1
 283 55 l 1
 265 21 226 -8 181 -8 c 0
 77 -8 29 107 29 244 c 0
 29 414 103 497 186 497 c 0
 229 497 256 476 268 448 c 1
 270 448 l 1
 270 533 l 1
 142 533 l 1
 142 614 l 1
 270 614 l 1
 270 692 l 1
 401 692 l 1
 401 614 l 1
 461 614 l 1
 461 533 l 1xbe
270 172 m 2
 270 301 l 2
 270 310 270 320 269 330 c 0
 264 360 248 387 222 387 c 0
 176 387 159 320 159 241 c 0
 159 148 184 99 221 99 c 0
 237 99 256 108 266 142 c 0
 269 149 270 160 270 172 c 2
EndSplineSet
Validated: 1
EndChar

StartChar: eng
Encoding: 331 331 235
Width: 458
Flags: W
HStem: 0 21G<46 177> 387 110<205.875 328.5> 469 20G<42 157.143>
VStem: 46 131<0 370.516> 46 115<433 489> 281 131<-61.7344 375.763>
LayerCount: 2
Fore
SplineSet
46 0 m 1xd4
 46 342 l 2xd4
 46 396 43 443 42 489 c 1
 155 489 l 1
 161 433 l 1xac
 163 433 l 1
 189 472 231 497 282 497 c 0
 375 497 412 423 412 314 c 2
 412 36 l 2
 412 -117 334 -175 242 -189 c 1
 213 -90 l 1
 255 -79 281 -58 281 18 c 2
 281 306 l 2
 281 348 271 387 233 387 c 0
 211 387 193 372 184 343 c 0
 180 333 177 317 177 298 c 2
 177 0 l 1
 46 0 l 1xd4
EndSplineSet
Validated: 1
EndChar

StartChar: hbar
Encoding: 295 295 236
Width: 458
Flags: W
HStem: 0 21G<46 177 281 412> 533 81<-15 46 177 309> 672 20G<46 177>
VStem: 46 131<0 371.786 438 533 614 692> 281 131<0 375.917>
LayerCount: 2
Fore
SplineSet
412 0 m 1
 281 0 l 1
 281 297 l 2
 281 345 272 387 233 387 c 0
 211 387 192 374 182 341 c 0
 180 333 177 315 177 304 c 2
 177 0 l 1
 46 0 l 1
 46 533 l 1
 -15 533 l 1
 -15 614 l 1
 46 614 l 1
 46 692 l 1
 177 692 l 1
 177 614 l 1
 309 614 l 1
 309 533 l 1
 177 533 l 1
 177 438 l 1
 179 438 l 1
 190 455 205 469 221 480 c 0
 240 491 263 497 287 497 c 0
 377 497 412 421 412 297 c 2
 412 0 l 1
EndSplineSet
Validated: 1
EndChar

StartChar: kgreenlandic
Encoding: 312 312 237
Width: 413
Flags: W
HStem: 0 21G<45 176 261.035 414> 469 20G<45 176 257.37 407>
VStem: 45 131<0 159 275 489>
LayerCount: 2
Fore
SplineSet
176 489 m 1
 176 275 l 1
 178 275 l 1
 187 303 194 323 203 343 c 2
 266 489 l 1
 407 489 l 1
 289 284 l 1
 414 0 l 1
 268 0 l 1
 198 201 l 1
 176 159 l 1
 176 0 l 1
 45 0 l 1
 45 489 l 1
 176 489 l 1
EndSplineSet
Validated: 1
EndChar

StartChar: napostrophe
Encoding: 329 329 238
Width: 458
Flags: W
HStem: 0 21G<46 177 281 412> 387 110<205.875 328.5> 469 20G<42 157.143> 683 20G<-2 96.5>
VStem: 26 95<568.419 689.562> 46 131<0 370.516> 46 115<433 489> 281 131<0 375.763>
LayerCount: 2
Fore
SplineSet
53 520 m 1x99
 -4 553 l 1
 9 569 26 599 26 632 c 0
 26 658 11 681 -2 691 c 1
 88 703 l 1
 105 693 121 669 121 636 c 0
 121 575 71 535 53 520 c 1x99
46 0 m 1xd5
 46 342 l 2xd5
 46 396 43 443 42 489 c 1
 155 489 l 1
 161 433 l 1xb3
 163 433 l 1
 189 472 231 497 282 497 c 0
 375 497 412 423 412 314 c 2
 412 0 l 1
 281 0 l 1
 281 306 l 2
 281 348 271 387 233 387 c 0
 211 387 193 372 184 343 c 0
 180 333 177 317 177 298 c 2
 177 0 l 1
 46 0 l 1xd5
EndSplineSet
Validated: 1
EndChar

StartChar: tbar
Encoding: 359 359 239
Width: 311
Flags: W
HStem: -6 108<186 283.817> 244 82<13 69 200 275> 396 93<11 69 200 296>
VStem: 69 131<111.564 244 326 396 489 590>
LayerCount: 2
Fore
SplineSet
296 396 m 1
 200 396 l 1
 200 326 l 1
 275 326 l 1
 275 244 l 1
 200 244 l 1
 200 173 l 2
 200 116 224 102 250 102 c 0
 263 102 273 103 284 105 c 1
 285 3 l 1
 267 -2 240 -6 205 -6 c 0
 167 -6 134 3 111 25 c 0
 84 51 69 88 69 165 c 2
 69 244 l 1
 13 244 l 1
 13 326 l 1
 69 326 l 1
 69 396 l 1
 11 396 l 1
 11 489 l 1
 69 489 l 1
 69 590 l 1
 200 621 l 1
 200 489 l 1
 296 489 l 1
 296 396 l 1
EndSplineSet
Validated: 1
EndChar

StartChar: uni021D
Encoding: 541 541 240
Width: 361
Flags: W
HStem: -200 86<35.3721 84.7551> 109 104<61 108.168> 381 116<40.1699 182.932>
VStem: 185 120<275.929 377.758> 212 130<-42.2331 101.13>
LayerCount: 2
Fore
SplineSet
37 -200 m 1xe8
 17 -114 l 5
 206 -55 212 -53 212 55 c 0xe8
 212 115.691948395 141.133789062 136.872070312 61 109 c 1
 42 213 l 1
 112 231 185 259 185 325 c 0
 185 367 190 381 128 381 c 0
 98 381 69 375 43 366 c 1
 19 475 l 1
 46 484 92 497 146 497 c 0
 286 497 305 471 305 357 c 0xf0
 305 288 268 240 214 215 c 1
 214 212 l 1
 286 197 342 151 342 62 c 0
 342 -105 306 -153 37 -200 c 1xe8
EndSplineSet
Validated: 524321
EndChar

StartChar: IJ
Encoding: 306 306 241
Width: 484
Flags: HW
HStem: 22 20.3042G<57.8494 189.151> 654 20G<303 434>
VStem: 58 131<22 664> 303 131<24.138 674>
LayerCount: 2
Fore
SplineSet
303 149 m 2
 303 674 l 1
 434 674 l 1
 434 155 l 2
 434 -50 428 -47 230 -162 c 1
 170 -46 l 1
 304 35 303 10 303 149 c 2
EndSplineSet
Refer: 42 73 N 1 0 0 0.966867 0 22 2
Position2: "'cpsp' +BBgEPQRCBDUEQAQyBDAEOwAA +BD8EQAQ+BD8EOARBBD0ESwRF lookup 0 subtable" dx=10 dy=0 dh=20 dv=0
EndChar

StartChar: f_f
Encoding: 64256 64256 242
Width: 531
Flags: W
HStem: 0 21G<69 200> 386 103<3 69 200 314 445 530> 563 120<212.762 278> 587 112<465.652 546>
VStem: 69 131<0 386 489 546.545> 314 131<-20 386 489 570.006>
LayerCount: 2
Fore
SplineSet
445 -20 m 1xdc
 314 -20 l 1
 314 386 l 5
 200 386 l 5
 200 0 l 1
 69 0 l 1
 69 386 l 5
 3 386 l 5
 3 489 l 1
 69 489 l 1
 69 506 l 2
 69 663 102 679 290 683 c 1
 278 563 l 5xec
 208 556 200 542 200 508 c 6
 200 489 l 1
 314 489 l 1
 314 509 l 2
 314 673 320 693 550 699 c 1
 546 587 l 1
 454 573 445 572.893325555 445 512 c 2
 445 489 l 1
 530 489 l 1
 530 386 l 5
 445 386 l 5
 445 -20 l 1xdc
EndSplineSet
Validated: 524289
LCarets2: 1 0
Ligature2: "'liga' Standard Ligatures lookup 18 subtable" f f
EndChar

StartChar: f_f_i
Encoding: 64259 64259 243
Width: 745
Flags: MW
HStem: 0 21G<69 200 69 69 325 456 325 325 569 700 569 569> 396 93<3 69 3 69 200 325 456 569> 589 103<247.5 262.5> 593 107<512 565.5 453.5 567.5> 672 20G<227 263.5> 680 20
VStem: 69 131<0 396 0 396 489 502 502 506 0 536> 325 131<0 396 0 396 489 507 0 515 0 546.5> 569 131<0 396 396 396>
LayerCount: 2
Fore
SplineSet
658 680 m 1xc780
 640 577 l 1
 617 585 587 593 548 593 c 0
 476 593 456 553 456 507 c 2xd380
 456 489 l 1
 700 489 l 1
 700 0 l 1
 569 0 l 1
 569 396 l 1
 456 396 l 1
 456 0 l 1
 325 0 l 1
 325 396 l 1
 200 396 l 1
 200 0 l 1
 69 0 l 1
 69 396 l 1
 3 396 l 1
 3 489 l 1
 69 489 l 1
 69 502 l 2
 69 570 92 626 140 660 c 0
 169 681 206 692 248 692 c 0xcb80
 279 692 306 685 322 679 c 1xc780
 289 582 l 1
 280 586 270 589 255 589 c 0
 240 589 226 582 218 572 c 0
 203 556 200 530 200 506 c 2xe380
 200 489 l 1
 325 489 l 1
 325 515 l 2
 325 578 365 700 542 700 c 0xd380
 589 700 632 692 658 680 c 1xc780
EndSplineSet
Validated: 1
Ligature2: "'liga' Standard Ligatures lookup 18 subtable" f f i
EndChar

StartChar: f_f_j
Encoding: 57347 57347 244
Width: 745
Flags: MW
HStem: -200 21G<492 515.5> 0 21G<69 200 69 69 325 456 325 325> 396 93<3 69 3 69 200 325 456 569> 589 103<247.5 262.5> 593 107<512 565.5 453.5 567.5> 672 20G<227 263.5> 680 20
VStem: 69 131<0 396 0 396 489 502 502 506 0 536> 325 131<0 396 0 396 489 507 0 515 0 546.5> 569 131<60 396 396 396>
LayerCount: 2
Fore
SplineSet
658 680 m 1xe3c0
 640 577 l 1
 617 585 587 593 548 593 c 0
 476 593 456 553 456 507 c 2xe9c0
 456 489 l 1
 700 489 l 1
 700 35 l 2
 700 -74 677 -125 635 -158 c 0
 599 -187 539 -200 492 -200 c 1
 482 -96 l 1
 505 -93 530 -88 546 -70 c 0
 565 -50 569 -15 569 60 c 2
 569 396 l 1
 456 396 l 1
 456 0 l 1
 325 0 l 1
 325 396 l 1
 200 396 l 1
 200 0 l 1
 69 0 l 1
 69 396 l 1
 3 396 l 1
 3 489 l 1
 69 489 l 1
 69 502 l 2
 69 570 92 626 140 660 c 0
 169 681 206 692 248 692 c 0xe5c0
 279 692 306 685 322 679 c 1xe3c0
 289 582 l 1
 280 586 270 589 255 589 c 0
 240 589 226 582 218 572 c 0
 203 556 200 530 200 506 c 2xf1c0
 200 489 l 1
 325 489 l 1
 325 515 l 2
 325 578 365 700 542 700 c 0xe9c0
 589 700 632 692 658 680 c 1xe3c0
EndSplineSet
Validated: 1
Ligature2: "'liga' Standard Ligatures lookup 18 subtable" f f j
EndChar

StartChar: f_f_l
Encoding: 64260 64260 245
Width: 745
Flags: MW
HStem: 0 21G<69 200 69 69 325 456 325 325 569 700 569 569> 396 93<3 69 3 69 200 325 456 528> 589 103<247.5 262.5> 597 103<504.5 535.5> 672 20G<227 263.5> 680 20G<504.5 574.5>
VStem: 69 131<0 396 0 396 489 502 502 506 0 536> 325 131<0 396 0 396 489 508 508 514 0 526> 569 131<0 591 591 591>
LayerCount: 2
Fore
SplineSet
322 679 m 1xc780
 289 582 l 1
 280 586 270 589 255 589 c 0
 240 589 226 582 218 572 c 0
 203 556 200 530 200 506 c 2xe380
 200 489 l 1
 325 489 l 1
 325 508 l 2
 325 544 341 610 385 649 c 0
 418 678 465 700 544 700 c 0
 605 700 665 687 700 674 c 1
 700 0 l 1
 569 0 l 1
 569 591 l 1
 558 595 545 597 526 597 c 0
 475 597 456 557 456 514 c 2xd380
 456 489 l 1
 528 489 l 1
 528 396 l 1
 456 396 l 1
 456 0 l 1
 325 0 l 1
 325 396 l 1
 200 396 l 1
 200 0 l 1
 69 0 l 1
 69 396 l 1
 3 396 l 1
 3 489 l 1
 69 489 l 1
 69 502 l 2
 69 570 92 626 140 660 c 0
 169 681 206 692 248 692 c 0xcb80
 279 692 306 685 322 679 c 1xc780
EndSplineSet
Validated: 1
Ligature2: "'liga' Standard Ligatures lookup 18 subtable" f f l
EndChar

StartChar: f_i
Encoding: 65537 -1 246
Width: 489
Flags: W
HStem: -2.37891 21G<78.7049 210.36 297.047 429.62> 390.885 92.9355<-1.26855 61.2178> 398.23 92.9355<195.595 310.165> 586 113<201.729 338>
VStem: 61.2178 130.909<262.469 393.346 491.166 587.556> 79.4512 130.909<2.50586 185.224> 297.047 131.862<3.15723 193.941> 310.165 136.117<288.783 398.743>
LayerCount: 2
Fore
SplineSet
210.360351562 2.505859375 m 1xb5
 79.451171875 -2.37890625 l 1
 64.685546875 393.345703125 l 1
 -1.2685546875 390.884765625 l 1
 -4.736328125 483.8203125 l 1xd5
 61.2177734375 486.28125 l 1
 60.248046875 512.262695312 l 2
 53.4598180612 694.136640519 74 737 347 699 c 5
 338 586 l 1
 206 603 187.759752854 608.083837989 191.455078125 509.153320312 c 2
 192.126953125 491.166015625 l 1
 446.282226562 485.606445312 l 1xb9
 428.909179688 -2.8818359375 l 1
 297.046875 3.1572265625 l 1xb2
 310.165039062 398.743164062 l 1
 195.594726562 398.23046875 l 1
 210.360351562 2.505859375 l 1xb5
EndSplineSet
Validated: 524321
LCarets2: 1 0
Ligature2: "'liga' Standard Ligatures lookup 18 subtable" f i
EndChar

StartChar: f_j
Encoding: 57348 57348 247
Width: 489
Flags: MW
HStem: -200 21G<236 259.5> 0 21G<69 200 69 69> 396 93<3 69 3 69 200 312> 593 107<255.5 309.5 197 311> 680 20
VStem: 69 131<0 396 489 507> 312 132<60 396 396 396>
LayerCount: 2
Fore
SplineSet
200 0 m 1xf6
 69 0 l 1
 69 396 l 1
 3 396 l 1
 3 489 l 1
 69 489 l 1
 69 515 l 2
 69 578 108 700 286 700 c 0xf6
 333 700 375 692 402 680 c 1xee
 383 577 l 1
 361 585 331 593 291 593 c 0
 220 593 200 553 200 507 c 2
 200 489 l 1
 444 489 l 1
 444 35 l 2
 444 -74 420 -125 379 -158 c 0
 342 -187 283 -200 236 -200 c 1
 226 -96 l 1
 249 -93 274 -88 290 -70 c 0
 308 -50 312 -15 312 60 c 2
 312 396 l 1
 200 396 l 1
 200 0 l 1xf6
EndSplineSet
Validated: 1
Ligature2: "'liga' Standard Ligatures lookup 18 subtable" f j
EndChar

StartChar: f_l
Encoding: 65538 -1 248
Width: 489
Flags: W
HStem: 0 21G<302 434.288> 396 93<3 69 200 261>
VStem: 69 131<-20 396 489 579.043> 302 132<4 414.9> 312 132<208.2 592.414>
LayerCount: 2
Fore
SplineSet
200 -20 m 1xe8
 69 -20 l 1
 69 396 l 1
 3 396 l 1
 3 489 l 1
 69 489 l 1
 69 508 l 2
 69 680.983902674 82 712 444 694 c 1xe8
 434 0 l 1
 302 4 l 5xf0
 312 591 l 1
 204 601 200 571.418517314 200 514 c 2
 200 489 l 1
 261 489 l 1
 261 396 l 1
 200 396 l 1
 200 -20 l 1xe8
EndSplineSet
Validated: 524321
LCarets2: 1 0
Ligature2: "'liga' Standard Ligatures lookup 18 subtable" f l
EndChar

StartChar: ij
Encoding: 307 307 249
Width: 447
Flags: W
HStem: 0 21G<55.591 187> 473 20G<46 177.409 269.544 401> 548.999 140<51.159 171.874> 560 129<281 398>
VStem: 46 131<150.7 489> 51.159 120.715<550.085 687.914> 56 131<4 342.3> 260 131<-50.4003 347> 270 131<181.7 485> 281 117<561 688>
LayerCount: 2
Fore
SplineSet
187 4 m 1xc2
 56 0 l 1xc2
 46 489 l 1
 177 493 l 1xc8
 187 4 l 1xc2
184 -210 m 1
 134 -106 l 1
 234 -62 257.289143817 -69.0065864195 260 50 c 6xc1
 270 489 l 1
 401 485 l 5xc080
 391 25 l 6xc1
 387.49929145 -136.032593292 355 -139 184 -210 c 1
EndSplineSet
Refer: 130 729 N 1 0 0 1 190 0 2
Refer: 130 729 N 1.03175 0 0 1.08527 -42.7302 -58.7519 2
Validated: 1
EndChar

StartChar: zero.slash
Encoding: 63032 63032 250
Width: 426
Flags: MW
HStem: -8 112<200.5 234.5 200.5 265.5> 546 112<193 226.5>
VStem: 23 124<312 400.5 312 415.5> 279 124<250.5 338.5>
LayerCount: 2
Fore
SplineSet
152 247 m 1
 261 501 l 1
 253 528 238 546 215 546 c 0
 171 546 147 476 147 325 c 0
 147 299 149 275 152 247 c 1
274 406 m 1
 165 145 l 1
 174 121 189 104 212 104 c 0
 257 104 279 176 279 325 c 0
 279 352 278 377 274 406 c 1
218 658 m 0
 368 658 403 483 403 328 c 0
 403 95 318 -8 213 -8 c 0
 71 -8 23 155 23 322 c 0
 23 509 83 658 218 658 c 0
EndSplineSet
Validated: 1
AlternateSubs2: "'aalt' +BBIEQQQ1 +BDAEOwRMBEIENQRABD0EMARCBDgEMgQ9BEsENQAA +BDIEMARABDgEMAQ9BEIESwAA lookup 1 subtable" zero.fitted zero.oldstyle zero.taboldstyle zero.superior zero.inferior zero.numerator zero.denominator
EndChar

StartChar: Euro
Encoding: 8364 8364 251
Width: 426
Flags: MW
HStem: -8 112<301 323> 238 67<24 70 24 75 24 70 206 206 206 362> 352 68<24 71 24 78 209 362> 546 112<302 330.5> 638 20
VStem: 24 185<238 420 305 420 352 420 420 420> 70 131<305 316 305 317 315 316 305 323> 75 131<238 238>
LayerCount: 2
Fore
SplineSet
392 123 m 1xea
 406 15 l 1
 387 6 345 -8 301 -8 c 0
 245 -8 186 11 142 64 c 0
 109 102 84 158 75 238 c 1xe9
 24 238 l 1
 24 305 l 1
 70 305 l 1
 70 309 70 313 70 317 c 0
 70 329 71 342 71 352 c 1
 24 352 l 1
 24 420 l 1
 78 420 l 1
 86 481 107 528 132 563 c 0
 174 626 234 658 313 658 c 0
 356 658 386 646 405 638 c 1xea
 384 529 l 1
 371 536 343 546 318 546 c 0
 286 546 259 535 239 504 c 0
 226 486 215 459 209 420 c 1xf4
 362 420 l 1
 362 352 l 1
 202 352 l 1
 201 342 201 329 201 316 c 0
 201 312 201 309 201 305 c 1xea
 362 305 l 1
 362 238 l 1
 206 238 l 1
 210 194 221 165 235 145 c 0xe9
 255 114 286 104 316 104 c 0
 343 104 376 115 392 123 c 1xea
EndSplineSet
Validated: 1
Substitution2: "'onum' Oldstyle Figures lookup 14 subtable" Euro.taboldstyle
Substitution2: "'aalt' +BBIEQQQ1 +BDAEOwRMBEIENQRABD0EMARCBDgEMgQ9BEsENQAA +BDIEMARABDgEMAQ9BEIESwAA lookup 0 subtable" Euro.taboldstyle
EndChar

StartChar: estimated
Encoding: 8494 8494 253
Width: 817
Flags: MW
HStem: -11 20<365 458 365 469> 316 19<175.5 641 177 641 641 642.5 177 782> 641 20<365 454>
VStem: 35 137<232 312 338.5 340 340 418> 646 136<316 524>
LayerCount: 2
Fore
SplineSet
782 316 m 2
 177 316 l 2
 174 316 172 315 172 312 c 2
 172 129 l 2
 172 121 176 114 181 108 c 0
 238 47 320 9 410 9 c 0
 506 9 592 52 650 120 c 1
 705 120 l 1
 637 41 529 -11 409 -11 c 0
 203 -11 35 139 35 325 c 0
 35 511 203 661 409 661 c 0
 615 661 782 511 782 325 c 0
 782 322 782 319 782 316 c 2
646 340 m 2
 646 524 l 2
 646 533 642 540 636 546 c 0
 578 604 498 641 410 641 c 0
 320 641 240 603 182 543 c 0
 176 537 172 529 172 520 c 2
 172 340 l 2
 172 337 174 335 177 335 c 2
 641 335 l 2
 644 335 646 337 646 340 c 2
EndSplineSet
Validated: 1
EndChar

StartChar: zero.oldstyle
Encoding: 63280 63280 254
Width: 431
Flags: MW
HStem: -8 100<195.5 235.5 195.5 261> 397 100<195 235>
VStem: 29 122<192 298 192 335.5> 280 122<192 298>
LayerCount: 2
Fore
SplineSet
215 -8 m 0
 124 -8 29 63 29 245 c 0
 29 426 124 497 215 497 c 0
 307 497 402 426 402 245 c 0
 402 63 307 -8 215 -8 c 0
215 92 m 0
 256 92 280 139 280 245 c 0
 280 351 255 397 215 397 c 0
 175 397 151 351 151 245 c 0
 151 139 176 92 215 92 c 0
EndSplineSet
Validated: 1
Substitution2: "'tnum' Tabular Numbers lookup 17 subtable" zero.taboldstyle
AlternateSubs2: "'aalt' +BBIEQQQ1 +BDAEOwRMBEIENQRABD0EMARCBDgEMgQ9BEsENQAA +BDIEMARABDgEMAQ9BEIESwAA lookup 1 subtable" zero.taboldstyle
EndChar

StartChar: one.oldstyle
Encoding: 63281 63281 255
Width: 321
Flags: MW
HStem: 0 21G<129 258 129 129> 473 20G<155 258 258 258>
VStem: 129 129<0 374 374 374>
LayerCount: 2
Fore
SplineSet
258 0 m 1
 129 0 l 1
 129 374 l 1
 127 374 l 1
 35 323 l 1
 13 421 l 1
 155 493 l 1
 258 493 l 1
 258 0 l 1
EndSplineSet
Validated: 1
Substitution2: "'tnum' Tabular Numbers lookup 17 subtable" one.taboldstyle
AlternateSubs2: "'aalt' +BBIEQQQ1 +BDAEOwRMBEIENQRABD0EMARCBDgEMgQ9BEsENQAA +BDIEMARABDgEMAQ9BEIESwAA lookup 1 subtable" one.taboldstyle
EndChar

StartChar: two.oldstyle
Encoding: 63282 63282 256
Width: 365
Flags: MW
HStem: 0 108<263 343 263 343> 391 106<135 145>
VStem: 196 124<297 341.5>
LayerCount: 2
Fore
SplineSet
343 0 m 1
 18 0 l 1
 18 76 l 1
 62 118 l 2
 133 185 196 252 196 317 c 0
 196 366 168 391 122 391 c 0
 93 391 67 380 46 367 c 1
 15 453 l 1
 49 475 105 497 165 497 c 0
 255 497 320 438 320 341 c 0
 320 253 269 193 202 131 c 2
 176 105 l 1
 176 103 l 1
 198 105 241 108 263 108 c 2
 343 108 l 1
 343 0 l 1
EndSplineSet
Validated: 1
Substitution2: "'tnum' Tabular Numbers lookup 17 subtable" two.taboldstyle
AlternateSubs2: "'aalt' +BBIEQQQ1 +BDAEOwRMBEIENQRABD0EMARCBDgEMgQ9BEsENQAA +BDIEMARABDgEMAQ9BEIESwAA lookup 1 subtable" two.taboldstyle
EndChar

StartChar: three.oldstyle
Encoding: 63283 63283 257
Width: 357
Flags: MW
HStem: -125 106<88 125 79 167> 150 100 390 107<125.5 146>
VStem: 65.5 145.5 194 122<321 350.5> 205 130<42.5 94>
LayerCount: 2
Fore
SplineSet
16 -113 m 1xe4
 29 -12 l 1
 41 -16 67 -19 91 -19 c 0
 159 -19 205 16 205 69 c 0
 205 119 166 150 106 150 c 0xe4
 92 150 76 150 66 149 c 1
 65 249 l 1xf0
 92 251 l 2
 146 256 194 284 194 331 c 0
 194 370 167 390 125 390 c 0
 95 390 65 382 43 372 c 1
 25 468 l 1
 50 483 98 497 153 497 c 0
 249 497 316 439 316 358 c 0xe8
 316 284 266 232 211 219 c 1
 211 216 l 1xf0
 283 202 335 147 335 68 c 0
 335 -54 225 -125 109 -125 c 0
 67 -125 35 -119 16 -113 c 1xe4
EndSplineSet
Validated: 1
Substitution2: "'tnum' Tabular Numbers lookup 17 subtable" three.taboldstyle
AlternateSubs2: "'aalt' +BBIEQQQ1 +BDAEOwRMBEIENQRABD0EMARCBDgEMgQ9BEsENQAA +BDIEMARABDgEMAQ9BEIESwAA lookup 1 subtable" three.taboldstyle
EndChar

StartChar: four.oldstyle
Encoding: 63284 63284 258
Width: 419
Flags: MW
HStem: -118 21G<226 338 226 226> 39 102<122 226 122 226 338 403> 363 128<227 229 227 227> 471 20G<212 338 338 338>
VStem: 12 110<39 144 127 144> 226 112<-118 39 -118 39 141 269 269 284.5>
LayerCount: 2
Fore
SplineSet
403 39 m 1xdc
 338 39 l 1
 338 -118 l 1
 226 -118 l 1
 226 39 l 1
 12 39 l 1
 12 127 l 1
 212 491 l 1
 338 491 l 1
 338 141 l 1
 403 141 l 1
 403 39 l 1xdc
226 141 m 1
 226 269 l 2
 226 300 226 330 229 363 c 1
 227 363 l 1xec
 218 334 199 290 184 261 c 2
 122 144 l 1
 122 141 l 1
 226 141 l 1
EndSplineSet
Validated: 1
Substitution2: "'tnum' Tabular Numbers lookup 17 subtable" four.taboldstyle
AlternateSubs2: "'aalt' +BBIEQQQ1 +BDAEOwRMBEIENQRABD0EMARCBDgEMgQ9BEsENQAA +BDIEMARABDgEMAQ9BEIESwAA lookup 1 subtable" four.taboldstyle
EndChar

StartChar: five.oldstyle
Encoding: 63285 63285 259
Width: 361
Flags: MW
HStem: -124 106<87.5 120.5 79 168.5> 378 111<171 318 171 171>
VStem: 204 131<45 90.5>
LayerCount: 2
Fore
SplineSet
21 -112 m 1
 32 -12 l 1
 46 -15 64 -18 94 -18 c 0
 147 -18 204 13 204 77 c 0
 204 104 197 129 178 145 c 0
 151 171 96 182 36 181 c 1
 85 489 l 1
 333 489 l 1
 318 378 l 1
 171 378 l 1
 153 268 l 1
 206 262 256 242 290 209 c 0
 319 180 335 140 335 88 c 0
 335 -41 234 -124 103 -124 c 0
 72 -124 37 -119 21 -112 c 1
EndSplineSet
Validated: 33
Substitution2: "'tnum' Tabular Numbers lookup 17 subtable" five.taboldstyle
AlternateSubs2: "'aalt' +BBIEQQQ1 +BDAEOwRMBEIENQRABD0EMARCBDgEMgQ9BEsENQAA +BDIEMARABDgEMAQ9BEIESwAA lookup 1 subtable" five.taboldstyle
EndChar

StartChar: six.oldstyle
Encoding: 63286 63286 260
Width: 432
Flags: MW
HStem: -8 94<203 231.5 203 266.5> 308 92<206 295.5> 516 98<361 371>
VStem: 30 130<161.5 228.5 161.5 339> 272 130<154.5 233.5>
LayerCount: 2
Fore
SplineSet
361 614 m 1
 371 516 l 1
 245 504 188 434 171 358 c 1
 173 358 l 1
 191 382 225 400 259 400 c 0
 332 400 402 335 402 209 c 0
 402 75 316 -8 217 -8 c 0
 119 -8 30 63 30 240 c 0
 30 438 147 602 361 614 c 1
218 86 m 0
 245 86 272 113 272 196 c 0
 272 271 247 308 213 308 c 0
 199 308 186 299 177 287 c 0
 167 274 160 247 160 210 c 0
 160 113 188 86 218 86 c 0
EndSplineSet
Validated: 1
Substitution2: "'tnum' Tabular Numbers lookup 17 subtable" six.taboldstyle
AlternateSubs2: "'aalt' +BBIEQQQ1 +BDAEOwRMBEIENQRABD0EMARCBDgEMgQ9BEsENQAA +BDIEMARABDgEMAQ9BEIESwAA lookup 1 subtable" six.taboldstyle
EndChar

StartChar: seven.oldstyle
Encoding: 63287 63287 261
Width: 360
Flags: MW
HStem: -118 21G<126 126> 377 112<17 211 17 342>
VStem: 5 337
LayerCount: 2
Fore
SplineSet
342 489 m 1
 342 415 l 1
 330 350 203 28 126 -118 c 1
 5 -102 l 1
 78 30 183 269 211 375 c 1
 211 377 l 1
 17 377 l 1
 17 489 l 1
 342 489 l 1
EndSplineSet
Validated: 1
Substitution2: "'tnum' Tabular Numbers lookup 17 subtable" seven.taboldstyle
AlternateSubs2: "'aalt' +BBIEQQQ1 +BDAEOwRMBEIENQRABD0EMARCBDgEMgQ9BEsENQAA +BDIEMARABDgEMAQ9BEIESwAA lookup 1 subtable" seven.taboldstyle
EndChar

StartChar: eight.oldstyle
Encoding: 63288 63288 262
Width: 440
Flags: MW
HStem: -8 87<201 241 201 268> 535 82
VStem: 31 124<144 190 144 195> 48 121<440 478.5 440 503.5> 276 118<436.5 485> 285 124<136.5 185.5>
LayerCount: 2
Fore
SplineSet
312 327 m 1xe4
 312 323 l 1
 367 291 409 243 409 172 c 0
 409 55 318 -8 218 -8 c 0
 109 -8 31 60 31 161 c 0xe4
 31 229 72 280 126 315 c 1
 126 318 l 1
 75 354 48 401 48 451 c 0
 48 556 131 617 229 617 c 0
 314 617 394 565 394 462 c 0xd8
 394 404 365 360 312 327 c 1xe4
226 535 m 0xd8
 188 536 169 498 169 459 c 0
 169 421 191 388 233 364 c 1
 257 386 276 414 276 459 c 0
 276 511 251 534 226 535 c 0xd8
221 79 m 0xe4
 261 79 285 114 285 159 c 0
 285 212 251 247 209 271 c 1
 177 250 155 214 155 166 c 0
 155 122 181 79 221 79 c 0xe4
EndSplineSet
Validated: 33
Substitution2: "'tnum' Tabular Numbers lookup 17 subtable" eight.taboldstyle
AlternateSubs2: "'aalt' +BBIEQQQ1 +BDAEOwRMBEIENQRABD0EMARCBDgEMgQ9BEsENQAA +BDIEMARABDgEMAQ9BEIESwAA lookup 1 subtable" eight.taboldstyle
EndChar

StartChar: nine.oldstyle
Encoding: 63289 63289 263
Width: 432
Flags: MW
HStem: -121 21G<59 59> 93 86<137.5 227> 402 95<200 229>
VStem: 30 129<253.5 335 253.5 350.5> 271 130<258 321>
LayerCount: 2
Fore
SplineSet
59 -121 m 1
 48 -25 l 1
 180 -12 241 49 260 131 c 1
 258 132 l 1
 242 109 213 93 171 93 c 0
 104 93 30 158 30 285 c 0
 30 416 116 497 217 497 c 0
 314 497 401 416 401 256 c 0
 401 37 275 -114 59 -121 c 1
220 179 m 0
 234 179 246 188 255 200 c 0
 264 212 271 239 271 277 c 0
 271 365 245 402 213 402 c 0
 187 402 159 377 159 293 c 0
 159 214 187 179 220 179 c 0
EndSplineSet
Validated: 1
Substitution2: "'tnum' Tabular Numbers lookup 17 subtable" nine.taboldstyle
AlternateSubs2: "'aalt' +BBIEQQQ1 +BDAEOwRMBEIENQRABD0EMARCBDgEMgQ9BEsENQAA +BDIEMARABDgEMAQ9BEIESwAA lookup 1 subtable" nine.taboldstyle
EndChar

StartChar: percent.oldstyle
Encoding: 63042 63042 264
Width: 678
Flags: MW
HStem: -6 70<516.5 547 516.5 564.5> 219 70<133.5 164.5 133.5 182> 323 69<516.5 547> 548 69<134.5 165>
VStem: 18 88<419 459.5 419 468.5> 190 88<377 455.5> 400 88<194 235 194 243.5> 572 88<152.5 231>
LayerCount: 2
Fore
SplineSet
150 617 m 0
 247 617 278 510 278 421 c 0
 278 283 215 219 149 219 c 0
 58 219 18 318 18 416 c 0
 18 521 65 617 150 617 c 0
149 548 m 0
 120 548 106 500 106 419 c 0
 105 335 118 289 149 289 c 0
 180 289 190 337 190 417 c 0
 190 494 181 548 149 548 c 0
208 -10 m 1
 140 -10 l 1
 469 619 l 1
 537 619 l 1
 208 -10 l 1
532 392 m 0
 629 392 660 285 660 196 c 0
 660 58 597 -6 532 -6 c 0
 440 -6 400 94 400 191 c 0
 400 296 447 392 532 392 c 0
531 323 m 0
 502 323 488 276 488 194 c 0
 487 110 501 64 532 64 c 0
 562 64 572 112 572 193 c 0
 572 269 563 323 531 323 c 0
EndSplineSet
Validated: 33
Substitution2: "'lnum' Lining Figures lookup 15 subtable" percent
Substitution2: "'aalt' +BBIEQQQ1 +BDAEOwRMBEIENQRABD0EMARCBDgEMgQ9BEsENQAA +BDIEMARABDgEMAQ9BEIESwAA lookup 0 subtable" percent
EndChar

StartChar: zero.fitted
Encoding: 63033 63033 265
Width: 426
Flags: MW
HStem: -8 112<194 236.5 194 265.5> 546 112<195.5 237>
VStem: 23 132 271 132<250.5 394.5>
LayerCount: 2
Fore
SplineSet
218 658 m 0
 368 658 403 483 403 328 c 0
 403 95 318 -8 213 -8 c 0
 71 -8 23 155 23 322 c 0
 23 509 83 658 218 658 c 0
216 546 m 0
 175 546 154 476 155 325 c 0
 153 173 172 104 216 104 c 0
 257 104 271 176 271 325 c 0
 271 464 258 546 216 546 c 0
EndSplineSet
Validated: 33
Substitution2: "'zero' Slashed Zero lookup 19 subtable" zero.slashfitted
Substitution2: "'tnum' Tabular Numbers lookup 17 subtable" zero
AlternateSubs2: "'aalt' +BBIEQQQ1 +BDAEOwRMBEIENQRABD0EMARCBDgEMgQ9BEsENQAA +BDIEMARABDgEMAQ9BEIESwAA lookup 1 subtable" zero zero.slashfitted
EndChar

StartChar: one.fitted
Encoding: 63196 63196 266
Width: 317
Flags: MW
HStem: 0 21G<130 130 130 259> 630 20G<145 259 259 259>
VStem: 130 129<0 527 527 527>
LayerCount: 2
Fore
SplineSet
130 0 m 1
 130 527 l 1
 128 527 l 1
 18 470 l 1
 -4 573 l 1
 145 650 l 1
 259 650 l 1
 259 0 l 1
 130 0 l 1
EndSplineSet
Validated: 1
Substitution2: "'tnum' Tabular Numbers lookup 17 subtable" one
AlternateSubs2: "'aalt' +BBIEQQQ1 +BDAEOwRMBEIENQRABD0EMARCBDgEMgQ9BEsENQAA +BDIEMARABDgEMAQ9BEIESwAA lookup 1 subtable" one
EndChar

StartChar: two.fitted
Encoding: 63034 63034 267
Width: 376
Flags: MW
HStem: 0 115<157 355 157 355> 549 109<128.5 161.5>
VStem: 218 129<413.5 486>
LayerCount: 2
Fore
SplineSet
355 0 m 1
 0 0 l 1
 0 88 l 1
 65 171 l 2
 149 278 218 367 218 460 c 0
 218 512 188 549 135 549 c 0
 94 549 61 531 37 516 c 1
 14 618 l 1
 44 637 99 658 158 658 c 0
 300 658 347 563 347 470 c 0
 347 348 270 250 196 163 c 2
 157 117 l 1
 157 115 l 1
 355 115 l 1
 355 0 l 1
EndSplineSet
Validated: 1
Substitution2: "'tnum' Tabular Numbers lookup 17 subtable" two
AlternateSubs2: "'aalt' +BBIEQQQ1 +BDAEOwRMBEIENQRABD0EMARCBDgEMgQ9BEsENQAA +BDIEMARABDgEMAQ9BEIESwAA lookup 1 subtable" two
EndChar

StartChar: three.fitted
Encoding: 63035 63035 268
Width: 361
Flags: MW
HStem: -8 107<96.5 142 93 193.5> 296 96<69 82 69 87 69 82> 551 107<123.5 139>
VStem: 192 130<468.5 499.5> 209 131<165.5 229>
LayerCount: 2
Fore
SplineSet
-5 21 m 1xe8
 14 124 l 1
 39 109 76 99 110 99 c 0
 174 99 209 138 209 193 c 0xe8
 209 265 153 296 87 296 c 2
 69 296 l 1
 69 392 l 1
 82 392 l 2
 130 393 192 413 192 476 c 0
 192 523 162 551 116 551 c 0
 87 551 58 540 34 525 c 1
 17 624 l 1
 44 641 97 658 150 658 c 0
 265 658 322 584 322 501 c 0xf0
 322 436 286 382 229 355 c 1
 229 353 l 1
 292 332 340 276 340 188 c 0
 340 89 264 -8 123 -8 c 0
 70 -8 24 5 -5 21 c 1xe8
EndSplineSet
Validated: 1
Substitution2: "'tnum' Tabular Numbers lookup 17 subtable" three
AlternateSubs2: "'aalt' +BBIEQQQ1 +BDAEOwRMBEIENQRABD0EMARCBDgEMgQ9BEsENQAA +BDIEMARABDgEMAQ9BEIESwAA lookup 1 subtable" three
EndChar

StartChar: four.fitted
Encoding: 63036 63036 269
Width: 418
Flags: MW
HStem: 0 21G<229 345 229 229> 155 105<117 229 117 229 345 409> 500 150<232 235 232 232> 630 20G<218 345 345 345>
VStem: 6 111<155 260 245 260> 229 116<0 155 260 393 393 410.5>
LayerCount: 2
Fore
SplineSet
345 0 m 1xdc
 229 0 l 1
 229 155 l 1
 6 155 l 1
 6 245 l 1
 218 650 l 1
 345 650 l 1
 345 260 l 1
 409 260 l 1
 409 155 l 1
 345 155 l 1
 345 0 l 1xdc
117 260 m 1
 229 260 l 1
 229 393 l 2
 229 428 232 466 235 500 c 1
 232 500 l 1xec
 217 464 204 435 186 399 c 2
 117 262 l 1
 117 260 l 1
EndSplineSet
Validated: 1
Substitution2: "'tnum' Tabular Numbers lookup 17 subtable" four
AlternateSubs2: "'aalt' +BBIEQQQ1 +BDAEOwRMBEIENQRABD0EMARCBDgEMgQ9BEsENQAA +BDIEMARABDgEMAQ9BEIESwAA lookup 1 subtable" four
EndChar

StartChar: five.fitted
Encoding: 63037 63037 270
Width: 373
Flags: MW
HStem: -8 107<99.5 145.5 95.5 194> 326 94<70 170> 536 114<165 338 165 165>
VStem: 220 129<175 253.5>
LayerCount: 2
Fore
SplineSet
338 650 m 1
 338 536 l 1
 165 536 l 1
 150 420 l 1
 157 420 163 420 170 420 c 0
 198 419 255 406 293 371 c 0
 329 336 349 287 349 222 c 0
 349 95 265 -8 123 -8 c 0
 76 -8 27 4 1 18 c 1
 21 122 l 1
 45 110 78 99 113 99 c 0
 178 99 220 140 220 210 c 0
 220 297 154 326 79 326 c 0
 61 326 46 326 32 324 c 1
 69 650 l 1
 338 650 l 1
EndSplineSet
Validated: 1
Substitution2: "'tnum' Tabular Numbers lookup 17 subtable" five
AlternateSubs2: "'aalt' +BBIEQQQ1 +BDAEOwRMBEIENQRABD0EMARCBDgEMgQ9BEsENQAA +BDIEMARABDgEMAQ9BEIESwAA lookup 1 subtable" five
EndChar

StartChar: six.fitted
Encoding: 63038 63038 271
Width: 426
Flags: MW
HStem: -8 95<199.5 241 199.5 284.5> 330 94<205.5 303> 638 20G<355 355>
VStem: 23 133<186.5 244 186.5 331> 277 129<184 223>
LayerCount: 2
Fore
SplineSet
355 658 m 1
 355 552 l 1
 339 551 321 549 301 545 c 0
 215 526 172 454 156 372 c 1
 159 372 l 1
 182 403 216 424 259 424 c 0
 347 424 406 345 406 222 c 0
 406 108 348 -8 221 -8 c 0
 98 -8 23 99 23 260 c 0
 23 402 70 499 130 563 c 0
 172 610 235 641 289 651 c 0
 320 657 341 657 355 658 c 1
219 87 m 0
 263 87 277 145 277 223 c 0
 276 278 258 330 216 330 c 0
 195 330 175 316 163 286 c 0
 159 279 156 259 156 229 c 0
 156 144 180 87 219 87 c 0
EndSplineSet
Validated: 1
Substitution2: "'tnum' Tabular Numbers lookup 17 subtable" six
AlternateSubs2: "'aalt' +BBIEQQQ1 +BDAEOwRMBEIENQRABD0EMARCBDgEMgQ9BEsENQAA +BDIEMARABDgEMAQ9BEIESwAA lookup 1 subtable" six
EndChar

StartChar: seven.fitted
Encoding: 63039 63039 272
Width: 352
Flags: MW
HStem: 0 21G<22 150 22 22> 535 115<0 221 0 354>
VStem: 0 354<564 650 564 650 564 650>
LayerCount: 2
Fore
SplineSet
0 650 m 1
 354 650 l 1
 354 564 l 1
 150 0 l 1
 22 0 l 1
 221 533 l 1
 221 535 l 1
 0 535 l 1
 0 650 l 1
EndSplineSet
Validated: 1
Substitution2: "'tnum' Tabular Numbers lookup 17 subtable" seven
AlternateSubs2: "'aalt' +BBIEQQQ1 +BDAEOwRMBEIENQRABD0EMARCBDgEMgQ9BEsENQAA +BDIEMARABDgEMAQ9BEIESwAA lookup 1 subtable" seven
EndChar

StartChar: eight.fitted
Encoding: 63040 63040 273
Width: 426
Flags: MW
HStem: -8 88<192.5 235.5 192.5 263.5> 570 88<198 236>
VStem: 20 127<156 209 156 209.5> 38 123<468 511 468 540> 270 120<476.5 508> 278 127<149.5 207.5>
LayerCount: 2
Fore
SplineSet
210 -8 m 0xe4
 99 -8 20 63 20 169 c 0xe4
 20 250 65 308 118 342 c 1
 118 344 l 1
 63 380 38 436 38 487 c 0
 38 593 122 658 222 658 c 0
 315 658 390 595 390 498 c 0xd8
 390 455 373 397 305 354 c 1
 305 352 l 1
 365 319 405 259 405 182 c 0
 405 62 317 -8 210 -8 c 0xe4
215 80 m 0
 256 80 278 122 278 177 c 0
 278 238 240 278 203 297 c 1
 170 274 147 234 147 184 c 0
 147 128 170 80 215 80 c 0
217 570 m 0xd8
 179 570 161 531 161 491 c 0
 161 445 187 413 225 393 c 1
 253 408 270 448 270 486 c 0
 270 530 255 570 217 570 c 0xd8
EndSplineSet
Validated: 1
Substitution2: "'tnum' Tabular Numbers lookup 17 subtable" eight
AlternateSubs2: "'aalt' +BBIEQQQ1 +BDAEOwRMBEIENQRABD0EMARCBDgEMgQ9BEsENQAA +BDIEMARABDgEMAQ9BEIESwAA lookup 1 subtable" eight
EndChar

StartChar: nine.fitted
Encoding: 63041 63041 274
Width: 426
Flags: MW
HStem: -8 109<74 84> 236 90<194 198> 563 95<194 228.5>
VStem: 24 129 270 132<276 469.5 407.5 469.5 317.5 472>
LayerCount: 2
Fore
SplineSet
74 -8 m 1
 74 101 l 1
 99 101 112 102 134 106 c 0
 159 111 188 124 210 145 c 0
 238 172 262 218 273 276 c 1
 270 276 l 1
 249 253 219 236 177 236 c 0
 93 236 24 311 24 430 c 0
 24 542 93 658 218 658 c 0
 339 658 402 548 402 391 c 0
 402 244 355 141 295 77 c 0
 255 34 198 5 135 -5 c 0
 114 -8 94 -8 74 -8 c 1
211 563 m 0
 177 563 152 520 153 441 c 0
 154 378 174 326 214 326 c 0
 237 326 257 343 264 360 c 0
 269 373 270 386 270 429 c 0
 270 515 246 563 211 563 c 0
EndSplineSet
Validated: 33
Substitution2: "'tnum' Tabular Numbers lookup 17 subtable" nine
AlternateSubs2: "'aalt' +BBIEQQQ1 +BDAEOwRMBEIENQRABD0EMARCBDgEMgQ9BEsENQAA +BDIEMARABDgEMAQ9BEIESwAA lookup 1 subtable" nine
EndChar

StartChar: zero.slashfitted
Encoding: 57352 57352 275
Width: 426
Flags: MW
HStem: -8 112<200.5 234.5 200.5 265.5> 546 112<193 226.5>
VStem: 23 124<312 400.5 312 415.5> 279 124<250.5 338.5>
LayerCount: 2
Fore
SplineSet
152 247 m 1
 261 501 l 1
 253 528 238 546 215 546 c 0
 171 546 147 476 147 325 c 0
 147 299 149 275 152 247 c 1
274 406 m 1
 165 145 l 1
 174 121 189 104 212 104 c 0
 257 104 279 176 279 325 c 0
 279 352 278 377 274 406 c 1
218 658 m 0
 368 658 403 483 403 328 c 0
 403 95 318 -8 213 -8 c 0
 71 -8 23 155 23 322 c 0
 23 509 83 658 218 658 c 0
EndSplineSet
Validated: 1
AlternateSubs2: "'aalt' +BBIEQQQ1 +BDAEOwRMBEIENQRABD0EMARCBDgEMgQ9BEsENQAA +BDIEMARABDgEMAQ9BEIESwAA lookup 1 subtable" zero.fitted zero.oldstyle zero.taboldstyle zero.superior zero.inferior zero.numerator zero.denominator
EndChar

StartChar: zero.taboldstyle
Encoding: 63043 63043 276
Width: 431
Flags: MW
HStem: -8 100<195.5 235.5 195.5 261> 397 100<195 235>
VStem: 29 122<192 298 192 335.5> 280 122<192 298>
LayerCount: 2
Fore
SplineSet
215 -8 m 0
 124 -8 29 63 29 245 c 0
 29 426 124 497 215 497 c 0
 307 497 402 426 402 245 c 0
 402 63 307 -8 215 -8 c 0
215 92 m 0
 256 92 280 139 280 245 c 0
 280 351 255 397 215 397 c 0
 175 397 151 351 151 245 c 0
 151 139 176 92 215 92 c 0
EndSplineSet
Validated: 1
Substitution2: "'pnum' Proportional Numbers lookup 16 subtable" zero.oldstyle
Substitution2: "'lnum' Lining Figures lookup 15 subtable" zero
AlternateSubs2: "'aalt' +BBIEQQQ1 +BDAEOwRMBEIENQRABD0EMARCBDgEMgQ9BEsENQAA +BDIEMARABDgEMAQ9BEIESwAA lookup 1 subtable" zero zero.oldstyle
EndChar

StartChar: one.taboldstyle
Encoding: 63044 63044 277
Width: 431
Flags: MW
HStem: 0 21G<193 323 193 193> 473 20G<220 323 323 323>
VStem: 193 130<0 379 379 379>
LayerCount: 2
Fore
SplineSet
323 0 m 1
 193 0 l 1
 193 379 l 1
 191 379 l 1
 55 319 l 1
 36 417 l 1
 220 493 l 1
 323 493 l 1
 323 0 l 1
EndSplineSet
Validated: 1
Substitution2: "'pnum' Proportional Numbers lookup 16 subtable" one.oldstyle
Substitution2: "'lnum' Lining Figures lookup 15 subtable" one
AlternateSubs2: "'aalt' +BBIEQQQ1 +BDAEOwRMBEIENQRABD0EMARCBDgEMgQ9BEsENQAA +BDIEMARABDgEMAQ9BEIESwAA lookup 1 subtable" one one.oldstyle
EndChar

StartChar: two.taboldstyle
Encoding: 63045 63045 278
Width: 431
Flags: MW
HStem: 0 108<296 375 296 375> 391 106<167 177>
VStem: 229 123<297 341.5>
LayerCount: 2
Fore
SplineSet
375 0 m 1
 50 0 l 1
 50 76 l 1
 95 118 l 2
 165 185 229 252 229 317 c 0
 229 366 200 391 154 391 c 0
 126 391 99 380 78 367 c 1
 48 453 l 1
 82 475 137 497 197 497 c 0
 288 497 352 438 352 341 c 0
 352 253 302 193 234 131 c 1
 208 105 l 1
 208 103 l 1
 231 105 273 108 296 108 c 2
 375 108 l 1
 375 0 l 1
EndSplineSet
Validated: 1
Substitution2: "'pnum' Proportional Numbers lookup 16 subtable" two.oldstyle
Substitution2: "'lnum' Lining Figures lookup 15 subtable" two
AlternateSubs2: "'aalt' +BBIEQQQ1 +BDAEOwRMBEIENQRABD0EMARCBDgEMgQ9BEsENQAA +BDIEMARABDgEMAQ9BEIESwAA lookup 1 subtable" two two.oldstyle
EndChar

StartChar: three.taboldstyle
Encoding: 63046 63046 279
Width: 431
Flags: MW
HStem: -125 106<123 160 114 202> 150 100 390 107<160.5 181.5>
VStem: 100.5 145.5 229 122<321 350.5> 240 130<42.5 94>
LayerCount: 2
Fore
SplineSet
51 -113 m 1xe4
 64 -12 l 1
 76 -16 102 -19 126 -19 c 0
 194 -19 240 16 240 69 c 0
 240 119 201 150 141 150 c 0xe4
 128 150 111 150 101 149 c 1
 100 249 l 1xf0
 128 251 l 2
 182 256 229 284 229 331 c 0
 229 370 202 390 161 390 c 0
 130 390 100 382 79 372 c 1
 60 468 l 1
 85 483 133 497 188 497 c 0
 285 497 351 439 351 358 c 0xe8
 351 284 302 232 246 219 c 1
 246 216 l 1xf0
 318 202 370 147 370 68 c 0
 370 -54 260 -125 144 -125 c 0
 102 -125 70 -119 51 -113 c 1xe4
EndSplineSet
Validated: 1
Substitution2: "'pnum' Proportional Numbers lookup 16 subtable" three.oldstyle
Substitution2: "'lnum' Lining Figures lookup 15 subtable" three
AlternateSubs2: "'aalt' +BBIEQQQ1 +BDAEOwRMBEIENQRABD0EMARCBDgEMgQ9BEsENQAA +BDIEMARABDgEMAQ9BEIESwAA lookup 1 subtable" three three.oldstyle
EndChar

StartChar: four.taboldstyle
Encoding: 63047 63047 280
Width: 431
Flags: MW
HStem: -118 21G<232 344 232 232> 39 102<128 232 128 232 344 409> 363 128<233 236 233 233> 471 20G<218 344 344 344>
VStem: 18 110<39 144 127 144> 232 112<-118 39 -118 39 141 269 269 284.5>
LayerCount: 2
Fore
SplineSet
409 39 m 1xdc
 344 39 l 1
 344 -118 l 1
 232 -118 l 1
 232 39 l 1
 18 39 l 1
 18 127 l 1
 218 491 l 1
 344 491 l 1
 344 141 l 1
 409 141 l 1
 409 39 l 1xdc
232 141 m 1
 232 269 l 2
 232 300 232 330 236 363 c 1
 233 363 l 1xec
 224 334 205 290 190 261 c 2
 128 144 l 1
 128 141 l 1
 232 141 l 1
EndSplineSet
Validated: 1
Substitution2: "'pnum' Proportional Numbers lookup 16 subtable" four.oldstyle
Substitution2: "'lnum' Lining Figures lookup 15 subtable" four
AlternateSubs2: "'aalt' +BBIEQQQ1 +BDAEOwRMBEIENQRABD0EMARCBDgEMgQ9BEsENQAA +BDIEMARABDgEMAQ9BEIESwAA lookup 1 subtable" four four.oldstyle
EndChar

StartChar: five.taboldstyle
Encoding: 63048 63048 281
Width: 431
Flags: MW
HStem: -124 106<118.5 151.5 110 199> 378 111<202 349 202 202>
VStem: 235 131<45 90.5>
LayerCount: 2
Fore
SplineSet
51 -112 m 1
 63 -12 l 1
 77 -15 95 -18 125 -18 c 0
 178 -18 235 13 235 77 c 0
 235 104 227 129 209 145 c 0
 182 171 126 182 67 181 c 1
 116 489 l 1
 364 489 l 1
 349 378 l 1
 202 378 l 1
 183 268 l 1
 237 262 287 242 321 209 c 0
 350 180 366 140 366 88 c 0
 366 -41 264 -124 134 -124 c 0
 103 -124 68 -119 51 -112 c 1
EndSplineSet
Validated: 33
Substitution2: "'pnum' Proportional Numbers lookup 16 subtable" five.oldstyle
Substitution2: "'lnum' Lining Figures lookup 15 subtable" five
AlternateSubs2: "'aalt' +BBIEQQQ1 +BDAEOwRMBEIENQRABD0EMARCBDgEMgQ9BEsENQAA +BDIEMARABDgEMAQ9BEIESwAA lookup 1 subtable" five five.oldstyle
EndChar

StartChar: six.taboldstyle
Encoding: 63049 63049 282
Width: 431
Flags: MW
HStem: -8 94<204 232.5 204 266.5> 308 92<206.5 296.5> 516 98<361 372>
VStem: 31 130<161.5 228.5 161.5 339> 273 130<154.5 233.5>
LayerCount: 2
Fore
SplineSet
361 614 m 1
 372 516 l 1
 245 504 188 434 172 358 c 1
 174 358 l 1
 191 382 226 400 260 400 c 0
 333 400 403 335 403 209 c 0
 403 75 316 -8 217 -8 c 0
 119 -8 31 63 31 240 c 0
 31 438 148 602 361 614 c 1
219 86 m 0
 246 86 273 113 273 196 c 0
 273 271 248 308 214 308 c 0
 199 308 187 299 177 287 c 0
 167 274 161 247 161 210 c 0
 161 113 189 86 219 86 c 0
EndSplineSet
Validated: 1
Substitution2: "'pnum' Proportional Numbers lookup 16 subtable" six.oldstyle
Substitution2: "'lnum' Lining Figures lookup 15 subtable" six
AlternateSubs2: "'aalt' +BBIEQQQ1 +BDAEOwRMBEIENQRABD0EMARCBDgEMgQ9BEsENQAA +BDIEMARABDgEMAQ9BEIESwAA lookup 1 subtable" six six.oldstyle
EndChar

StartChar: seven.taboldstyle
Encoding: 63050 63050 283
Width: 431
Flags: MW
HStem: -118 21G<164 164> 377 112<54 249 54 380>
VStem: 43 337
LayerCount: 2
Fore
SplineSet
380 489 m 1
 380 415 l 1
 367 350 240 28 164 -118 c 1
 43 -102 l 1
 116 30 221 269 249 375 c 1
 249 377 l 1
 54 377 l 1
 54 489 l 1
 380 489 l 1
EndSplineSet
Validated: 1
Substitution2: "'pnum' Proportional Numbers lookup 16 subtable" seven.oldstyle
Substitution2: "'lnum' Lining Figures lookup 15 subtable" seven
AlternateSubs2: "'aalt' +BBIEQQQ1 +BDAEOwRMBEIENQRABD0EMARCBDgEMgQ9BEsENQAA +BDIEMARABDgEMAQ9BEIESwAA lookup 1 subtable" seven seven.oldstyle
EndChar

StartChar: eight.taboldstyle
Encoding: 63051 63051 284
Width: 431
Flags: MW
HStem: -8 87<194.5 234.5 194.5 261> 535 82
VStem: 25 124<144 190 144 195> 42 120<440 478.5 440 503.5> 270 117<436.5 485> 278 124<136.5 185.5>
LayerCount: 2
Fore
SplineSet
306 327 m 1xe4
 306 323 l 1
 360 291 402 243 402 172 c 0
 402 55 311 -8 211 -8 c 0
 102 -8 25 60 25 161 c 0xe4
 25 229 66 280 119 315 c 1
 119 318 l 1
 68 354 42 401 42 451 c 0
 42 556 124 617 223 617 c 0
 308 617 387 565 387 462 c 0xd8
 387 404 359 360 306 327 c 1xe4
219 535 m 0xd8
 182 536 162 498 162 459 c 0
 162 421 184 388 227 364 c 1
 251 386 270 414 270 459 c 0
 270 511 244 534 219 535 c 0xd8
215 79 m 0xe4
 254 79 278 114 278 159 c 0
 278 212 244 247 202 271 c 1
 171 250 149 214 149 166 c 0
 149 122 174 79 215 79 c 0xe4
EndSplineSet
Validated: 33
Substitution2: "'pnum' Proportional Numbers lookup 16 subtable" eight.oldstyle
Substitution2: "'lnum' Lining Figures lookup 15 subtable" eight
AlternateSubs2: "'aalt' +BBIEQQQ1 +BDAEOwRMBEIENQRABD0EMARCBDgEMgQ9BEsENQAA +BDIEMARABDgEMAQ9BEIESwAA lookup 1 subtable" eight eight.oldstyle
EndChar

StartChar: nine.taboldstyle
Encoding: 63052 63052 285
Width: 431
Flags: MW
HStem: -121 21G<59 59> 93 86<137.5 227> 402 95<200 229>
VStem: 30 128<253.5 335 253.5 350.5> 271 129<258 321>
LayerCount: 2
Fore
SplineSet
59 -121 m 1
 48 -25 l 1
 180 -12 241 49 260 131 c 1
 258 132 l 1
 242 109 213 93 171 93 c 0
 104 93 30 158 30 285 c 0
 30 416 116 497 217 497 c 0
 314 497 400 416 400 256 c 0
 400 37 275 -114 59 -121 c 1
220 179 m 0
 234 179 246 188 255 200 c 0
 264 212 271 239 271 277 c 0
 271 365 245 402 213 402 c 0
 187 402 158 377 158 293 c 0
 158 214 186 179 220 179 c 0
EndSplineSet
Validated: 1
Substitution2: "'pnum' Proportional Numbers lookup 16 subtable" nine.oldstyle
Substitution2: "'lnum' Lining Figures lookup 15 subtable" nine
AlternateSubs2: "'aalt' +BBIEQQQ1 +BDAEOwRMBEIENQRABD0EMARCBDgEMgQ9BEsENQAA +BDIEMARABDgEMAQ9BEIESwAA lookup 1 subtable" nine nine.oldstyle
EndChar

StartChar: dollar.taboldstyle
Encoding: 63059 63059 286
Width: 431
Flags: MW
HStem: -70 168<166.5 204.5 166.5 248 164 204.5> 394 171<226.5 262 178 265.5>
VStem: 58 122<344 366 344 381> 164 84<-70 4 4 4> 178 84<489 565 489 565 489 565> 254 122<128 154.5>
LayerCount: 2
Fore
SplineSet
248 -70 m 1xd0
 164 -70 l 1
 164 4 l 1xd0
 121 6 82 17 56 30 c 1
 76 123 l 1
 104 109 151 98 182 98 c 0
 227 98 254 114 254 142 c 0
 254 167 236 184 173 213 c 0
 91 252 58 290 58 352 c 0xe4
 58 410 102 461 178 481 c 1
 178 565 l 1
 262 565 l 1
 262 489 l 1
 305 488 333 478 358 467 c 1
 333 375 l 1xc8
 311 386 282 394 249 394 c 0
 204 394 180 377 180 355 c 0
 180 333 193 320 265 290 c 0
 339 258 376 211 376 150 c 0xe4
 376 77 324 26 248 10 c 1
 248 -70 l 1xd0
EndSplineSet
Validated: 1
Substitution2: "'lnum' Lining Figures lookup 15 subtable" dollar
AlternateSubs2: "'aalt' +BBIEQQQ1 +BDAEOwRMBEIENQRABD0EMARCBDgEMgQ9BEsENQAA +BDIEMARABDgEMAQ9BEIESwAA lookup 1 subtable" dollar
EndChar

StartChar: cent.taboldstyle
Encoding: 63060 63060 287
Width: 431
Flags: MW
HStem: -14 156<233.5 273 197 274.5> 376 156<229 269.5>
VStem: 51 118<220.5 294 220.5 310.5> 197 76<-14 53 -14 56 -14 56 468 532>
LayerCount: 2
Fore
SplineSet
332 155 m 1
 342 66 l 1
 328 60 303 54 273 53 c 1
 273 -14 l 1
 197 -14 l 1
 197 56 l 1xd0
 99 76 51 158 51 257 c 0xf0
 51 364 111 440 197 462 c 1
 197 532 l 1
 273 532 l 1
 273 468 l 1
 299 466 322 460 337 453 c 1
 322 363 l 1xd0
 306 370 284 376 255 376 c 0
 203 376 169 331 169 257 c 0
 169 184 207 142 260 142 c 0xf0
 289 142 311 147 332 155 c 1
EndSplineSet
Validated: 1
Substitution2: "'lnum' Lining Figures lookup 15 subtable" cent
AlternateSubs2: "'aalt' +BBIEQQQ1 +BDAEOwRMBEIENQRABD0EMARCBDgEMgQ9BEsENQAA +BDIEMARABDgEMAQ9BEIESwAA lookup 1 subtable" cent
EndChar

StartChar: Euro.taboldstyle
Encoding: 63054 63054 288
Width: 431
Flags: MW
HStem: -8 108<312 325.5> 178 62<42 85 42 91 42 85 226 226 226 354> 287 62<42 85 42 93 226 354> 430 108<308 328.5 280.5 331.5>
VStem: 85 131<240 240 240 287>
LayerCount: 2
Fore
SplineSet
385 114 m 1
 398 11 l 1
 379 2 345 -8 306 -8 c 0
 252 -8 194 10 155 49 c 0
 125 80 102 123 91 178 c 1
 42 178 l 1
 42 240 l 1
 85 240 l 1
 84 250 84 256 84 260 c 0
 84 267 84 276 85 287 c 1
 42 287 l 1
 42 349 l 1
 93 349 l 1
 103 403 127 448 158 479 c 0
 198 518 250 538 311 538 c 0
 346 538 376 531 396 523 c 1
 377 421 l 1
 364 425 343 430 320 430 c 0
 296 430 271 422 255 407 c 0
 241 393 230 375 226 349 c 1
 354 349 l 1
 354 287 l 1
 216 287 l 1
 215 277 215 268 215 261 c 0
 215 256 215 250 216 240 c 1
 354 240 l 1
 354 178 l 1
 226 178 l 1
 232 155 241 138 254 125 c 0
 271 108 300 100 324 100 c 0
 346 100 369 106 385 114 c 1
EndSplineSet
Validated: 1
Substitution2: "'lnum' Lining Figures lookup 15 subtable" Euro
Substitution2: "'aalt' +BBIEQQQ1 +BDAEOwRMBEIENQRABD0EMARCBDgEMgQ9BEsENQAA +BDIEMARABDgEMAQ9BEIESwAA lookup 0 subtable" Euro
EndChar

StartChar: florin.taboldstyle
Encoding: 63055 63055 289
Width: 431
Flags: MW
HStem: -126 102<67.5 80 60.5 143> 250 101<80 152 80 145 276 367> 514 103<332.5 361.5 289 363>
VStem: 154.5 124.5
LayerCount: 2
Fore
SplineSet
80 250 m 1
 80 351 l 1
 152 351 l 1
 157 408 l 2
 166 526 229 617 349 617 c 0
 374 617 396 612 411 605 c 1
 394 508 l 1
 382 512 370 514 356 514 c 0
 309 514 288 470 282 409 c 2
 276 351 l 1
 367 351 l 1
 367 250 l 1
 269 250 l 1
 252 71 l 2
 242 -35 205 -126 81 -126 c 0
 54 -126 26 -120 9 -111 c 1
 28 -16 l 1
 40 -21 55 -24 66 -24 c 0
 94 -24 120 -5 128 75 c 2
 145 250 l 1
 80 250 l 1
EndSplineSet
Validated: 1
Substitution2: "'lnum' Lining Figures lookup 15 subtable" florin
Substitution2: "'aalt' +BBIEQQQ1 +BDAEOwRMBEIENQRABD0EMARCBDgEMgQ9BEsENQAA +BDIEMARABDgEMAQ9BEIESwAA lookup 0 subtable" florin
EndChar

StartChar: sterling.taboldstyle
Encoding: 63057 63057 290
Width: 431
Flags: MW
HStem: 0 108<193 386 193 386> 224 75<45 102 45 118 45 102 239 239 239 338> 441 110<266.5 300.5>
VStem: 95 125<350.5 385.5 350.5 413> 121 120<181.5 192>
LayerCount: 2
Fore
SplineSet
386 0 m 1xd0
 39 0 l 1
 39 79 l 1
 91 101 121 141 121 186 c 0
 121 198 120 212 118 224 c 1
 45 224 l 1
 45 299 l 1xc8
 102 299 l 1
 98 319 95 340 95 361 c 0
 95 465 164 551 281 551 c 0
 322 551 347 542 363 534 c 1
 344 428 l 1
 330 435 313 441 288 441 c 0
 245 441 220 411 220 360 c 0
 220 341 223 319 227 299 c 1xf0
 338 299 l 1
 338 224 l 1
 239 224 l 1
 240 216 241 210 241 204 c 0
 241 159 217 128 193 110 c 1
 193 108 l 1xc8
 386 108 l 1
 386 0 l 1xd0
EndSplineSet
Validated: 1
Substitution2: "'lnum' Lining Figures lookup 15 subtable" sterling
Substitution2: "'aalt' +BBIEQQQ1 +BDAEOwRMBEIENQRABD0EMARCBDgEMgQ9BEsENQAA +BDIEMARABDgEMAQ9BEIESwAA lookup 0 subtable" sterling
EndChar

StartChar: yen.taboldstyle
Encoding: 63058 63058 291
Width: 431
Flags: MW
HStem: 108 67<36 155 36 155 275 394> 221 66<36 127 36 155 36 127 303 394>
VStem: 36 183<108 301 175 301 221 301 287 301> 155 120<0 108 0 108 175 221>
LayerCount: 2
Fore
SplineSet
275 0 m 1xd0
 155 0 l 1
 155 108 l 1
 36 108 l 1
 36 175 l 1
 155 175 l 1
 155 221 l 1xd0
 36 221 l 1
 36 287 l 1
 127 287 l 1
 13 530 l 1xe0
 144 530 l 1
 191 396 l 2
 204 360 213 328 219 301 c 1
 221 301 l 1
 228 329 236 361 249 398 c 2
 295 530 l 1
 418 530 l 1
 303 287 l 1
 394 287 l 1
 394 221 l 1
 275 221 l 1
 275 175 l 1
 394 175 l 1
 394 108 l 1
 275 108 l 1
 275 0 l 1xd0
EndSplineSet
Validated: 1
Substitution2: "'lnum' Lining Figures lookup 15 subtable" yen
Substitution2: "'aalt' +BBIEQQQ1 +BDAEOwRMBEIENQRABD0EMARCBDgEMgQ9BEsENQAA +BDIEMARABDgEMAQ9BEIESwAA lookup 0 subtable" yen
EndChar

StartChar: numbersign.taboldstyle
Encoding: 63056 63056 292
Width: 431
Flags: MW
HStem: 147 75<15 87 15 97 15 161 171 233 317 391> 337 75<37 111 37 121 195 257 37 185 340 411>
VStem: 15 396<147 412 222 412>
LayerCount: 2
Fore
SplineSet
171 222 m 1
 242 222 l 1
 257 337 l 1
 185 337 l 1
 171 222 l 1
139 -32 m 1
 64 -32 l 1
 87 147 l 1
 15 147 l 1
 15 222 l 1
 97 222 l 1
 111 337 l 1
 37 337 l 1
 37 412 l 1
 121 412 l 1
 143 586 l 1
 217 586 l 1
 195 412 l 1
 267 412 l 1
 289 586 l 1
 363 586 l 1
 340 412 l 1
 411 412 l 1
 411 337 l 1
 331 337 l 1
 317 222 l 1
 391 222 l 1
 391 147 l 1
 307 147 l 1
 285 -32 l 1
 210 -32 l 1
 233 147 l 1
 161 147 l 1
 139 -32 l 1
EndSplineSet
Validated: 1
Substitution2: "'lnum' Lining Figures lookup 15 subtable" numbersign
Substitution2: "'aalt' +BBIEQQQ1 +BDAEOwRMBEIENQRABD0EMARCBDgEMgQ9BEsENQAA +BDIEMARABDgEMAQ9BEIESwAA lookup 0 subtable" numbersign
EndChar

StartChar: zero.superior
Encoding: 8304 8304 293
Width: 291
Flags: MW
HStem: 412 77<135 158.5 135 184> 735 77<136.5 160>
VStem: 16 93<567 656.5 567 664> 182 93<567 654>
LayerCount: 2
Fore
SplineSet
146 412 m 0
 48 412 16 513 16 610 c 0
 16 718 55 812 148 812 c 0
 251 812 275 704 275 614 c 0
 275 480 222 412 146 412 c 0
147 489 m 0
 170 489 182 522 182 612 c 0
 182 696 172 735 148 735 c 0
 125 735 109 701 109 612 c 0
 109 522 123 489 147 489 c 0
EndSplineSet
Validated: 1
EndChar

StartChar: one.superior
Encoding: 65539 -1 294
Width: 239
Flags: MW
HStem: 417 21G<98 192 98 98> 724 83<96 192 96 192>
VStem: 98 94<417 724 724 724>
LayerCount: 2
Fore
SplineSet
192 417 m 1
 98 417 l 1
 98 724 l 1
 96 724 l 1
 26 691 l 1
 8 760 l 1
 108 807 l 1
 192 807 l 1
 192 417 l 1
EndSplineSet
Validated: 1
EndChar

StartChar: two.superior
Encoding: 65540 -1 295
Width: 274
Flags: MW
HStem: 417 80<125 251 125 251> 733 79<97 110.5>
VStem: 146 101<662.5 699>
LayerCount: 2
Fore
SplineSet
8 417 m 1
 8 470 l 1
 54 527 l 2
 106 590 146 635 146 680 c 0
 146 718 125 733 96 733 c 0
 72 733 48 722 32 710 c 1
 13 779 l 1
 33 797 73 812 121 812 c 0
 217 812 247 752 247 699 c 0
 247 626 191 571 142 519 c 2
 125 500 l 1
 125 497 l 1
 251 497 l 1
 251 417 l 1
 8 417 l 1
EndSplineSet
Validated: 1
EndChar

StartChar: three.superior
Encoding: 65541 -1 296
Width: 260
Flags: MW
HStem: 412 21G<72.5 138> 412 71<73.5 103.5 73.5 138> 593 62<59 67 67 71 59 67> 741 71<96.5 107.5>
VStem: 59 108<624 626 624 655 624 655> 140 92<695 713> 145 98<520.5 554.5>
LayerCount: 2
Fore
SplineSet
35 723 m 1x72
 21 789 l 1
 43 801 78 812 115 812 c 0
 199 812 232 763 232 717 c 0x74
 232 673 207 643 167 626 c 1
 167 624 l 1x78
 209 616 243 579 243 533 c 0
 243 463 185 412 91 412 c 0x72
 54 412 25 420 6 431 c 1xb2
 20 500 l 1
 37 491 60 483 87 483 c 0
 120 483 145 505 145 536 c 0
 145 573 113 593 71 593 c 2x72
 59 593 l 1x78
 59 655 l 1
 67 655 l 2
 99 655 140 667 140 700 c 0
 140 726 121 741 94 741 c 0x74
 71 741 54 734 35 723 c 1x72
EndSplineSet
Validated: 1
EndChar

StartChar: four.superior
Encoding: 8308 8308 297
Width: 301
Flags: MW
HStem: 417 158<88 243 88 158> 506 69<88 158 88 158 243 285> 712 96<159 161 159 159>
VStem: 158 85<417 506 575 646 646 659>
LayerCount: 2
Fore
SplineSet
243 417 m 1xb0
 158 417 l 1xb0
 158 506 l 1
 10 506 l 1
 10 566 l 1x70
 151 808 l 1
 243 808 l 1
 243 575 l 1
 285 575 l 1xb0
 285 506 l 1
 243 506 l 1x70
 243 417 l 1xb0
158 575 m 1
 158 646 l 2
 158 672 160 695 161 712 c 1
 159 712 l 1
 150 693 145 678 134 660 c 2
 88 577 l 1
 88 575 l 1
 158 575 l 1
EndSplineSet
Validated: 1
EndChar

StartChar: five.superior
Encoding: 8309 8309 298
Width: 275
Flags: MW
HStem: 412 75<84.5 114 82.5 150> 606 64<61.5 132> 728 79<124 241 124 124>
VStem: 159 93<524.5 566>
LayerCount: 2
Fore
SplineSet
241 807 m 1
 241 728 l 1
 124 728 l 1
 118 670 l 2
 120 670 130 670 132 670 c 0
 155 670 191 662 215 641 c 0
 239 620 252 590 252 550 c 0
 252 476 198 412 102 412 c 0
 67 412 33 420 16 429 c 1
 30 501 l 1
 46 494 70 487 95 487 c 0
 133 487 159 506 159 543 c 0
 159 589 121 606 68 606 c 0
 55 606 45 605 34 604 c 1
 56 807 l 1
 241 807 l 1
EndSplineSet
Validated: 1
EndChar

StartChar: six.superior
Encoding: 8310 8310 299
Width: 295
Flags: MW
HStem: 412 68<138 164 138 194> 611 64<141.5 207.5> 738 74<237.5 242 237.5 242>
VStem: 19 93<533.5 562 533.5 618> 185 93<534 566.5>
LayerCount: 2
Fore
SplineSet
242 812 m 1
 242 738 l 1
 231 738 220 737 207 735 c 0
 150 727 124 691 113 647 c 1
 115 647 l 1
 131 664 152 675 179 675 c 0
 236 675 278 628 278 552 c 0
 278 482 235 412 153 412 c 0
 68 412 19 479 19 576 c 0
 19 660 48 719 87 756 c 0
 118 786 160 804 200 809 c 0
 220 811 233 812 242 812 c 1
151 480 m 0
 177 480 185 515 185 553 c 0
 185 580 175 611 148 611 c 0
 135 611 122 602 116 587 c 0
 114 582 112 571 112 553 c 0
 112 514 125 480 151 480 c 0
EndSplineSet
Validated: 1
EndChar

StartChar: seven.superior
Encoding: 8311 8311 300
Width: 259
Flags: MW
HStem: 417 21G<25 118 25 25> 727 80<12 155 12 250>
VStem: 12 238<747 807 747 807 747 807>
LayerCount: 2
Fore
SplineSet
12 807 m 1
 250 807 l 1
 250 747 l 1
 118 417 l 1
 25 417 l 1
 155 725 l 1
 155 727 l 1
 12 727 l 1
 12 807 l 1
EndSplineSet
Validated: 1
EndChar

StartChar: eight.superior
Encoding: 8312 8312 301
Width: 300
Flags: MW
HStem: 412 62<138 163.5 138 184> 752 60<139.5 163.5>
VStem: 20 89<513.5 543 513.5 544> 30 87<696 718.5 696 739> 184 84<700.5 716> 189 90<511 541.5>
LayerCount: 2
Fore
SplineSet
154 812 m 0xd8
 221 812 268 772 268 714 c 0xe8
 268 687 257 653 217 629 c 1
 217 628 l 1
 252 611 279 576 279 529 c 0
 279 454 221 412 147 412 c 0
 69 412 20 457 20 521 c 0xe4
 20 567 45 600 79 620 c 1
 79 621 l 1
 45 642 30 675 30 706 c 0
 30 772 85 812 154 812 c 0xd8
151 474 m 0xe4
 176 474 189 497 189 525 c 0
 189 558 165 581 143 589 c 1
 125 579 109 557 109 529 c 0
 109 498 125 474 151 474 c 0xe4
152 752 m 0xd8
 127 752 117 729 117 708 c 0
 117 684 133 666 157 656 c 1
 173 662 184 685 184 705 c 0
 184 727 175 752 152 752 c 0xd8
EndSplineSet
Validated: 1
EndChar

StartChar: nine.superior
Encoding: 8313 8313 302
Width: 291
Flags: MW
HStem: 412 75<49 55> 555 62<131.5 132> 744 68<132.5 154.5>
VStem: 16 92<663.5 698.5 663.5 707.5> 178 94<662.5 694.5>
LayerCount: 2
Fore
SplineSet
49 412 m 1
 49 487 l 1
 64 487 73 487 88 489 c 0
 106 492 125 499 140 510 c 0
 158 524 172 549 179 577 c 1
 177 577 l 1
 164 564 145 555 119 555 c 0
 64 555 16 600 16 673 c 0
 16 742 64 812 146 812 c 0
 229 812 272 743 272 648 c 0
 272 560 242 499 204 461 c 0
 175 434 135 417 88 413 c 0
 74 411 61 412 49 412 c 1
143 744 m 0
 122 744 108 718 108 679 c 0
 108 648 119 617 144 617 c 0
 159 617 171 626 174 634 c 0
 177 642 178 650 178 675 c 0
 178 714 166 744 143 744 c 0
EndSplineSet
Validated: 33
EndChar

StartChar: period.superior
Encoding: 63208 63208 303
Width: 152
Flags: MW
HStem: 412 118<62.5 91.5 62.5 92>
VStem: 23 107<453 488.5>
LayerCount: 2
Fore
SplineSet
76 412 m 0
 46 412 23 435 23 471 c 0
 23 506 48 530 77 530 c 0
 106 530 130 508 130 471 c 0
 130 435 108 412 76 412 c 0
EndSplineSet
Validated: 1
EndChar

StartChar: comma.superior
Encoding: 63202 63202 304
Width: 152
Flags: MW
HStem: 346 170
VStem: -1 136
LayerCount: 2
Fore
SplineSet
59 349 m 1
 -1 343 l 1
 18 399 34 461 42 513 c 1
 135 519 l 1
 115 461 90 399 59 349 c 1
EndSplineSet
Validated: 1
EndChar

StartChar: dollar.superior
Encoding: 63204 63204 305
Width: 267
Flags: MW
HStem: 365 133<97 124 96 156 97 97> 727 125<141 165 106 168.5>
VStem: 26 89<688.5 705 688.5 712.5> 97 59<365 426 426 426> 106 59<798 852 798 852 798 852> 153 89<520 539.5>
LayerCount: 2
Fore
SplineSet
156 365 m 1xd0
 97 365 l 1
 97 426 l 1
 68 428 41 434 24 442 c 1
 39 516 l 1xd0
 59 505 82 498 110 498 c 0
 138 498 153 510 153 530 c 0
 153 549 144 561 104 583 c 0
 50 613 26 641 26 690 c 0xe4
 26 735 54 774 106 791 c 1
 106 852 l 1
 165 852 l 1
 165 798 l 1
 194 796 215 790 231 782 c 1
 216 711 l 1xc8
 203 718 180 727 157 727 c 0
 125 727 115 713 115 697 c 0
 115 680 121 671 166 647 c 0
 223 617 242 581 242 537 c 0xe4
 242 484 209 444 156 431 c 1
 156 365 l 1xd0
EndSplineSet
Validated: 1
EndChar

StartChar: cent.superior
Encoding: 63200 63200 306
Width: 267
Flags: MW
HStem: 412 128<162 188 129 189.5> 685 128<158 184>
VStem: 24 94<592.5 635 589.5 646.5> 129 59<412 470 412 473>
LayerCount: 2
Fore
SplineSet
188 412 m 1
 129 412 l 1
 129 473 l 1xd0
 97 479 72 494 53 518 c 0
 35 541 24 574 24 611 c 0xf0
 24 682 66 737 130 752 c 1
 130 813 l 1
 189 813 l 1
 189 757 l 1
 207 755 223 752 234 746 c 1
 223 676 l 1xd0
 207 684 193 685 175 685 c 0
 141 685 118 658 118 612 c 0
 118 567 145 540 179 540 c 0xf0
 200 540 214 543 230 549 c 1
 237 479 l 1
 225 474 210 471 188 470 c 1
 188 412 l 1
EndSplineSet
Validated: 1
EndChar

StartChar: hyphen.superior
Encoding: 63206 63206 307
Width: 160
Flags: MW
HStem: 574 65<18 142 18 142>
VStem: 18 124<574 639 574 639>
LayerCount: 2
Fore
SplineSet
18 639 m 1
 142 639 l 1
 142 574 l 1
 18 574 l 1
 18 639 l 1
EndSplineSet
Validated: 1
EndChar

StartChar: parenleft.superior
Encoding: 8317 8317 308
Width: 163
Flags: MW
HStem: 360 487<99 165 99 165>
VStem: 29 73<548 658.5 548 660.5>
LayerCount: 2
Fore
SplineSet
99 847 m 1
 165 847 l 1
 130 792 102 715 102 602 c 0
 102 494 130 417 165 360 c 1
 99 360 l 1
 65 406 29 487 29 602 c 0
 29 719 65 801 99 847 c 1
EndSplineSet
Validated: 1
EndChar

StartChar: parenright.superior
Encoding: 8318 8318 309
Width: 163
Flags: MW
HStem: 360 487<-2 64 -2 64>
VStem: 61 73<550 659.5>
LayerCount: 2
Fore
SplineSet
64 360 m 1
 -2 360 l 1
 33 416 61 495 61 605 c 0
 61 714 33 791 -2 847 c 1
 64 847 l 1
 98 802 134 722 134 604 c 0
 134 490 98 407 64 360 c 1
EndSplineSet
Validated: 1
EndChar

StartChar: zero.inferior
Encoding: 8320 8320 310
Width: 291
Flags: MW
HStem: -152 77<135 158.5 135 184> 171 77<136.5 160>
VStem: 16 93<3 92.5 3 100> 182 93<3 90>
LayerCount: 2
Fore
SplineSet
146 -152 m 0
 48 -152 16 -51 16 46 c 0
 16 154 55 248 148 248 c 0
 251 248 275 140 275 50 c 0
 275 -84 222 -152 146 -152 c 0
147 -75 m 0
 170 -75 182 -42 182 48 c 0
 182 132 172 171 148 171 c 0
 125 171 109 137 109 48 c 0
 109 -42 123 -75 147 -75 c 0
EndSplineSet
Validated: 1
EndChar

StartChar: one.inferior
Encoding: 8321 8321 311
Width: 239
Flags: MW
HStem: -147 21G<98 192 98 98> 160 83<96 192 96 192> 223 20G<108 192 192 192>
VStem: 98 94<-147 160 160 160>
LayerCount: 2
Fore
SplineSet
192 -147 m 1xb0
 98 -147 l 1
 98 160 l 1
 96 160 l 1
 26 127 l 1
 8 196 l 1xd0
 108 243 l 1
 192 243 l 1
 192 -147 l 1xb0
EndSplineSet
Validated: 1
EndChar

StartChar: two.inferior
Encoding: 8322 8322 312
Width: 274
Flags: MW
HStem: -147 80<125 251 125 251> 169 79<97 110.5>
VStem: 146 101<98.5 135>
LayerCount: 2
Fore
SplineSet
8 -147 m 1
 8 -94 l 1
 54 -37 l 2
 106 26 146 71 146 116 c 0
 146 154 125 169 96 169 c 0
 72 169 48 158 32 146 c 1
 13 215 l 1
 33 233 73 248 121 248 c 0
 217 248 247 188 247 135 c 0
 247 62 191 7 142 -45 c 2
 125 -64 l 1
 125 -67 l 1
 251 -67 l 1
 251 -147 l 1
 8 -147 l 1
EndSplineSet
Validated: 1
EndChar

StartChar: three.inferior
Encoding: 8323 8323 313
Width: 260
Flags: MW
HStem: -152 21G<72.5 138> -152 71<73.5 103.5 73.5 138> 29 62<59 67 67 71 59 67> 177 71<96.5 107.5>
VStem: 59 108<60 62 60 91 60 91> 140 92<131 149> 145 98<-43.5 -9.5>
LayerCount: 2
Fore
SplineSet
35 159 m 1x72
 21 225 l 1
 43 237 78 248 115 248 c 0
 199 248 232 199 232 153 c 0x74
 232 109 207 79 167 62 c 1
 167 60 l 1x78
 209 52 243 15 243 -31 c 0
 243 -101 185 -152 91 -152 c 0x72
 54 -152 25 -144 6 -133 c 1xb2
 20 -64 l 1
 37 -73 60 -81 87 -81 c 0
 120 -81 145 -59 145 -28 c 0
 145 9 113 29 71 29 c 2x72
 59 29 l 1x78
 59 91 l 1
 67 91 l 2
 99 91 140 103 140 136 c 0
 140 162 121 177 94 177 c 0x74
 71 177 54 170 35 159 c 1x72
EndSplineSet
Validated: 1
EndChar

StartChar: four.inferior
Encoding: 8324 8324 314
Width: 301
Flags: MW
HStem: -147 158<88 243 88 158> -58 69<88 158 88 158 243 285> 148 96<159 161 159 159> 224 20G<151 243 243 243>
VStem: 158 85<-147 -58 11 82 82 95>
LayerCount: 2
Fore
SplineSet
243 -147 m 1x98
 158 -147 l 1xa8
 158 -58 l 1
 10 -58 l 1
 10 2 l 1x58
 151 244 l 1
 243 244 l 1
 243 11 l 1
 285 11 l 1x98
 285 -58 l 1
 243 -58 l 1x58
 243 -147 l 1x98
158 11 m 1
 158 82 l 2
 158 108 160 131 161 148 c 1
 159 148 l 1
 150 129 145 114 134 96 c 2
 88 13 l 1
 88 11 l 1
 158 11 l 1
EndSplineSet
Validated: 1
EndChar

StartChar: five.inferior
Encoding: 8325 8325 315
Width: 275
Flags: MW
HStem: -152 75<84.5 114 82.5 150> 42 64<61.5 132> 164 79<124 241 124 124>
VStem: 159 93<-39.5 2>
LayerCount: 2
Fore
SplineSet
241 243 m 1
 241 164 l 1
 124 164 l 1
 118 106 l 2
 120 106 130 106 132 106 c 0
 155 106 191 98 215 77 c 0
 239 56 252 26 252 -14 c 0
 252 -88 198 -152 102 -152 c 0
 67 -152 33 -144 16 -135 c 1
 30 -63 l 1
 46 -70 70 -77 95 -77 c 0
 133 -77 159 -58 159 -21 c 0
 159 25 121 42 68 42 c 0
 55 42 45 41 34 40 c 1
 56 243 l 1
 241 243 l 1
EndSplineSet
Validated: 1
EndChar

StartChar: six.inferior
Encoding: 8326 8326 316
Width: 295
Flags: MW
HStem: -152 68<138 164 138 194> 47 64<141.5 207.5> 174 74<237.5 242 237.5 242> 228 20G<237.5 242>
VStem: 19 93<-30.5 -2 -30.5 54> 185 93<-30 2.5>
LayerCount: 2
Fore
SplineSet
242 248 m 1xdc
 242 174 l 1
 231 174 220 173 207 171 c 0xec
 150 163 124 127 113 83 c 1
 115 83 l 1
 131 100 152 111 179 111 c 0
 236 111 278 64 278 -12 c 0
 278 -82 235 -152 153 -152 c 0
 68 -152 19 -85 19 12 c 0
 19 96 48 155 87 192 c 0
 118 222 160 240 200 245 c 0
 220 247 233 248 242 248 c 1xdc
151 -84 m 0
 177 -84 185 -49 185 -11 c 0
 185 16 175 47 148 47 c 0
 135 47 122 38 116 23 c 0
 114 18 112 7 112 -11 c 0
 112 -50 125 -84 151 -84 c 0
EndSplineSet
Validated: 1
EndChar

StartChar: seven.inferior
Encoding: 8327 8327 317
Width: 259
Flags: MW
HStem: -147 21G<25 118 25 25> 163 80<12 155 12 250>
VStem: 12 238<183 243 183 243 183 243>
LayerCount: 2
Fore
SplineSet
12 243 m 1
 250 243 l 1
 250 183 l 1
 118 -147 l 1
 25 -147 l 1
 155 161 l 1
 155 163 l 1
 12 163 l 1
 12 243 l 1
EndSplineSet
Validated: 1
EndChar

StartChar: eight.inferior
Encoding: 8328 8328 318
Width: 300
Flags: MW
HStem: -152 62<138 163.5 138 184> 188 60<139.5 163.5>
VStem: 20 89<-50.5 -21 -50.5 -20> 30 87<132 154.5 132 175> 184 84<136.5 152> 189 90<-53 -22.5>
LayerCount: 2
Fore
SplineSet
154 248 m 0xd8
 221 248 268 208 268 150 c 0xe8
 268 123 257 89 217 65 c 1
 217 64 l 1
 252 47 279 12 279 -35 c 0
 279 -110 221 -152 147 -152 c 0
 69 -152 20 -107 20 -43 c 0xe4
 20 3 45 36 79 56 c 1
 79 57 l 1
 45 78 30 111 30 142 c 0
 30 208 85 248 154 248 c 0xd8
151 -90 m 0xe4
 176 -90 189 -67 189 -39 c 0
 189 -6 165 17 143 25 c 1
 125 15 109 -7 109 -35 c 0
 109 -66 125 -90 151 -90 c 0xe4
152 188 m 0xd8
 127 188 117 165 117 144 c 0
 117 120 133 102 157 92 c 1
 173 98 184 121 184 141 c 0
 184 163 175 188 152 188 c 0xd8
EndSplineSet
Validated: 1
EndChar

StartChar: nine.inferior
Encoding: 8329 8329 319
Width: 291
Flags: MW
HStem: -152 75<49 55> -9 62<131.5 132> 180 68<132.5 154.5>
VStem: 16 92<99.5 134.5 99.5 143.5> 178 94<98.5 130.5>
LayerCount: 2
Fore
SplineSet
49 -152 m 1
 49 -77 l 1
 64 -77 73 -77 88 -75 c 0
 106 -72 125 -65 140 -54 c 0
 158 -40 172 -15 179 13 c 1
 177 13 l 1
 164 0 145 -9 119 -9 c 0
 64 -9 16 36 16 109 c 0
 16 178 64 248 146 248 c 0
 229 248 272 179 272 84 c 0
 272 -4 242 -65 204 -103 c 0
 175 -130 135 -147 88 -151 c 0
 74 -153 61 -152 49 -152 c 1
143 180 m 0
 122 180 108 154 108 115 c 0
 108 84 119 53 144 53 c 0
 159 53 171 62 174 70 c 0
 177 78 178 86 178 111 c 0
 178 150 166 180 143 180 c 0
EndSplineSet
Validated: 33
EndChar

StartChar: period.inferior
Encoding: 63207 63207 320
Width: 152
Flags: MW
HStem: -152 118<62.5 91.5 62.5 92>
VStem: 23 107<-111 -75.5>
LayerCount: 2
Fore
SplineSet
76 -152 m 0
 46 -152 23 -129 23 -93 c 0
 23 -58 48 -34 77 -34 c 0
 106 -34 130 -56 130 -93 c 0
 130 -129 108 -152 76 -152 c 0
EndSplineSet
Validated: 1
EndChar

StartChar: comma.inferior
Encoding: 63201 63201 321
Width: 152
Flags: MW
HStem: -218 170
VStem: -1 136
LayerCount: 2
Fore
SplineSet
59 -215 m 1
 -1 -221 l 1
 18 -165 34 -103 42 -51 c 1
 135 -45 l 1
 115 -103 90 -165 59 -215 c 1
EndSplineSet
Validated: 1
EndChar

StartChar: dollar.inferior
Encoding: 63203 63203 322
Width: 267
Flags: MW
HStem: -199 133<97 124 96 156 97 97> 163 125<141 165 106 168.5>
VStem: 26 89<124.5 141 124.5 148.5> 97 59<-199 -138 -138 -138> 106 59<234 288 234 288 234 288> 153 89<-44 -24.5>
LayerCount: 2
Fore
SplineSet
156 -199 m 1xd0
 97 -199 l 1
 97 -138 l 1
 68 -136 41 -130 24 -122 c 1
 39 -48 l 1xd0
 59 -59 82 -66 110 -66 c 0
 138 -66 153 -54 153 -34 c 0
 153 -15 144 -3 104 19 c 0
 50 49 26 77 26 126 c 0xe4
 26 171 54 210 106 227 c 1
 106 288 l 1
 165 288 l 1
 165 234 l 1
 194 232 215 226 231 218 c 1
 216 147 l 1xc8
 203 154 180 163 157 163 c 0
 125 163 115 149 115 133 c 0
 115 116 121 107 166 83 c 0
 223 53 242 17 242 -27 c 0xe4
 242 -80 209 -120 156 -133 c 1
 156 -199 l 1xd0
EndSplineSet
Validated: 1
EndChar

StartChar: cent.inferior
Encoding: 63199 63199 323
Width: 267
Flags: MW
HStem: -152 128<162 188 129 189.5> 121 128<158 184>
VStem: 24 94<28.5 71 25.5 82.5> 129 59<-152 -94 -152 -91>
LayerCount: 2
Fore
SplineSet
188 -152 m 1
 129 -152 l 1
 129 -91 l 1xd0
 97 -85 72 -70 53 -46 c 0
 35 -23 24 10 24 47 c 0xf0
 24 118 66 173 130 188 c 1
 130 249 l 1
 189 249 l 1
 189 193 l 1
 207 191 223 188 234 182 c 1
 223 112 l 1xd0
 207 120 193 121 175 121 c 0
 141 121 118 94 118 48 c 0
 118 3 145 -24 179 -24 c 0xf0
 200 -24 214 -21 230 -15 c 1
 237 -85 l 1
 225 -90 210 -93 188 -94 c 1
 188 -152 l 1
EndSplineSet
Validated: 1
EndChar

StartChar: hyphen.inferior
Encoding: 63205 63205 324
Width: 160
Flags: MW
HStem: 10 65<18 142 18 142>
VStem: 18 124<10 75 10 75>
LayerCount: 2
Fore
SplineSet
18 75 m 1
 142 75 l 1
 142 10 l 1
 18 10 l 1
 18 75 l 1
EndSplineSet
Validated: 1
EndChar

StartChar: parenleft.inferior
Encoding: 8333 8333 325
Width: 163
Flags: MW
HStem: -204 487<99 165 99 165>
VStem: 29 73<-16 94.5 -16 96.5>
LayerCount: 2
Fore
SplineSet
99 283 m 1
 165 283 l 1
 130 228 102 151 102 38 c 0
 102 -70 130 -147 165 -204 c 1
 99 -204 l 1
 65 -158 29 -77 29 38 c 0
 29 155 65 237 99 283 c 1
EndSplineSet
Validated: 1
EndChar

StartChar: parenright.inferior
Encoding: 8334 8334 326
Width: 163
Flags: MW
HStem: -204 487<-2 64 -2 64>
VStem: 61 73<-14 95.5>
LayerCount: 2
Fore
SplineSet
64 -204 m 1
 -2 -204 l 1
 33 -148 61 -69 61 41 c 0
 61 150 33 227 -2 283 c 1
 64 283 l 1
 98 238 134 158 134 40 c 0
 134 -74 98 -157 64 -204 c 1
EndSplineSet
Validated: 1
EndChar

StartChar: zero.numerator
Encoding: 63073 63073 327
Width: 291
Flags: MW
HStem: 258 77<135 158.5 135 184> 581 77<136.5 160>
VStem: 16 93<413 502.5 413 510> 182 93<413 500>
LayerCount: 2
Fore
SplineSet
146 258 m 0
 48 258 16 359 16 456 c 0
 16 564 55 658 148 658 c 0
 251 658 275 550 275 460 c 0
 275 326 222 258 146 258 c 0
147 335 m 0
 170 335 182 368 182 458 c 0
 182 542 172 581 148 581 c 0
 125 581 109 547 109 458 c 0
 109 368 123 335 147 335 c 0
EndSplineSet
Validated: 1
Substitution2: "Single Substitution lookup 21 subtable" zero.denominator
EndChar

StartChar: one.numerator
Encoding: 63074 63074 328
Width: 239
Flags: MW
HStem: 263 21G<98 192 98 98> 570 83<96 192 96 192> 633 20G<108 192 192 192>
VStem: 98 94<263 570 570 570>
LayerCount: 2
Fore
SplineSet
192 263 m 1xb0
 98 263 l 1
 98 570 l 1
 96 570 l 1
 26 537 l 1
 8 606 l 1xd0
 108 653 l 1
 192 653 l 1
 192 263 l 1xb0
EndSplineSet
Validated: 1
Substitution2: "Single Substitution lookup 21 subtable" one.denominator
EndChar

StartChar: two.numerator
Encoding: 63075 63075 329
Width: 274
Flags: MW
HStem: 263 80<125 251 125 251> 579 79<97 110.5>
VStem: 146 101<508.5 545>
LayerCount: 2
Fore
SplineSet
8 263 m 1
 8 316 l 1
 54 373 l 2
 106 436 146 481 146 526 c 0
 146 564 125 579 96 579 c 0
 72 579 48 568 32 556 c 1
 13 625 l 1
 33 643 73 658 121 658 c 0
 217 658 247 598 247 545 c 0
 247 472 191 417 142 365 c 2
 125 346 l 1
 125 343 l 1
 251 343 l 1
 251 263 l 1
 8 263 l 1
EndSplineSet
Validated: 1
Substitution2: "Single Substitution lookup 21 subtable" two.denominator
EndChar

StartChar: three.numerator
Encoding: 63076 63076 330
Width: 260
Flags: MW
HStem: 258 21G<72.5 138> 258 71<73.5 103.5 73.5 138> 439 62<59 67 67 71 59 67> 587 71<96.5 107.5>
VStem: 59 108<470 472 470 501 470 501> 140 92<541 559> 145 98<366.5 400.5>
LayerCount: 2
Fore
SplineSet
35 569 m 1x72
 21 635 l 1
 43 647 78 658 115 658 c 0
 199 658 232 609 232 563 c 0x74
 232 519 207 489 167 472 c 1
 167 470 l 1x78
 209 462 243 425 243 379 c 0
 243 309 185 258 91 258 c 0x72
 54 258 25 266 6 277 c 1xb2
 20 346 l 1
 37 337 60 329 87 329 c 0
 120 329 145 351 145 382 c 0
 145 419 113 439 71 439 c 2x72
 59 439 l 1x78
 59 501 l 1
 67 501 l 2
 99 501 140 513 140 546 c 0
 140 572 121 587 94 587 c 0x74
 71 587 54 580 35 569 c 1x72
EndSplineSet
Validated: 1
Substitution2: "Single Substitution lookup 21 subtable" three.denominator
EndChar

